<svg width="307" height="55" viewBox="0 0 307 55" fill="none" xmlns="http://www.w3.org/2000/svg">
<path d="M0.975 53L19.175 7.37H29.575L47.775 53H43.225C43.0083 49.9667 42.6833 47.15 42.25 44.55C41.86 41.9067 41.1017 39.1767 39.975 36.36L38.74 33.045H19.305L11.375 53H0.975ZM28.99 8.8L19.76 31.94H38.285L28.99 8.8ZM73.84 53.91C71.9767 53.91 70.07 53.4333 68.12 52.48C66.17 51.4833 64.22 50.01 62.27 48.06V53H51.87V7.37H62.27V26.74H62.335C63.635 22.6233 65.4333 19.525 67.73 17.445C70.07 15.365 72.54 14.325 75.14 14.325C77.6967 14.325 79.9933 15.1267 82.03 16.73C84.11 18.29 85.735 20.4567 86.905 23.23C88.075 26.0033 88.66 29.08 88.66 32.46C88.66 36.36 88.01 39.9567 86.71 43.25C85.41 46.5 83.6333 49.1 81.38 51.05C79.1267 52.9567 76.6133 53.91 73.84 53.91ZM69.81 50.335C72.5833 50.335 74.75 48.5583 76.31 45.005C77.9133 41.4517 78.715 36.88 78.715 31.29C78.715 27.1733 78.1083 23.945 76.895 21.605C75.725 19.265 74.1217 18.095 72.085 18.095C70.1783 18.095 68.2933 19.135 66.43 21.215C64.61 23.295 63.2233 26.1333 62.27 29.73V46.89C63.57 48.0167 64.87 48.8833 66.17 49.49C67.5133 50.0533 68.7267 50.335 69.81 50.335ZM112.489 54.105C108.416 54.105 104.862 53.3467 101.829 51.83C98.7958 50.27 96.4558 48.0167 94.8091 45.07C93.1624 42.1233 92.3391 38.5917 92.3391 34.475C92.3391 30.2717 93.1624 26.675 94.8091 23.685C96.4558 20.6517 98.7958 18.355 101.829 16.795C104.862 15.1917 108.416 14.39 112.489 14.39C116.519 14.39 120.029 15.1917 123.019 16.795C126.052 18.355 128.392 20.6517 130.039 23.685C131.686 26.675 132.509 30.2717 132.509 34.475C132.509 38.5917 131.686 42.1233 130.039 45.07C128.392 48.0167 126.052 50.27 123.019 51.83C120.029 53.3467 116.519 54.105 112.489 54.105ZM112.489 52.935C114.569 52.935 116.389 52.0467 117.949 50.27C119.509 48.45 120.701 46.1317 121.524 43.315C122.347 40.455 122.759 37.5083 122.759 34.475C122.759 31.615 122.347 28.7117 121.524 25.765C120.701 22.8183 119.509 20.37 117.949 18.42C116.389 16.47 114.569 15.495 112.489 15.495C110.322 15.495 108.459 16.47 106.899 18.42C105.339 20.3267 104.147 22.7533 103.324 25.7C102.544 28.6467 102.154 31.5717 102.154 34.475C102.154 37.5517 102.544 40.4983 103.324 43.315C104.147 46.1317 105.339 48.45 106.899 50.27C108.459 52.0467 110.322 52.935 112.489 52.935ZM149.318 54.04C147.238 54.04 145.309 53.585 143.533 52.675C141.756 51.7217 140.326 50.335 139.243 48.515C138.203 46.695 137.683 44.5067 137.683 41.95V15.43H148.083V46.63C148.083 48.3633 148.451 49.685 149.188 50.595C149.968 51.4617 150.986 51.895 152.243 51.895C153.673 51.895 155.168 51.2667 156.728 50.01C158.331 48.7533 159.739 46.9983 160.953 44.745C162.166 42.4483 163.011 39.8917 163.488 37.075V15.43H173.888V53H163.488V41.69H163.293C161.906 45.6767 159.978 48.7317 157.508 50.855C155.038 52.9783 152.308 54.04 149.318 54.04ZM197.998 54.235C195.354 54.235 192.819 53.65 190.393 52.48C187.966 51.31 186.016 49.6633 184.543 47.54C183.069 45.3733 182.333 42.9033 182.333 40.13V16.535H178.433V15.43H184.218C186.428 14.0867 188.204 12.0067 189.548 9.19C190.891 6.33 191.563 3.55667 191.563 0.869997H192.733V15.43H202.158V16.535H192.733V46.63C192.733 48.7533 193.101 50.3783 193.838 51.505C194.574 52.5883 195.549 53.13 196.763 53.13C198.496 53.13 200.338 52.155 202.288 50.205C204.281 48.2117 206.101 45.5467 207.748 42.21L210.023 48.45C208.549 50.3567 206.751 51.8083 204.628 52.805C202.504 53.7583 200.294 54.235 197.998 54.235ZM247.075 53.975C243.175 53.975 239.708 53.2817 236.675 51.895C233.685 50.5083 231.323 48.4283 229.59 45.655C227.856 42.8383 226.99 39.4367 226.99 35.45V7.37H237.455V41.755C237.455 45.135 238.321 47.8217 240.055 49.815C241.831 51.8083 244.171 52.805 247.075 52.805C249.935 52.805 252.21 51.8083 253.9 49.815C255.633 47.8217 256.5 45.135 256.5 41.755V7.37H266.9V35.45C266.9 39.4367 266.055 42.8383 264.365 45.655C262.675 48.4283 260.335 50.5083 257.345 51.895C254.398 53.2817 250.975 53.975 247.075 53.975ZM288.87 54.105C283.973 54.105 278.687 53.26 273.01 51.57L274.635 45.07C278.015 47.7567 281.2 49.6417 284.19 50.725C287.18 51.765 289.845 52.285 292.185 52.285C294.135 52.285 295.695 51.9383 296.865 51.245C298.035 50.5517 298.663 49.6633 298.75 48.58C298.75 46.63 297.688 44.7883 295.565 43.055C293.485 41.3217 290.343 39.22 286.14 36.75C283.15 34.9733 280.723 33.4567 278.86 32.2C277.04 30.9 275.502 29.4917 274.245 27.975C272.988 26.4583 272.36 24.8983 272.36 23.295C272.36 20.3917 274.267 18.2033 278.08 16.73C281.893 15.2133 286.552 14.455 292.055 14.455C296.692 14.455 301.047 14.9317 305.12 15.885L304.08 22.385C301.74 20.6517 298.858 19.1567 295.435 17.9C292.012 16.6433 289.065 16.015 286.595 16.015C284.732 16.015 283.237 16.34 282.11 16.99C281.027 17.64 280.485 18.5933 280.485 19.85C280.485 20.89 281.243 21.9733 282.76 23.1C284.32 24.2267 286.79 25.765 290.17 27.715C293.637 29.7083 296.41 31.42 298.49 32.85C300.613 34.28 302.433 35.905 303.95 37.725C305.51 39.545 306.29 41.4733 306.29 43.51C306.247 47.15 304.535 49.8367 301.155 51.57C297.818 53.26 293.723 54.105 288.87 54.105Z" fill="white"/>
</svg>
