<svg width="131" height="24" viewBox="0 0 131 24" fill="none" xmlns="http://www.w3.org/2000/svg">
<path d="M14.55 18.02H5.01L3.18 23H0.96L8.61 2.3H10.98L18.6 23H16.38L14.55 18.02ZM13.92 16.28L9.78 4.94L5.64 16.28H13.92ZM24.0403 10.25C24.5803 9.11 25.4103 8.18 26.5303 7.46C27.6703 6.74 29.0103 6.38 30.5503 6.38C32.0503 6.38 33.3903 6.73 34.5703 7.43C35.7503 8.11 36.6703 9.09 37.3303 10.37C38.0103 11.63 38.3503 13.1 38.3503 14.78C38.3503 16.46 38.0103 17.94 37.3303 19.22C36.6703 20.5 35.7403 21.49 34.5403 22.19C33.3603 22.89 32.0303 23.24 30.5503 23.24C28.9903 23.24 27.6403 22.89 26.5003 22.19C25.3803 21.47 24.5603 20.54 24.0403 19.4V23H21.9703V0.8H24.0403V10.25ZM36.2203 14.78C36.2203 13.42 35.9503 12.25 35.4103 11.27C34.8903 10.27 34.1703 9.51 33.2503 8.99C32.3303 8.47 31.2903 8.21 30.1303 8.21C29.0103 8.21 27.9803 8.48 27.0403 9.02C26.1203 9.56 25.3903 10.33 24.8503 11.33C24.3103 12.33 24.0403 13.49 24.0403 14.81C24.0403 16.13 24.3103 17.29 24.8503 18.29C25.3903 19.29 26.1203 20.06 27.0403 20.6C27.9803 21.14 29.0103 21.41 30.1303 21.41C31.2903 21.41 32.3303 21.15 33.2503 20.63C34.1703 20.09 34.8903 19.32 35.4103 18.32C35.9503 17.3 36.2203 16.12 36.2203 14.78ZM49.3845 23.24C47.8445 23.24 46.4545 22.9 45.2145 22.22C43.9945 21.52 43.0245 20.54 42.3045 19.28C41.6045 18 41.2545 16.51 41.2545 14.81C41.2545 13.11 41.6145 11.63 42.3345 10.37C43.0545 9.09 44.0345 8.11 45.2745 7.43C46.5145 6.73 47.9045 6.38 49.4445 6.38C50.9845 6.38 52.3745 6.73 53.6145 7.43C54.8745 8.11 55.8545 9.09 56.5545 10.37C57.2745 11.63 57.6345 13.11 57.6345 14.81C57.6345 16.49 57.2745 17.97 56.5545 19.25C55.8345 20.53 54.8445 21.52 53.5845 22.22C52.3245 22.9 50.9245 23.24 49.3845 23.24ZM49.3845 21.41C50.4645 21.41 51.4645 21.17 52.3845 20.69C53.3045 20.19 54.0445 19.45 54.6045 18.47C55.1845 17.47 55.4745 16.25 55.4745 14.81C55.4745 13.37 55.1945 12.16 54.6345 11.18C54.0745 10.18 53.3345 9.44 52.4145 8.96C51.4945 8.46 50.4945 8.21 49.4145 8.21C48.3345 8.21 47.3345 8.46 46.4145 8.96C45.4945 9.44 44.7545 10.18 44.1945 11.18C43.6545 12.16 43.3845 13.37 43.3845 14.81C43.3845 16.25 43.6545 17.47 44.1945 18.47C44.7545 19.45 45.4845 20.19 46.3845 20.69C47.3045 21.17 48.3045 21.41 49.3845 21.41ZM75.6525 6.62V23H73.5525V20.12C73.0725 21.14 72.3325 21.92 71.3325 22.46C70.3325 23 69.2125 23.27 67.9725 23.27C66.0125 23.27 64.4125 22.67 63.1725 21.47C61.9325 20.25 61.3125 18.49 61.3125 16.19V6.62H63.3825V15.95C63.3825 17.73 63.8225 19.09 64.7025 20.03C65.6025 20.97 66.8225 21.44 68.3625 21.44C69.9425 21.44 71.2025 20.94 72.1425 19.94C73.0825 18.94 73.5525 17.47 73.5525 15.53V6.62H75.6525ZM83.1769 8.39V18.56C83.1769 19.56 83.3669 20.25 83.7469 20.63C84.1269 21.01 84.7969 21.2 85.7569 21.2H87.6769V23H85.4269C83.9469 23 82.8469 22.66 82.1269 21.98C81.4069 21.28 81.0469 20.14 81.0469 18.56V8.39H78.7669V6.62H81.0469V2.51H83.1769V6.62H87.6769V8.39H83.1769ZM101.383 2.03V15.23C101.383 17.31 101.873 18.85 102.853 19.85C103.853 20.85 105.213 21.35 106.933 21.35C108.653 21.35 109.993 20.86 110.953 19.88C111.933 18.88 112.423 17.33 112.423 15.23V2.03H114.523V15.2C114.523 17.86 113.813 19.86 112.393 21.2C110.993 22.54 109.163 23.21 106.903 23.21C104.643 23.21 102.803 22.54 101.383 21.2C99.9827 19.86 99.2827 17.86 99.2827 15.2V2.03H101.383ZM124.847 23.24C122.967 23.24 121.427 22.81 120.227 21.95C119.047 21.07 118.387 19.88 118.247 18.38H120.407C120.507 19.3 120.937 20.05 121.697 20.63C122.477 21.19 123.517 21.47 124.817 21.47C125.957 21.47 126.847 21.2 127.487 20.66C128.147 20.12 128.477 19.45 128.477 18.65C128.477 18.09 128.297 17.63 127.937 17.27C127.577 16.91 127.117 16.63 126.557 16.43C126.017 16.21 125.277 15.98 124.337 15.74C123.117 15.42 122.127 15.1 121.367 14.78C120.607 14.46 119.957 13.99 119.417 13.37C118.897 12.73 118.637 11.88 118.637 10.82C118.637 10.02 118.877 9.28 119.357 8.6C119.837 7.92 120.517 7.38 121.397 6.98C122.277 6.58 123.277 6.38 124.397 6.38C126.157 6.38 127.577 6.83 128.657 7.73C129.737 8.61 130.317 9.83 130.397 11.39H128.297C128.237 10.43 127.857 9.66 127.157 9.08C126.477 8.48 125.537 8.18 124.337 8.18C123.277 8.18 122.417 8.43 121.757 8.93C121.097 9.43 120.767 10.05 120.767 10.79C120.767 11.43 120.957 11.96 121.337 12.38C121.737 12.78 122.227 13.1 122.807 13.34C123.387 13.56 124.167 13.81 125.147 14.09C126.327 14.41 127.267 14.72 127.967 15.02C128.667 15.32 129.267 15.76 129.767 16.34C130.267 16.92 130.527 17.69 130.547 18.65C130.547 19.53 130.307 20.32 129.827 21.02C129.347 21.7 128.677 22.24 127.817 22.64C126.957 23.04 125.967 23.24 124.847 23.24Z" fill="white"/>
</svg>
