<svg width="512" height="512" viewBox="0 0 512 512" fill="none" xmlns="http://www.w3.org/2000/svg">
<path fill-rule="evenodd" clip-rule="evenodd" d="M381 107H351.9L253.8 183.3C234.1 197.2 216.7 210.7 204 214C186.7 218.4 164.2 220.9 131 220.2C141 222.5 149.7 223.5 155.4 224.2C182.6 227.6 202.1 236.8 218.6 248.9C229.5 256.8 236.1 263.7 243.8 268.3C252.3 273.3 264.1 276.7 274.1 276.7C284.2 276.7 294.3 275.4 302.4 273.3C293.6 273.7 282.1 273 273.8 271.2C265.5 269.4 247.8 263.2 245.8 253C243.9 243.3 268.3 235.8 277.9 234.4C302.9 230.8 324.1 231.8 331.8 232.3C321.5 228.3 318.7 223.4 318.7 219.2C318.7 215 321.6 211 323.4 207.9L381 107Z" fill="#B92D2F"/>
<path fill-rule="evenodd" clip-rule="evenodd" d="M277.4 182.6L276.1 183.1C278.7 195.9 281.4 205.3 286.7 215.5C288.7 219.3 291.8 225.8 294.9 232.5C295.8 232.4 296.6 232.4 297.5 232.3C295.1 225 292.9 217.8 291.7 213.5C288.7 202.5 284.2 193.8 277.4 182.6ZM215.3 243.2C215.2 243.4 215.1 243.5 215 243.6C215.1 243.5 215.2 243.3 215.3 243.2ZM264.1 181.5L263 180.7C253.4 189.5 246.6 196.6 240.6 206.3C234.9 215.5 218.2 239.5 215.4 243.2C218.3 239.5 237.4 217.4 244.9 209.6C252.8 201.3 258 193 264.1 181.5ZM280.3 180.8L279.2 181.6C285 193.3 290 201.7 297.7 210.2C301.8 214.7 309.5 223.9 315.9 231.8C316.5 231.8 317.1 231.8 317.7 231.8C312 223.2 305.2 212.5 302 207.1C296.3 197.1 289.7 189.8 280.3 180.8ZM285.2 171.7L285 173.1C297.3 177.4 306.8 179.9 318.2 180.5C322.7 180.7 330.4 181.4 338.1 182.2L339.3 180C331.4 178.2 323.5 176.4 319 175.1C308 172.2 298.2 171.6 285.2 171.7ZM282.7 178.2L281.8 179.3C290.4 189.1 297.4 196 307 202.2C310.3 204.3 315.6 208 321.1 211.9C321.6 211.1 322.1 210.2 322.5 209.5C317.6 205 313.1 200.8 310.4 198.1C302.3 189.9 294.1 184.5 282.7 178.2ZM318.7 163C307.2 162.9 297.6 164.8 285.1 168.3L285.2 169.7C298.2 170.7 308 170.7 319.2 168.4C325.5 167.1 338.5 165 348.8 163.5L349.5 162.2C339 162.5 325.4 163 318.7 163ZM284.4 175.1L283.8 176.4C294.6 183.7 303.1 188.6 314 192.1C317.6 193.3 323.3 195.3 329.3 197.6L330.7 195.1C324.9 192 319.5 189.1 316.1 187.2C306.3 181.4 297 178.3 284.4 175.1ZM269.2 183.6C265.2 196 262.8 205.5 262.4 217C262.2 221.9 261.6 230.6 260.8 239.1C261.6 238.8 262.4 238.5 263.2 238.2C264.8 230.2 266.5 222.3 267.7 217.7C270.5 206.6 270.9 196.8 270.6 183.8L269.2 183.6ZM344.9 114.4C345.1 114.3 345.2 114.2 345.3 114.1C345.2 114.2 345 114.3 344.9 114.4ZM261.5 179.2L260.7 178.1C260.5 178.2 260.4 178.3 260.2 178.3L253.8 183.3C244 190.2 234.8 197 226.5 202.5C216.7 211.2 201.5 224 198.5 226.4C202.2 223.6 226.4 207.1 235.6 201.5C245.5 195.5 252.6 188.7 261.5 179.2ZM198.6 226.3C198.4 226.4 198.3 226.5 198.2 226.6C198.3 226.5 198.4 226.5 198.6 226.3ZM274.1 183.7L272.7 183.9C272 196.9 272.1 206.7 274.6 217.9C275.5 221.7 276.6 227.9 277.8 234.4H277.9C278.8 234.3 279.7 234.1 280.6 234C280.2 227.4 280 221.1 279.9 217.2C279.9 205.8 277.8 196.2 274.1 183.7ZM235.8 255.2C235.7 255.4 235.7 255.5 235.6 255.6C235.7 255.5 235.7 255.4 235.8 255.2ZM265.9 182.6C258.8 193.5 254.1 202.1 250.8 213.1C247.7 223.4 237.6 250.9 235.8 255.2C237.7 250.9 250.5 224.6 255.7 215.2C261.3 205.2 264.2 195.8 267.1 183.1L265.9 182.6ZM284.1 164.6L284.6 165.9C297.4 163.5 306.9 161.1 317.2 155.9C326.9 151.1 353.7 139.5 358.1 137.8C353.7 139.4 325.8 148.2 315.3 150.8C304.2 153.7 295.3 158.1 284.1 164.6ZM358 137.9C358.2 137.8 358.3 137.8 358.4 137.7C358.4 137.8 358.2 137.8 358 137.9ZM311 143.6C318.8 136.2 341.2 117.3 344.8 114.4C342.5 116.1 332.7 122.9 323.2 129.2L282.5 161C282.3 161.2 282.2 161.4 282 161.5L282.8 162.6C294.3 156.6 302.7 151.5 311 143.6Z" fill="#D57634"/>
<path fill-rule="evenodd" clip-rule="evenodd" d="M111.13 328.3L102.77 342.16C102.77 342.16 101.01 345.57 95.8398 345.57C90.7798 345.57 79.3398 345.57 79.3398 345.57L81.3198 342.38C81.3198 342.38 82.4198 342.38 83.2998 342.38C85.7198 342.38 86.4898 341.06 86.4898 341.06L94.2998 328.85H84.8398L73.0698 346.89C73.0698 346.89 70.2098 350.52 75.1598 350.52C81.0998 350.52 94.5198 350.52 100.13 350.52C104.53 350.52 103.43 354.48 103.43 354.48L102.77 357.34H84.3998C84.3998 357.34 85.4998 354.15 82.0898 354.15C78.5698 354.15 66.1398 354.15 59.9798 354.15C52.0598 354.15 55.7998 347.77 55.7998 347.77L68.2298 328.3H59.4298L61.4098 325.55H121.03L119.27 328.3H111.13V328.3ZM160.63 336.55C160.63 336.55 159.64 338.42 158.32 338.42C157.11 338.42 156.34 338.42 156.34 338.42L156.23 339.19C156.23 339.19 158.43 340.51 156.56 343.59C154.69 346.78 151.72 350.96 151.72 350.96C151.72 350.96 149.74 354.04 144.35 354.04C138.96 354.04 116.3 354.04 112.67 354.04C109.15 354.04 110.8 349.86 110.8 349.86L111.46 347.55H127.74C127.74 347.55 126.31 351.07 129.72 351.07C131.37 351.07 131.37 351.07 133.46 351.07C135.55 351.07 136.21 349.75 136.21 349.75L140.5 342.82C140.5 342.82 141.38 340.84 137.64 340.84C133.9 340.84 129.17 340.84 129.17 340.84L131.04 337.32H143.58L147.76 331.38C147.76 331.38 149.52 328.3 145.56 328.3C144.57 328.3 143.36 328.3 141.6 328.3C139.95 328.3 138.74 330.61 138.74 330.61L137.42 332.48H120.48L123.34 328.19C123.34 328.19 124.33 325.66 127.41 325.66C130.49 325.66 157.99 325.66 162.61 325.66C167.23 325.66 165.14 329.29 165.14 329.29L160.63 336.55ZM192.42 329.07L177.68 354.15H160.63L168.66 340.84H161.73L163.49 337.65H170.31L176.03 329.29H169.76L172.18 325.88H201.44L199.13 329.07H192.42ZM227.95 328.96L222.56 338.2C222.56 338.2 220.91 341.06 218.82 341.06C216.73 341.06 214.2 341.06 214.2 341.06C214.2 341.06 215.52 343.15 214.09 345.02C212.66 346.89 211.45 348.32 211.45 348.32C211.45 348.32 209.25 351.4 213.32 351.4C217.5 351.4 220.8 351.4 220.8 351.4L218.82 354.26C218.82 354.26 200.23 354.26 196.6 354.26C192.97 354.26 193.74 349.53 194.95 347.99C196.16 346.45 196.05 346.56 197.59 344.03C199.57 340.84 195.5 340.4 195.5 340.4L197.04 337.98H206.28L212.11 328.74H205.84L207.71 325.55H236.53L234.66 328.63H227.95V328.96ZM233.67 342.71L236.2 338.42H242.47L239.83 342.71H233.67ZM304.73 328.96H301.1L297.8 334.79C297.8 334.79 296.81 336.44 294.28 336.44C291.75 336.44 272.83 336.44 271.51 336.44C270.19 336.44 268.1 340.29 271.18 340.29C274.26 340.29 287.02 340.29 290.98 340.29C295.16 340.29 292.63 343.59 292.63 343.59L286.69 353.16C286.69 353.16 285.26 355.47 282.62 355.47C279.98 355.47 259.74 355.47 259.74 355.47L257.98 359.1H246.87L248.85 355.36C248.85 355.36 244.78 354.92 246.1 351.18C247.53 348.32 247.97 347.44 247.97 347.44H263.81L263.37 349.53C263.37 349.53 262.49 351.95 264.58 351.95C266.67 351.95 268.21 351.95 269.64 351.95C271.07 351.95 272.28 350.3 272.28 350.3L274.37 346.78C274.37 346.78 275.47 343.92 272.39 343.92C269.31 343.92 255.89 343.92 252.92 343.92C249.95 343.92 251.05 341.06 251.05 341.06L254.02 335.56C254.02 335.56 255.23 333.14 258.86 333.14C260.73 333.14 282.29 333.14 282.29 333.14L283.94 330.06C283.94 330.06 284.05 329.29 282.51 329.29C280.97 329.29 258.42 329.29 258.42 329.29L260.51 325.77H306.38L304.73 328.96ZM288.78 321.26L291.09 317.63H307.7L306.05 321.26H288.78ZM364.02 320.6C361.16 320.6 336.74 320.6 334.76 320.6C332.89 320.6 332.23 322.47 332.23 322.47L330.58 325.66H364.57L365.78 322.91C366 322.8 366.99 320.6 364.02 320.6ZM384.15 328.96H379.31L375.79 335.34C375.79 335.34 375.13 336.88 372.49 336.88C369.85 336.88 352.91 336.88 350.71 336.88C348.51 336.88 347.41 340.62 350.38 340.62C353.35 340.62 363.8 340.62 368.53 340.62C373.26 340.62 371.06 344.36 371.06 344.36L366.77 352.17C366.77 352.17 365.34 355.14 361.05 355.14C356.76 355.14 333.22 355.14 327.94 355.14C322.66 355.14 324.53 350.63 324.53 350.63L325.85 348.32H343.01C343.01 348.32 340.92 351.95 343.23 351.95C345.54 351.95 347.19 351.95 348.73 351.95C350.27 351.95 351.26 350.19 351.26 350.19L353.13 346.23C353.13 346.23 353.9 343.92 350.82 343.92C347.74 343.92 336.52 343.92 332.89 343.92C328.82 343.92 330.58 340.62 330.58 340.62L332.89 336.55C332.89 336.55 334.1 333.69 338.61 333.69C344 333.69 360.72 333.69 360.72 333.69L363.03 328.85H328.6L313.31 354.92H295.93L312.1 328.74H308.14L310.12 325.44H314.08L318.04 319.39C318.04 319.39 318.59 317.3 322.99 317.3C327.39 317.3 379.42 317.3 382.06 317.3C384.7 317.3 386.02 318.84 384.92 320.82C383.82 322.8 382.06 325.88 382.06 325.88H386.13L384.15 328.96ZM425.73 329.51C423.97 329.51 421 329.51 419.57 329.51C418.14 329.51 417.81 330.5 417.81 330.5L415.06 335.34C415.06 335.34 414.29 337.1 412.64 337.1C410.99 337.1 396.69 337.1 396.69 337.1L394.93 340.4C394.93 340.4 393.06 343.59 396.36 343.59C399.66 343.59 419.57 343.59 419.57 343.59L426.28 331.82C426.28 331.93 427.6 329.51 425.73 329.51ZM469.29 330.28L454.55 357.12H437.72L451.8 331.82C451.8 331.82 453.56 329.07 451.36 329.07C449.16 329.07 447.29 329.07 445.64 329.07C443.88 329.07 442.89 331.16 442.89 331.16L429.25 356.02H412.53L416.6 349.42C416.6 349.42 417.37 347.22 414.18 347.22C410.99 347.22 384.48 347.22 379.31 347.22C374.14 347.22 378.21 341.17 378.21 341.17L382.39 333.69C382.39 333.69 395.81 333.69 398.34 333.69C400.87 333.69 403.51 329.07 400.21 329.07C396.91 329.07 390.09 329.07 390.09 329.07L392.29 325.99H476V330.28H469.29Z" fill="#B92D2F"/>
<path fill-rule="evenodd" clip-rule="evenodd" d="M430.79 395.4H423.31L436.18 380L430.79 395.4ZM415.61 376.15L391.19 404.97H415.28L418.69 400.9H428.81L427.38 404.97H449.6L457.74 376.15H415.61ZM378.21 376.15L363.14 404.97H387.23L402.08 376.15H378.21ZM345.1 386.16L339.38 396.06C338.83 397.27 337.95 397.71 335.75 397.71H330.36L338.28 383.3H343.56C345.98 383.3 345.43 385.17 345.1 386.16ZM363.25 376.15C355.22 376.15 342.13 376.15 342.13 376.15H318.26L303.19 404.97H350.6C356.65 404.97 357.86 402.55 357.86 402.55L368.53 382.31C370.07 379.45 368.86 376.15 363.25 376.15ZM291.86 376.15L287.35 384.84L281.08 376.15H256.88L241.7 404.97H260.29L266.12 393.64L273.49 404.97H295.38L310.23 376.15H291.86ZM226.41 376.15L211.34 404.97H235.43L250.28 376.15H226.41ZM169.32 386.16L168 389.24C167.45 390.45 166.57 390.89 164.37 390.89H158.98L162.5 383.3H167.78C170.31 383.3 169.65 385.17 169.32 386.16ZM187.47 376.15C179.44 376.15 166.35 376.15 166.35 376.15H142.48L127.41 404.97H151.5L156.34 395.29C157.88 395.29 158.54 396.61 158.54 396.61L163.16 404.64H185.05L179.55 394.63C185.6 394.63 186.81 392.21 186.81 392.21L192.64 382.09C194.29 379.45 193.08 376.15 187.47 376.15ZM113.22 376.15L98.15 404.97H122.24L137.09 376.15H113.22ZM75.6 395.4H68.12L80.99 380L75.6 395.4ZM60.42 376.15L36 404.97H60.09L63.5 400.9H73.62L72.19 404.97H94.3L102.44 376.15H60.42Z" fill="#B92D2F"/>
</svg>
