<svg width="235" height="86" viewBox="0 0 235 86" fill="none" xmlns="http://www.w3.org/2000/svg">
<path d="M0.25 33V1.41H15.505C17.605 1.41 19.36 1.8 20.77 2.58C22.21 3.33 23.275 4.305 23.965 5.505C24.655 6.675 25 7.89 25 9.15C25 11.31 24.43 13.065 23.29 14.415C22.15 15.735 20.71 16.485 18.97 16.665V16.845C21.19 17.055 23.095 17.76 24.685 18.96C26.275 20.16 27.07 21.78 27.07 23.82C27.07 25.38 26.68 26.865 25.9 28.275C25.12 29.655 23.935 30.795 22.345 31.695C20.755 32.565 18.82 33 16.54 33H0.25ZM13.12 16.44C13.99 16.44 14.83 16.17 15.64 15.63C16.48 15.06 17.155 14.235 17.665 13.155C18.175 12.075 18.43 10.8 18.43 9.33C18.43 8.19 18.19 7.08 17.71 6C17.26 4.89 16.57 3.975 15.64 3.255C14.74 2.535 13.645 2.175 12.355 2.175H7.45V16.44H13.12ZM12.445 32.19C13.975 32.19 15.295 31.8 16.405 31.02C17.545 30.24 18.4 29.25 18.97 28.05C19.57 26.82 19.87 25.59 19.87 24.36C19.87 22.71 19.525 21.36 18.835 20.31C18.145 19.23 17.29 18.45 16.27 17.97C15.25 17.49 14.2 17.25 13.12 17.25H7.45V32.19H12.445ZM38.5633 32.19C43.0333 32.19 46.5433 31.95 49.0933 31.47C51.6733 30.96 54.1633 29.97 56.5633 28.5V33H31.3633V1.41H55.8883V5.91C53.5783 4.53 51.1783 3.57 48.6883 3.03C46.1983 2.46 42.8233 2.175 38.5633 2.175V14.82H53.0983V15.63H38.5633V32.19ZM59.6201 33V1.41H66.8201V32.235C70.2101 32.235 73.0001 31.965 75.1901 31.425C77.4101 30.885 79.7351 29.91 82.1651 28.5V33H59.6201ZM86.2949 33V1.41H93.4949V32.235C96.8849 32.235 99.6749 31.965 101.865 31.425C104.085 30.885 106.41 29.91 108.84 28.5V33H86.2949ZM112.97 33V1.41H128.225C130.325 1.41 132.08 1.8 133.49 2.58C134.93 3.33 135.995 4.305 136.685 5.505C137.375 6.675 137.72 7.89 137.72 9.15C137.72 11.31 137.15 13.065 136.01 14.415C134.87 15.735 133.43 16.485 131.69 16.665V16.845C133.91 17.055 135.815 17.76 137.405 18.96C138.995 20.16 139.79 21.78 139.79 23.82C139.79 25.38 139.4 26.865 138.62 28.275C137.84 29.655 136.655 30.795 135.065 31.695C133.475 32.565 131.54 33 129.26 33H112.97ZM125.84 16.44C126.71 16.44 127.55 16.17 128.36 15.63C129.2 15.06 129.875 14.235 130.385 13.155C130.895 12.075 131.15 10.8 131.15 9.33C131.15 8.19 130.91 7.08 130.43 6C129.98 4.89 129.29 3.975 128.36 3.255C127.46 2.535 126.365 2.175 125.075 2.175H120.17V16.44H125.84ZM125.165 32.19C126.695 32.19 128.015 31.8 129.125 31.02C130.265 30.24 131.12 29.25 131.69 28.05C132.29 26.82 132.59 25.59 132.59 24.36C132.59 22.71 132.245 21.36 131.555 20.31C130.865 19.23 130.01 18.45 128.99 17.97C127.97 17.49 126.92 17.25 125.84 17.25H120.17V32.19H125.165ZM158.374 33.72C154.864 33.72 151.894 33 149.464 31.56C147.064 30.12 145.264 28.17 144.064 25.71C142.894 23.25 142.309 20.46 142.309 17.34C142.309 12.06 143.644 7.965 146.314 5.055C149.014 2.145 153.034 0.689998 158.374 0.689998C163.714 0.689998 167.719 2.145 170.389 5.055C173.089 7.965 174.439 12.06 174.439 17.34C174.439 20.46 173.839 23.25 172.639 25.71C171.469 28.17 169.669 30.12 167.239 31.56C164.839 33 161.884 33.72 158.374 33.72ZM158.374 32.955C161.524 32.955 163.789 31.53 165.169 28.68C166.549 25.8 167.239 22.02 167.239 17.34C167.239 12.69 166.534 8.88 165.124 5.91C163.744 2.94 161.494 1.455 158.374 1.455C152.464 1.455 149.509 6.75 149.509 17.34C149.509 21.93 150.229 25.68 151.669 28.59C153.109 31.5 155.344 32.955 158.374 32.955ZM200.911 1.41L191.731 18.96V33H184.531V18.96L175.351 1.41H182.551L191.326 18.24L195.826 9.6C196.516 8.22 196.861 6.75 196.861 5.19C196.861 4.26 196.711 3 196.411 1.41H200.911ZM218.118 33.675C213.858 33.675 209.388 32.88 204.708 31.29L205.023 26.79C207.723 28.77 210.273 30.24 212.673 31.2C215.073 32.16 217.218 32.64 219.108 32.64C220.488 32.64 221.718 32.4 222.798 31.92C223.908 31.41 224.763 30.735 225.363 29.895C225.963 29.025 226.263 28.08 226.263 27.06C226.263 26.43 226.158 25.845 225.948 25.305C225.438 23.865 224.313 22.59 222.573 21.48C220.833 20.37 218.403 19.11 215.283 17.7C212.853 16.59 210.903 15.63 209.433 14.82C207.993 14.01 206.778 13.08 205.788 12.03C204.798 10.98 204.303 9.81 204.303 8.52C204.303 5.97 205.653 4.02 208.353 2.67C211.083 1.32 214.533 0.644998 218.703 0.644998C222.543 0.644998 226.593 1.245 230.853 2.445L230.493 6.945C227.883 5.205 225.378 3.885 222.978 2.985C220.578 2.085 218.508 1.635 216.768 1.635C214.638 1.635 212.928 1.98 211.638 2.67C210.348 3.33 209.718 4.395 209.748 5.865C209.778 6.945 210.528 7.98 211.998 8.97C213.498 9.93 215.778 11.13 218.838 12.57C221.658 13.89 223.968 15.06 225.768 16.08C227.568 17.1 229.113 18.3 230.403 19.68C231.693 21.06 232.353 22.575 232.383 24.225C232.443 26.205 231.888 27.915 230.718 29.355C229.548 30.765 227.868 31.845 225.678 32.595C223.518 33.315 220.998 33.675 218.118 33.675ZM3.1 85H0.38V61.132H8.574C14.932 61.132 17.142 64.396 17.142 67.728C17.142 71.604 13.912 74.46 8.098 74.63H3.1V85ZM3.1 61.54V74.222H6.806C12.688 74.222 14.66 70.958 14.66 67.83C14.66 64.77 12.756 61.54 7.044 61.54H3.1ZM33.4755 75.31L38.2355 85H35.5155L30.5175 75.14C30.1095 74.358 29.4635 73.916 28.5455 73.916C27.3895 73.916 25.4855 74.8 23.7855 76.398V85H21.0655V61.132H30.1435C35.0055 61.132 37.1815 63.988 37.1815 66.98C37.1815 69.87 35.3455 73.032 31.5715 73.644C32.5575 74.018 33.0675 74.494 33.4755 75.31ZM29.8715 73.27C33.0675 73.474 34.8015 70.448 34.8015 67.524C34.8015 64.43 32.7615 61.54 28.4095 61.54H23.7855V75.956C25.6895 74.358 27.8315 73.168 29.8715 73.27ZM51.7535 85.578C44.6135 85.578 40.9755 79.798 40.9755 73.134C40.9755 66.13 44.6135 60.554 51.7535 60.554C58.8935 60.554 62.5315 66.13 62.5315 73.134C62.5315 79.798 58.8935 85.578 51.7535 85.578ZM51.7535 85.136C57.7035 85.136 59.8115 78.948 59.8115 73.134C59.8115 67.32 57.7035 60.996 51.7535 60.996C45.7015 60.996 43.6955 67.32 43.6955 73.134C43.6955 78.948 45.8715 85.136 51.7535 85.136ZM74.4323 85H66.9523V61.132H75.1803C81.7763 61.132 85.8563 64.838 85.8563 72.624C85.8563 81.464 80.4503 85 74.4323 85ZM69.6723 61.574V84.558H73.0723C79.2263 84.558 83.1363 81.94 83.1363 72.624C83.1363 65.076 80.3483 61.574 73.5823 61.574H69.6723ZM99.1665 85.51C94.0325 85.51 90.0205 82.858 90.0205 77.52V61.132H92.7745V78.608C92.7745 83.674 96.1745 85.102 99.1665 85.102C102.124 85.102 105.456 83.674 105.456 78.608V61.132H108.176V77.52C108.176 82.858 104.3 85.51 99.1665 85.51ZM125.689 85.51C117.903 85.51 112.429 80.886 112.429 72.794C112.429 64.736 118.209 60.418 125.553 60.418C127.899 60.418 130.415 60.86 132.965 61.778L132.829 63.852C130.449 62.628 128.307 60.894 126.267 60.894C119.569 60.894 115.149 65.416 115.149 72.794C115.149 79.866 120.147 85 126.811 85C128.715 85 130.823 83.164 132.795 82.212L132.965 84.32C130.381 85.102 127.933 85.51 125.689 85.51ZM147.494 85H144.774V61.54C140.32 61.54 139.13 61.982 136.444 63.172V61.132H155.824V63.172C153.172 61.982 151.71 61.54 147.494 61.54V85ZM162.043 85H159.323V61.132H162.043V85ZM177.062 85.578C169.922 85.578 166.284 79.798 166.284 73.134C166.284 66.13 169.922 60.554 177.062 60.554C184.202 60.554 187.84 66.13 187.84 73.134C187.84 79.798 184.202 85.578 177.062 85.578ZM177.062 85.136C183.012 85.136 185.12 78.948 185.12 73.134C185.12 67.32 183.012 60.996 177.062 60.996C171.01 60.996 169.004 67.32 169.004 73.134C169.004 78.948 171.18 85.136 177.062 85.136ZM193.723 85H191.751C192.397 82.28 192.533 79.934 192.533 76.908V61.132H194.845L210.247 83.844V68.68C210.247 66.232 210.077 63.546 209.499 61.132H211.437C210.825 63.546 210.689 66.266 210.689 68.68V85H208.105L192.941 62.594V76.908C192.941 79.764 193.043 82.28 193.723 85ZM224.332 85.408C221.578 85.408 218.484 84.864 215.254 83.674L215.56 81.634C219.266 83.81 222.36 84.898 224.876 84.898C229.262 84.898 232.254 82.688 231.608 79.084C230.418 72.964 215.526 72.216 215.05 66.47C214.71 62.492 219.266 60.588 224.434 60.588C226.95 60.588 229.806 60.996 232.798 61.914L232.424 63.954C229.568 62.288 226.304 61.064 223.958 61.064C219.708 61.064 216.988 62.594 217.192 65.076C217.6 70.006 233.58 71.468 234.124 78.37C234.532 82.994 230.01 85.408 224.332 85.408Z" fill="white"/>
</svg>
