<svg width="371" height="55" viewBox="0 0 371 55" fill="none" xmlns="http://www.w3.org/2000/svg">
<path d="M26.47 54.04C21.3133 54.04 16.7633 53.13 12.82 51.31C8.87667 49.49 5.8 46.825 3.59 43.315C1.38 39.7617 0.275 35.4717 0.275 30.445C0.275 25.245 1.42333 20.825 3.72 17.185C6.01667 13.5017 9.13667 10.75 13.08 8.93C17.0233 7.06667 21.4433 6.135 26.34 6.135C31.1933 6.135 36.22 7.02333 41.42 8.8L40.77 15.495C39.86 14.8017 38.5817 13.7183 36.935 12.245C35.0283 10.5983 33.5117 9.40666 32.385 8.67C31.3017 7.93333 30.2183 7.565 29.135 7.565C23.2417 7.565 18.6917 9.55833 15.485 13.545C12.2783 17.5317 10.675 23.165 10.675 30.445C10.675 34.345 11.4767 38.0067 13.08 41.43C14.7267 44.8533 16.98 47.5833 19.84 49.62C22.7 51.6567 25.885 52.675 29.395 52.675C30.4783 52.675 31.6483 52.22 32.905 51.31C34.205 50.4 35.7 49.1433 37.39 47.54C38.82 46.1967 39.86 45.2867 40.51 44.81L41.42 51.765C36.09 53.2817 31.1067 54.04 26.47 54.04ZM64.0877 54.105C60.0144 54.105 56.4611 53.3467 53.4277 51.83C50.3944 50.27 48.0544 48.0167 46.4077 45.07C44.7611 42.1233 43.9377 38.5917 43.9377 34.475C43.9377 30.2717 44.7611 26.675 46.4077 23.685C48.0544 20.6517 50.3944 18.355 53.4277 16.795C56.4611 15.1917 60.0144 14.39 64.0877 14.39C68.1177 14.39 71.6277 15.1917 74.6177 16.795C77.6511 18.355 79.9911 20.6517 81.6377 23.685C83.2844 26.675 84.1077 30.2717 84.1077 34.475C84.1077 38.5917 83.2844 42.1233 81.6377 45.07C79.9911 48.0167 77.6511 50.27 74.6177 51.83C71.6277 53.3467 68.1177 54.105 64.0877 54.105ZM64.0877 52.935C66.1677 52.935 67.9877 52.0467 69.5477 50.27C71.1077 48.45 72.2994 46.1317 73.1227 43.315C73.9461 40.455 74.3577 37.5083 74.3577 34.475C74.3577 31.615 73.9461 28.7117 73.1227 25.765C72.2994 22.8183 71.1077 20.37 69.5477 18.42C67.9877 16.47 66.1677 15.495 64.0877 15.495C61.9211 15.495 60.0577 16.47 58.4977 18.42C56.9377 20.3267 55.7461 22.7533 54.9227 25.7C54.1427 28.6467 53.7527 31.5717 53.7527 34.475C53.7527 37.5517 54.1427 40.4983 54.9227 43.315C55.7461 46.1317 56.9377 48.45 58.4977 50.27C60.0577 52.0467 61.9211 52.935 64.0877 52.935ZM117.114 14.325C118.76 14.325 120.32 14.6933 121.794 15.43C123.31 16.1233 124.545 17.25 125.499 18.81C126.452 20.3267 126.929 22.2333 126.929 24.53V53H116.529V25.115C116.529 22.6017 116.117 20.7383 115.294 19.525C114.514 18.2683 113.43 17.64 112.044 17.64C110.224 17.64 108.144 18.615 105.804 20.565C103.464 22.4717 101.362 24.9417 99.4985 27.975V53H89.0985V15.495H99.4985V26.09C102.099 22.1467 104.937 19.2 108.014 17.25C111.09 15.3 114.124 14.325 117.114 14.325ZM149.85 54.235C147.207 54.235 144.672 53.65 142.245 52.48C139.818 51.31 137.868 49.6633 136.395 47.54C134.922 45.3733 134.185 42.9033 134.185 40.13V16.535H130.285V15.43H136.07C138.28 14.0867 140.057 12.0067 141.4 9.19C142.743 6.33 143.415 3.55667 143.415 0.869997H144.585V15.43H154.01V16.535H144.585V46.63C144.585 48.7533 144.953 50.3783 145.69 51.505C146.427 52.5883 147.402 53.13 148.615 53.13C150.348 53.13 152.19 52.155 154.14 50.205C156.133 48.2117 157.953 45.5467 159.6 42.21L161.875 48.45C160.402 50.3567 158.603 51.8083 156.48 52.805C154.357 53.7583 152.147 54.235 149.85 54.235ZM175.837 53.975C173.064 53.975 170.724 53.4767 168.817 52.48C166.91 51.44 165.48 50.0967 164.527 48.45C163.574 46.8033 163.097 45.005 163.097 43.055C163.097 39.3717 164.332 36.2733 166.802 33.76C169.272 31.2033 172.284 29.145 175.837 27.585C179.434 26.025 183.832 24.4867 189.032 22.97C189.032 20.4567 188.555 18.55 187.602 17.25C186.649 15.95 185.284 15.3 183.507 15.3C181.08 15.3 178.589 16.1883 176.032 17.965C173.519 19.7417 171.244 22.1683 169.207 25.245L167.257 17.77C170.03 16.6433 172.89 15.7767 175.837 15.17C178.827 14.52 181.665 14.195 184.352 14.195C188.859 14.195 192.499 15.1483 195.272 17.055C198.045 18.9183 199.432 21.8433 199.432 25.83V53H189.032V46.955C187.342 48.9483 185.305 50.6167 182.922 51.96C180.582 53.3033 178.22 53.975 175.837 53.975ZM180.712 50.335C182.012 50.335 183.377 49.9233 184.807 49.1C186.28 48.2767 187.689 47.1933 189.032 45.85V24.075C183.572 25.7217 179.607 27.8667 177.137 30.51C174.71 33.11 173.497 36.5333 173.497 40.78C173.497 43.64 174.169 45.9583 175.512 47.735C176.899 49.4683 178.632 50.335 180.712 50.335ZM227.158 54.04C222.998 54.04 219.185 53.2167 215.718 51.57C212.251 49.88 209.478 47.4533 207.398 44.29C205.361 41.1267 204.343 37.4433 204.343 33.24C204.343 29.8167 205.036 26.675 206.423 23.815C207.81 20.955 210.106 18.6367 213.313 16.86C216.563 15.0833 220.788 14.195 225.988 14.195C228.328 14.195 230.82 14.4333 233.463 14.91C236.106 15.3867 238.511 16.0583 240.678 16.925L239.118 23.425C237.255 20.955 235.11 19.0483 232.683 17.705C230.256 16.3183 228.003 15.625 225.923 15.625C223.583 15.625 221.546 16.4483 219.813 18.095C218.123 19.7417 216.823 21.9517 215.913 24.725C215.046 27.455 214.613 30.4883 214.613 33.825C214.613 37.2917 215.068 40.455 215.978 43.315C216.931 46.175 218.275 48.45 220.008 50.14C221.785 51.7867 223.843 52.61 226.183 52.61C228.22 52.61 230.43 51.83 232.813 50.27C235.196 48.71 237.601 46.3917 240.028 43.315L241.978 49.815C237.428 52.6317 232.488 54.04 227.158 54.04ZM262.14 54.235C259.497 54.235 256.962 53.65 254.535 52.48C252.109 51.31 250.159 49.6633 248.685 47.54C247.212 45.3733 246.475 42.9033 246.475 40.13V16.535H242.575V15.43H248.36C250.57 14.0867 252.347 12.0067 253.69 9.19C255.034 6.33 255.705 3.55667 255.705 0.869997H256.875V15.43H266.3V16.535H256.875V46.63C256.875 48.7533 257.244 50.3783 257.98 51.505C258.717 52.5883 259.692 53.13 260.905 53.13C262.639 53.13 264.48 52.155 266.43 50.205C268.424 48.2117 270.244 45.5467 271.89 42.21L274.165 48.45C272.692 50.3567 270.894 51.8083 268.77 52.805C266.647 53.7583 264.437 54.235 262.14 54.235ZM311.217 53.975C307.317 53.975 303.851 53.2817 300.817 51.895C297.827 50.5083 295.466 48.4283 293.732 45.655C291.999 42.8383 291.132 39.4367 291.132 35.45V7.37H301.597V41.755C301.597 45.135 302.464 47.8217 304.197 49.815C305.974 51.8083 308.314 52.805 311.217 52.805C314.077 52.805 316.352 51.8083 318.042 49.815C319.776 47.8217 320.642 45.135 320.642 41.755V7.37H331.042V35.45C331.042 39.4367 330.197 42.8383 328.507 45.655C326.817 48.4283 324.477 50.5083 321.487 51.895C318.541 53.2817 315.117 53.975 311.217 53.975ZM353.013 54.105C348.116 54.105 342.829 53.26 337.153 51.57L338.778 45.07C342.158 47.7567 345.343 49.6417 348.333 50.725C351.323 51.765 353.988 52.285 356.328 52.285C358.278 52.285 359.838 51.9383 361.008 51.245C362.178 50.5517 362.806 49.6633 362.893 48.58C362.893 46.63 361.831 44.7883 359.708 43.055C357.628 41.3217 354.486 39.22 350.283 36.75C347.293 34.9733 344.866 33.4567 343.003 32.2C341.183 30.9 339.644 29.4917 338.388 27.975C337.131 26.4583 336.503 24.8983 336.503 23.295C336.503 20.3917 338.409 18.2033 342.223 16.73C346.036 15.2133 350.694 14.455 356.198 14.455C360.834 14.455 365.189 14.9317 369.263 15.885L368.223 22.385C365.883 20.6517 363.001 19.1567 359.578 17.9C356.154 16.6433 353.208 16.015 350.738 16.015C348.874 16.015 347.379 16.34 346.253 16.99C345.169 17.64 344.628 18.5933 344.628 19.85C344.628 20.89 345.386 21.9733 346.903 23.1C348.463 24.2267 350.933 25.765 354.313 27.715C357.779 29.7083 360.553 31.42 362.633 32.85C364.756 34.28 366.576 35.905 368.093 37.725C369.653 39.545 370.433 41.4733 370.433 43.51C370.389 47.15 368.678 49.8367 365.298 51.57C361.961 53.26 357.866 54.105 353.013 54.105Z" fill="white"/>
</svg>
