<svg width="163" height="23" viewBox="0 0 163 23" fill="none" xmlns="http://www.w3.org/2000/svg">
<path d="M0.44 11.5C0.44 9.44 0.89 7.6 1.79 5.98C2.69 4.34 3.92 3.07 5.48 2.17C7.04 1.25 8.78 0.789999 10.7 0.789999C13.04 0.789999 15.04 1.35 16.7 2.47C18.38 3.57 19.6 5.13 20.36 7.15H17.9C17.3 5.73 16.38 4.62 15.14 3.82C13.92 3.02 12.44 2.62 10.7 2.62C9.16 2.62 7.77 2.98 6.53 3.7C5.31 4.42 4.35 5.46 3.65 6.82C2.95 8.16 2.6 9.72 2.6 11.5C2.6 13.28 2.95 14.84 3.65 16.18C4.35 17.52 5.31 18.55 6.53 19.27C7.77 19.99 9.16 20.35 10.7 20.35C12.44 20.35 13.92 19.96 15.14 19.18C16.38 18.38 17.3 17.28 17.9 15.88H20.36C19.6 17.88 18.38 19.43 16.7 20.53C15.02 21.63 13.02 22.18 10.7 22.18C8.78 22.18 7.04 21.73 5.48 20.83C3.92 19.91 2.69 18.64 1.79 17.02C0.89 15.4 0.44 13.56 0.44 11.5ZM31.7145 22.24C30.1745 22.24 28.7845 21.9 27.5445 21.22C26.3245 20.52 25.3545 19.54 24.6345 18.28C23.9345 17 23.5845 15.51 23.5845 13.81C23.5845 12.11 23.9445 10.63 24.6645 9.37C25.3845 8.09 26.3645 7.11 27.6045 6.43C28.8445 5.73 30.2345 5.38 31.7745 5.38C33.3145 5.38 34.7045 5.73 35.9445 6.43C37.2045 7.11 38.1845 8.09 38.8845 9.37C39.6045 10.63 39.9645 12.11 39.9645 13.81C39.9645 15.49 39.6045 16.97 38.8845 18.25C38.1645 19.53 37.1745 20.52 35.9145 21.22C34.6545 21.9 33.2545 22.24 31.7145 22.24ZM31.7145 20.41C32.7945 20.41 33.7945 20.17 34.7145 19.69C35.6345 19.19 36.3745 18.45 36.9345 17.47C37.5145 16.47 37.8045 15.25 37.8045 13.81C37.8045 12.37 37.5245 11.16 36.9645 10.18C36.4045 9.18 35.6645 8.44 34.7445 7.96C33.8245 7.46 32.8245 7.21 31.7445 7.21C30.6645 7.21 29.6645 7.46 28.7445 7.96C27.8245 8.44 27.0845 9.18 26.5245 10.18C25.9845 11.16 25.7145 12.37 25.7145 13.81C25.7145 15.25 25.9845 16.47 26.5245 17.47C27.0845 18.45 27.8145 19.19 28.7145 19.69C29.6345 20.17 30.6345 20.41 31.7145 20.41ZM51.4726 5.32C53.4326 5.32 55.0326 5.93 56.2726 7.15C57.5126 8.35 58.1326 10.1 58.1326 12.4V22H56.0626V12.64C56.0626 10.86 55.6126 9.5 54.7126 8.56C53.8326 7.62 52.6226 7.15 51.0826 7.15C49.5026 7.15 48.2426 7.65 47.3026 8.65C46.3626 9.65 45.8926 11.12 45.8926 13.06V22H43.7926V5.62H45.8926V8.41C46.4126 7.41 47.1626 6.65 48.1426 6.13C49.1226 5.59 50.2326 5.32 51.4726 5.32ZM65.507 7.39V17.56C65.507 18.56 65.697 19.25 66.077 19.63C66.457 20.01 67.127 20.2 68.087 20.2H70.007V22H67.757C66.277 22 65.177 21.66 64.457 20.98C63.737 20.28 63.377 19.14 63.377 17.56V7.39H61.097V5.62H63.377V1.51H65.507V5.62H70.007V7.39H65.507ZM72.5103 13.78C72.5103 12.1 72.8403 10.63 73.5003 9.37C74.1803 8.09 75.1103 7.11 76.2903 6.43C77.4903 5.73 78.8403 5.38 80.3403 5.38C81.9003 5.38 83.2403 5.74 84.3603 6.46C85.5003 7.18 86.3203 8.1 86.8203 9.22V5.62H88.9203V22H86.8203V18.37C86.3003 19.49 85.4703 20.42 84.3303 21.16C83.2103 21.88 81.8703 22.24 80.3103 22.24C78.8303 22.24 77.4903 21.89 76.2903 21.19C75.1103 20.49 74.1803 19.5 73.5003 18.22C72.8403 16.94 72.5103 15.46 72.5103 13.78ZM86.8203 13.81C86.8203 12.49 86.5503 11.33 86.0103 10.33C85.4703 9.33 84.7303 8.56 83.7903 8.02C82.8703 7.48 81.8503 7.21 80.7303 7.21C79.5703 7.21 78.5303 7.47 77.6103 7.99C76.6903 8.51 75.9603 9.27 75.4203 10.27C74.9003 11.25 74.6403 12.42 74.6403 13.78C74.6403 15.12 74.9003 16.3 75.4203 17.32C75.9603 18.32 76.6903 19.09 77.6103 19.63C78.5303 20.15 79.5703 20.41 80.7303 20.41C81.8503 20.41 82.8703 20.14 83.7903 19.6C84.7303 19.06 85.4703 18.29 86.0103 17.29C86.5503 16.29 86.8203 15.13 86.8203 13.81ZM92.7545 13.81C92.7545 12.11 93.0945 10.63 93.7745 9.37C94.4545 8.09 95.3945 7.11 96.5945 6.43C97.7945 5.73 99.1645 5.38 100.704 5.38C102.724 5.38 104.384 5.88 105.684 6.88C107.004 7.88 107.854 9.24 108.234 10.96H105.984C105.704 9.78 105.094 8.86 104.154 8.2C103.234 7.52 102.084 7.18 100.704 7.18C99.6045 7.18 98.6145 7.43 97.7345 7.93C96.8545 8.43 96.1545 9.18 95.6345 10.18C95.1345 11.16 94.8845 12.37 94.8845 13.81C94.8845 15.25 95.1345 16.47 95.6345 17.47C96.1545 18.47 96.8545 19.22 97.7345 19.72C98.6145 20.22 99.6045 20.47 100.704 20.47C102.084 20.47 103.234 20.14 104.154 19.48C105.094 18.8 105.704 17.86 105.984 16.66H108.234C107.854 18.34 107.004 19.69 105.684 20.71C104.364 21.73 102.704 22.24 100.704 22.24C99.1645 22.24 97.7945 21.9 96.5945 21.22C95.3945 20.52 94.4545 19.54 93.7745 18.28C93.0945 17 92.7545 15.51 92.7545 13.81ZM114.843 7.39V17.56C114.843 18.56 115.033 19.25 115.413 19.63C115.793 20.01 116.463 20.2 117.423 20.2H119.343V22H117.093C115.613 22 114.513 21.66 113.793 20.98C113.073 20.28 112.713 19.14 112.713 17.56V7.39H110.433V5.62H112.713V1.51H114.843V5.62H119.343V7.39H114.843ZM133.049 1.03V14.23C133.049 16.31 133.539 17.85 134.519 18.85C135.519 19.85 136.879 20.35 138.599 20.35C140.319 20.35 141.659 19.86 142.619 18.88C143.599 17.88 144.089 16.33 144.089 14.23V1.03H146.189V14.2C146.189 16.86 145.479 18.86 144.059 20.2C142.659 21.54 140.829 22.21 138.569 22.21C136.309 22.21 134.469 21.54 133.049 20.2C131.649 18.86 130.949 16.86 130.949 14.2V1.03H133.049ZM156.513 22.24C154.633 22.24 153.093 21.81 151.893 20.95C150.713 20.07 150.053 18.88 149.913 17.38H152.073C152.173 18.3 152.603 19.05 153.363 19.63C154.143 20.19 155.183 20.47 156.483 20.47C157.623 20.47 158.513 20.2 159.153 19.66C159.813 19.12 160.143 18.45 160.143 17.65C160.143 17.09 159.963 16.63 159.603 16.27C159.243 15.91 158.783 15.63 158.223 15.43C157.683 15.21 156.943 14.98 156.003 14.74C154.783 14.42 153.793 14.1 153.033 13.78C152.273 13.46 151.623 12.99 151.083 12.37C150.563 11.73 150.303 10.88 150.303 9.82C150.303 9.02 150.543 8.28 151.023 7.6C151.503 6.92 152.183 6.38 153.063 5.98C153.943 5.58 154.943 5.38 156.063 5.38C157.823 5.38 159.243 5.83 160.323 6.73C161.403 7.61 161.983 8.83 162.063 10.39H159.963C159.903 9.43 159.523 8.66 158.823 8.08C158.143 7.48 157.203 7.18 156.003 7.18C154.943 7.18 154.083 7.43 153.423 7.93C152.763 8.43 152.433 9.05 152.433 9.79C152.433 10.43 152.623 10.96 153.003 11.38C153.403 11.78 153.893 12.1 154.473 12.34C155.053 12.56 155.833 12.81 156.813 13.09C157.993 13.41 158.933 13.72 159.633 14.02C160.333 14.32 160.933 14.76 161.433 15.34C161.933 15.92 162.193 16.69 162.213 17.65C162.213 18.53 161.973 19.32 161.493 20.02C161.013 20.7 160.343 21.24 159.483 21.64C158.623 22.04 157.633 22.24 156.513 22.24Z" fill="white"/>
</svg>
