<svg width="99" height="99" viewBox="0 0 99 99" fill="none" xmlns="http://www.w3.org/2000/svg">
<path d="M49.5006 3.87891C74.6949 3.87891 95.1196 24.3042 95.1196 49.5C95.1196 74.6942 74.6949 95.1185 49.5006 95.1185C24.3055 95.1185 3.88086 74.6942 3.88086 49.5C3.88086 24.3042 24.3055 3.87891 49.5006 3.87891Z" stroke="black" stroke-width="4" stroke-miterlimit="2.613"/>
<path d="M72.9116 47.002C72.2545 47.002 71.7217 47.5348 71.7217 48.1921C71.7217 48.8494 72.2545 49.3823 72.9116 49.3823C73.5692 49.3823 74.102 48.8494 74.102 48.1921C74.102 47.5348 73.569 47.002 72.9116 47.002ZM72.7002 48.2865C72.5142 48.2865 72.3653 48.1376 72.3653 47.9525C72.3653 47.7674 72.5142 47.6185 72.7002 47.6185C72.8847 47.6185 73.0332 47.7674 73.0332 47.9525C73.0332 48.1376 72.8847 48.2865 72.7002 48.2865Z" fill="black"/>
<path d="M26.0708 47.0312C25.4137 47.0312 24.8809 47.5641 24.8809 48.2214C24.8809 48.8787 25.4137 49.4116 26.0708 49.4116C26.7283 49.4116 27.2612 48.8787 27.2612 48.2214C27.2612 47.5641 26.7283 47.0312 26.0708 47.0312ZM26.2999 48.2854C26.116 48.2854 25.9658 48.1365 25.9658 47.9514C25.9658 47.7662 26.1162 47.6173 26.2999 47.6173C26.4852 47.6173 26.6345 47.7662 26.6345 47.9514C26.6345 48.1365 26.485 48.2854 26.2999 48.2854Z" fill="black"/>
<path d="M49.5011 8.09762H49.4986C38.0681 8.09762 27.7181 12.7338 20.2254 20.2262C12.7334 27.7196 8.09591 38.0693 8.09591 49.4998H8.0984V49.5023H8.09591C8.09591 60.9319 12.7338 71.2818 20.2254 78.7744C27.7181 86.2687 38.0676 90.9022 49.4986 90.9022V90.9013H49.5011V90.9022C60.9317 90.9022 71.2808 86.2685 78.7745 78.7744C86.2689 71.2818 90.903 60.9321 90.9038 49.5008H90.903V49.5H90.9038C90.903 38.0695 86.2684 27.7205 78.7745 20.2264C71.2823 12.7336 60.9319 8.09762 49.5011 8.09762ZM49.5003 7.54904H49.5011V7.55069C61.0824 7.55069 71.5712 12.2467 79.1628 19.8379C86.7539 27.4299 91.4501 37.9156 91.4501 49.4998H91.4526V49.5006H91.4501C91.4501 61.0825 86.7539 71.5715 79.1628 79.1625C71.5716 86.7537 61.0849 91.4497 49.5011 91.4497V91.4522H49.4986V91.4497C37.9175 91.4497 27.4286 86.7537 19.8371 79.1625C12.2442 71.5715 7.5498 61.0823 7.5498 49.5021V49.4996C7.5498 37.9169 12.2442 27.4297 19.8396 19.8377C27.4309 12.2465 37.9175 7.55048 49.4986 7.55048V7.54883L49.5003 7.54904Z" fill="black"/>
<path d="M25.9238 20.5117C24.9321 21.319 23.9823 22.1765 23.0796 23.0793C17.7577 28.403 14.03 35.3228 12.6855 43.0589" stroke="black" stroke-miterlimit="2.613"/>
<path d="M47.0001 12.1875C41.4271 12.664 34.9747 14.5517 30.1426 17.5373" stroke="black" stroke-miterlimit="2.613"/>
<path d="M57.16 12.9212C55.6936 12.6153 54.1959 12.3958 52.6719 12.2676" stroke="black" stroke-miterlimit="2.613"/>
<path d="M86.693 46.5959C85.9868 37.4368 81.9816 29.2026 75.858 23.0795C72.2338 19.4554 67.8687 16.5722 63.0117 14.6777" stroke="black" stroke-miterlimit="2.613"/>
<path d="M49.5003 7.54904H49.5011V7.55069C61.0824 7.55069 71.5712 12.2467 79.1628 19.8379C86.7539 27.4299 91.4501 37.9156 91.4501 49.4998H91.4526V49.5006H91.4501C91.4501 61.0825 86.7539 71.5715 79.1628 79.1625C71.5716 86.7537 61.0849 91.4497 49.5011 91.4497V91.4522H49.4986V91.4497C37.9175 91.4497 27.4286 86.7537 19.8371 79.1625C12.2442 71.5715 7.5498 61.0823 7.5498 49.5021V49.4996C7.5498 37.9169 12.2442 27.4297 19.8396 19.8377C27.4309 12.2465 37.9175 7.55048 49.4986 7.55048V7.54883L49.5003 7.54904Z" stroke="black" stroke-width="0.5" stroke-miterlimit="2.613"/>
<path d="M26.5812 74.2188L27.9797 76.1453L30.2437 75.4095L28.8449 77.3361L30.2437 79.261L27.9797 78.524L26.5812 80.4514V78.0703L24.3164 77.3361L26.5812 76.5991V74.2188Z" fill="black"/>
<path d="M72.0269 74.6113L70.6282 76.5379L68.3643 75.8017L69.7628 77.7283L68.3643 79.6532L70.6282 78.9182L72.0269 80.8436V78.4645L74.2915 77.7283L72.0269 76.9916V74.6113Z" fill="black"/>
<path d="M49.8806 25.1895H49.1201V47.6557H49.8806V25.1895Z" fill="black"/>
<path d="M44.5361 24.0738C44.7059 24.5024 44.8072 25.0574 44.8072 25.6626C44.8072 26.0589 44.7643 26.4327 44.6858 26.7643C46.0821 26.4342 47.4816 26.3081 48.8803 26.4634L47.6574 23.8012C47.0726 23.8012 46.5077 23.8271 45.9659 23.8781C45.4753 23.924 44.9979 23.9897 44.5361 24.0738ZM43.4884 27.0961C43.4495 26.6674 43.3126 26.1875 43.0751 25.7185C42.8591 25.2921 42.5894 24.9297 42.3026 24.6524C40.5877 25.2389 39.1873 26.0753 38.0855 26.9774V26.9782L37.884 27.1464L37.6914 27.3162C37.3622 27.609 37.0658 27.9052 36.8016 28.1947L36.7916 28.2069L36.7891 28.2086V28.2102L36.7866 28.2111L36.7842 28.2152C35.1506 29.7659 33.1217 30.7059 31.28 31.561C30.0998 32.1071 28.9993 32.6176 28.1494 33.2233C29.1784 32.835 30.1685 32.6482 31.187 32.4573C33.1488 32.0893 35.2067 31.7024 37.7768 29.7456L37.8124 29.7245C39.7042 28.6362 41.5948 27.6962 43.4884 27.0961ZM42.8129 24.4879C43.0583 24.7646 43.2942 25.1109 43.4932 25.5056C43.7496 26.0111 43.9049 26.516 43.9592 26.9544L44.1476 26.9026C44.269 26.5369 44.3369 26.1138 44.3369 25.6626C44.3369 25.102 44.2309 24.5834 44.053 24.1684C43.6237 24.2606 43.2109 24.3674 42.8129 24.4879ZM47.7452 23.3361H47.8068L48.0186 23.4719L49.4699 26.6365L49.4975 26.7838C49.4797 26.9107 49.36 26.9998 49.2338 26.9811C47.3797 26.6989 45.5223 26.9463 43.6628 27.5295C41.7942 28.1177 39.9227 29.0454 38.0516 30.1229C35.3968 32.1396 33.2851 32.5376 31.2719 32.9139C29.8587 33.18 28.494 33.4358 27.0298 34.2608V34.2592L26.7745 34.2406L26.7324 33.9138C27.643 32.7335 29.2739 31.977 31.086 31.1366C32.8964 30.2977 34.8921 29.3739 36.4671 27.8725L36.4696 27.8708C36.7463 27.5674 37.0497 27.2624 37.382 26.9673L37.5811 26.7933L37.7898 26.6185C39.3519 25.3395 41.4891 24.1908 44.2429 23.656C44.7768 23.5508 45.3374 23.4701 45.9247 23.415C46.5066 23.3611 47.1142 23.3336 47.7452 23.3361Z" fill="black"/>
<path d="M37.6289 27.0593C37.644 27.3699 37.6941 27.7056 37.7815 28.0485C37.9441 28.6779 38.2038 29.2223 38.4999 29.6017C38.6424 29.5216 38.7847 29.4423 38.927 29.3654C38.6325 29.0022 38.3833 28.5056 38.2353 27.9311C38.1212 27.4838 38.0845 27.0462 38.1139 26.6562L37.9369 26.7987L37.6289 27.0593Z" fill="black"/>
<path d="M36.6416 28.0266C36.6977 28.2482 36.771 28.4756 36.8648 28.706C37.0931 29.2708 37.3971 29.7479 37.7166 30.0828L37.9194 29.93L38.1281 29.8111C37.8046 29.494 37.5104 29.0531 37.2989 28.5296C37.173 28.2165 37.0864 27.905 37.0409 27.6074C36.9013 27.7482 36.7694 27.8874 36.6416 28.0266Z" fill="black"/>
<path d="M30.9552 32.5684L49.4602 40.2291L49.3082 40.598L30.8047 32.9355L30.9552 32.5684Z" fill="black"/>
<path d="M30.5257 31.7539L30.88 32.7521L27.5576 33.5854L27.9994 32.9544L30.5257 31.7539Z" fill="black"/>
<path d="M54.4638 24.0738C54.2956 24.5024 54.1941 25.0574 54.1941 25.6626C54.1941 26.0589 54.237 26.4327 54.3147 26.7643C52.9176 26.4342 51.5197 26.3081 50.1194 26.4634L51.3441 23.8012C51.9273 23.8012 52.4912 23.8271 53.034 23.8781C53.5254 23.924 54.0011 23.9897 54.4638 24.0738ZM55.5106 27.0961C55.5496 26.6674 55.6871 26.1875 55.9248 25.7185C56.1408 25.2921 56.4103 24.9297 56.6979 24.6524C58.412 25.2389 59.8151 26.0753 60.9142 26.9774L60.9158 26.9782L61.1167 27.1464L61.3093 27.3162C61.6394 27.609 61.936 27.9052 62.1983 28.1947L62.2089 28.2069L62.2122 28.2086V28.2102L62.2139 28.2111L62.2174 28.2152C63.8491 29.7659 65.8788 30.7059 67.7197 31.561C68.9007 32.1071 69.9996 32.6176 70.852 33.2233C69.8229 32.835 68.8312 32.6482 67.8143 32.4573C65.8513 32.0893 63.793 31.7024 61.2231 29.7456L61.1883 29.7245C59.2965 28.6362 57.4051 27.6962 55.5106 27.0961ZM56.1893 24.4879C55.9418 24.7646 55.7064 25.1109 55.5055 25.5056C55.2514 26.0111 55.0948 26.516 55.0395 26.9544L54.8521 26.9026C54.7305 26.5369 54.6628 26.1138 54.6628 25.6626C54.6628 25.102 54.768 24.5834 54.9476 24.1684C55.3779 24.2606 55.7913 24.3674 56.1893 24.4879ZM51.2538 23.3361H51.194L50.9834 23.4719L49.5296 26.6365L49.501 26.7838C49.5207 26.9107 49.6404 26.9998 49.7663 26.9811C51.6204 26.6989 53.4778 26.9463 55.3367 27.5295C57.2051 28.1177 59.0766 29.0454 60.9477 30.1229C63.6043 32.1396 65.7142 32.5376 67.7265 32.9139C69.1422 33.18 70.5072 33.4358 71.9686 34.2608V34.2592L72.225 34.2406L72.2679 33.9138C71.3563 32.7335 69.7254 31.977 67.9141 31.1366C66.1037 30.2977 64.1096 29.3739 62.5322 27.8725L62.5297 27.8708C62.253 27.5674 61.9496 27.2624 61.6191 26.9673L61.4184 26.7933L61.2095 26.6185C59.6482 25.3395 57.5095 24.1908 54.7566 23.656C54.2236 23.5508 53.6638 23.4701 53.0748 23.415C52.4933 23.3611 51.8848 23.3336 51.2538 23.3361Z" fill="black"/>
<path d="M61.3713 27.0593C61.3552 27.3699 61.3059 27.7056 61.2193 28.0485C61.0578 28.6779 60.7962 29.2223 60.5009 29.6017C60.3584 29.5216 60.2145 29.4423 60.0732 29.3654C60.3686 29.0022 60.6177 28.5056 60.7649 27.9311C60.879 27.4838 60.9167 27.0462 60.8863 26.6562L61.0632 26.7987L61.3713 27.0593Z" fill="black"/>
<path d="M62.3592 28.0266C62.3049 28.2482 62.2289 28.4756 62.1386 28.706C61.9081 29.2708 61.6031 29.7479 61.2843 30.0828L61.0818 29.93L60.873 29.8111C61.1953 29.494 61.4902 29.0531 61.7031 28.5296C61.8292 28.2165 61.9137 27.905 61.9603 27.6074C62.0995 27.7482 62.2322 27.8874 62.3592 28.0266Z" fill="black"/>
<path d="M68.0451 32.5684L49.541 40.2291L49.693 40.598L68.1973 32.9355L68.0451 32.5684Z" fill="black"/>
<path d="M68.4745 31.7539L68.1201 32.7521L71.4425 33.5854L71.0008 32.9544L68.4745 31.7539Z" fill="black"/>
<path d="M47.1611 23.5959L49.2312 20.1352C49.3203 19.9888 49.5114 19.9403 49.6599 20.0283L49.7716 20.1441L51.8377 23.5959V23.9155L49.7668 27.3762C49.6777 27.5226 49.4864 27.5711 49.3404 27.483L49.2312 27.3762L47.1611 23.9155V23.5959Z" fill="black"/>
<path d="M49.5007 20.9023L47.793 23.7563L49.5007 26.6102L51.2092 23.7563L49.5007 20.9023Z" fill="black"/>
<path d="M52.4049 78.7937C54.6562 68.7174 49.1108 66.8308 51.9623 55.5662C52.0097 55.3769 52.0534 55.1879 52.0907 54.9959C52.1311 54.805 52.1638 54.6124 52.1943 54.4183C52.2767 53.8701 52.3026 53.3553 52.3106 52.8678C52.3463 50.7484 52.3786 49.0828 54.1194 47.6362C54.721 47.1363 55.3912 46.6979 56.116 46.3055C62.1404 43.0396 71.8856 42.9992 76.5997 37.995C75.8908 36.3261 75.0312 34.7377 74.0377 33.2433C70.2413 40.1695 55.65 36.903 49.4177 44.7759C43.0452 36.3619 28.9574 39.9109 24.969 33.2305C23.9808 34.7174 23.1257 36.2979 22.417 37.958C30.5705 45.0687 38.3568 41.2481 44.5235 47.8272C46.5791 49.7461 47.0111 52.2126 46.6176 54.9961C46.1848 58.0766 45.7681 60.6288 45.8097 63.5082C45.8356 65.3106 45.881 66.876 46.5694 68.5068C47.704 71.1936 48.0037 75.4989 46.3062 78.7652C47.3553 78.8784 48.4208 78.9366 49.5 78.9366V78.935H49.5008V78.9366C50.482 78.936 51.4487 78.8876 52.4049 78.7937Z" fill="black"/>
<path d="M49.5 20.0656V20.0665H49.4983V20.0656C41.3732 20.0656 34.0147 23.3621 28.6878 28.6892C23.3595 34.0171 20.065 41.3744 20.065 49.5003V49.502C20.065 57.6269 23.3591 64.9867 28.687 70.3121C34.0151 75.6394 41.3732 78.9367 49.4983 78.9367V78.935H49.5008V78.9367C57.6259 78.9367 64.9846 75.6394 70.3113 70.3121C75.6392 64.9867 78.9349 57.6269 78.9349 49.502H78.9341V49.5003H78.9349C78.9349 41.3744 75.6392 34.0168 70.3129 28.6892C64.9844 23.3621 57.6261 20.0656 49.5 20.0656ZM49.5 19.5332V19.5349C57.774 19.5349 65.2667 22.8904 70.6882 28.3121C76.1116 33.7346 79.4671 41.2262 79.4671 49.5001V49.5018C79.4671 57.7749 76.1116 65.2667 70.6882 70.6898C65.2663 76.1126 57.774 79.4664 49.5004 79.4664V79.4689H49.4979V79.4664C41.2247 79.4664 33.7328 76.1126 28.3097 70.6898C22.8869 65.2665 19.5332 57.7751 19.5332 49.5018V49.5001C19.5332 41.2262 22.8869 33.7344 28.3097 28.3121C33.733 22.8904 41.2245 19.5349 49.4979 19.5349V19.5332H49.5Z" fill="black" stroke="black"/>
<path d="M14.921 36.7377C15.3902 36.4571 15.9718 36.3225 16.3748 36.4422C16.8666 36.587 17.2112 37.0254 17.4102 37.7568C18.0787 37.2043 18.6835 37.0078 19.2223 37.167C19.6259 37.2859 19.9248 37.5926 20.1205 38.0867C20.3147 38.5794 20.3096 39.174 20.1043 39.8682C19.9277 40.4499 19.6286 40.9579 19.208 41.3938C18.7858 41.8291 17.4709 42.5102 15.2635 43.4355L15.2053 42.6832C16.587 42.0304 17.4834 41.5636 17.8959 41.2811C18.3066 40.9989 18.5832 40.6203 18.7243 40.1463C18.857 39.6981 18.8698 39.3098 18.7644 38.9789C18.6592 38.648 18.4853 38.4467 18.2426 38.3746C17.9972 38.3025 17.7377 38.3504 17.466 38.5185C17.4005 38.9133 17.3179 39.2781 17.2185 39.6147C17.1456 39.8607 17.0186 40.2318 16.8358 40.7286L15.4816 40.6137C15.6352 40.2198 15.762 39.8485 15.8651 39.4989C16.2437 38.2224 16.1418 37.4984 15.5634 37.3269C15.3215 37.2557 14.7172 37.6663 14.4287 37.9818L14.921 36.7377Z" fill="black"/>
<path d="M19.4576 27.8965L24.794 31.1273L24.6225 31.4079L22.897 31.9379L20.737 30.6169L19.7274 32.2672C19.2428 33.0599 19.3043 33.6425 19.9094 34.013C20.406 34.3164 21.3527 34.1942 22.7489 33.6464L22.8411 34.3195C20.9627 35.0824 19.5874 35.1955 18.7126 34.6608C18.2914 34.3977 18.0307 34.05 17.929 33.6189C17.8288 33.1869 17.895 32.7799 18.1297 32.3981L19.6311 29.9405L18.6538 29.3745L19.4576 27.8965Z" fill="black"/>
<path d="M23.9957 22.7363C24.3028 22.8844 24.8398 23.2334 25.1039 23.4947C25.8158 24.2042 26.0099 25.1183 25.6839 26.2379C26.6185 26.1326 27.9255 25.8576 29.6034 25.4128L29.5322 26.0939C25.774 27.0517 23.6171 27.2555 23.0652 26.7055C22.709 26.3511 22.7546 25.9514 23.1992 25.5049C23.4171 25.2865 23.7687 25.0696 24.2564 24.8561C24.1982 24.5148 24.0858 24.2616 23.9207 24.0973C23.7905 23.9679 23.3711 23.8453 23.1139 23.7734L23.9957 22.7363Z" fill="black"/>
<path d="M36.5437 14.5703L39.2109 20.4919L38.91 20.6269L37.1845 20.1044L36.6133 18.8312C36.3374 19.1427 36.0115 19.3846 35.6313 19.5552C35.0665 19.8085 34.4009 19.882 33.6338 19.7737C32.8668 19.6654 32.3954 19.4194 32.2163 19.0336L31.4736 17.381L36.5437 14.5703ZM36.0065 17.4818L35.1696 15.5296L33.0215 16.6866L33.9356 18.7202C34.1246 19.1425 34.4239 19.2605 34.8335 19.0771C34.9396 19.0294 35.0557 18.9396 35.1814 18.8076C35.3059 18.6768 35.5809 18.235 36.0065 17.4818Z" fill="black"/>
<path d="M44.296 12.7812L45.2057 15.2011L42.6661 15.6897C42.202 15.7787 41.8235 15.9404 41.529 16.1743C41.2326 16.4089 41.11 16.6516 41.1585 16.9024C41.2378 17.3158 41.5942 17.4605 42.2261 17.3392C42.4332 17.2996 42.6581 17.2323 42.9026 17.1393C42.8571 16.9105 42.9399 16.7017 43.1487 16.5133C43.3593 16.3256 43.6575 16.1937 44.0483 16.1194C44.502 16.032 44.8858 16.0548 45.1989 16.1865C45.512 16.3192 45.6941 16.5116 45.7409 16.7624C45.8231 17.1863 45.5889 17.5357 45.0363 17.8093L46.6956 18.5987L45.5388 19.0323L43.9079 18.2477C42.7842 18.4645 41.8765 18.3618 41.1834 17.9403C40.4908 17.5181 40.088 17.0132 39.9747 16.4244C39.8938 15.9997 40.0131 15.6195 40.333 15.2838C40.6542 14.9472 41.1477 14.7159 41.8127 14.5873L43.5463 14.2541L43.2858 13.0149L44.296 12.7812Z" fill="black"/>
<path d="M69.8081 18.5892L66.8377 24.0451L66.6468 23.9407L65.9267 22.2007L66.9934 20.2447C66.3811 20.1679 65.8778 20.0223 65.4839 19.808C65.0708 19.5814 64.6684 19.278 64.2803 18.8972C64.0189 19.033 63.6348 19.1496 63.1243 19.2459C63.3459 20.02 63.6824 21.0037 64.1322 22.1986L63.5155 22.2471C62.4059 19.4917 62.0472 17.7517 62.4428 17.0269C62.548 16.832 62.7049 16.709 62.9112 16.6581C63.1158 16.6071 63.3119 16.6322 63.496 16.7324C63.6772 16.8312 63.8868 17.0083 64.1246 17.2646C64.3261 17.0698 64.4716 16.89 64.5613 16.7258C64.6512 16.5607 64.8158 16.1155 64.855 15.8672L69.8081 18.5892ZM68.3302 17.8373L65.9708 16.6964C65.9029 17.0337 65.7697 17.3945 65.6241 17.6631C65.4912 17.905 65.3278 18.1177 65.1304 18.3022C65.3941 18.5894 65.6695 18.8118 65.9571 18.968C66.5517 19.2923 67.1059 19.3352 67.6195 19.0966L68.3302 17.8373Z" fill="black"/>
<path d="M75.097 22.9435C74.9614 23.2558 74.6414 23.8164 74.3888 24.0889C73.7068 24.8283 72.8016 25.0565 71.6706 24.7725C71.8098 25.7028 72.1341 26.998 72.6438 28.658L71.9602 28.6127C70.8601 24.8931 70.5737 22.747 71.1042 22.1733C71.4441 21.8053 71.8452 21.8351 72.3085 22.2624C72.5342 22.4711 72.7639 22.8157 72.9952 23.2945C73.3351 23.2233 73.5842 23.1019 73.7412 22.9296C73.8665 22.7954 74.0234 22.374 74.0858 22.1137L75.097 22.9435Z" fill="black"/>
<path d="M80.971 30.257L79.7264 31.0201C79.9691 31.1802 80.177 31.3939 80.3477 31.6617C80.7206 32.2449 80.8103 32.8742 80.6179 33.5523C80.4245 34.2301 80.0859 34.7236 79.6038 35.0319C79.0974 35.3554 78.4776 35.4923 77.7432 35.4428L77.947 33.8782C78.7601 33.9859 79.353 33.9194 79.7268 33.6809C80.0973 33.4437 80.1652 33.1428 79.9306 32.7773C79.7931 32.5605 79.3221 32.2312 78.5198 31.792L75.6158 33.6469L75.4604 33.405L75.7193 31.5679L76.8138 30.869C76.2507 30.5349 75.873 30.2162 75.6791 29.9136C75.4114 29.4922 75.3362 29.0028 75.455 28.4437C75.5756 27.8848 75.8821 27.4478 76.3781 27.1299C77.0965 26.6712 77.7113 26.841 78.2214 27.6412C78.5376 28.1372 78.6731 28.8264 78.625 29.7113L80.0772 28.8616L80.971 30.257ZM78.0793 30.0598L78.1715 30.0008C78.0696 29.5786 77.9338 29.2356 77.7646 28.9718C77.5709 28.6676 77.3375 28.4265 77.0629 28.247C76.7898 28.0666 76.5487 28.044 76.3381 28.1774C76.2256 28.2503 76.1633 28.3627 76.1523 28.5172C76.1395 28.6725 76.1824 28.827 76.2801 28.9807C76.5195 29.3545 77.1193 29.7144 78.0793 30.0598Z" fill="black"/>
<path d="M84.3696 37.6622L78.4512 39.7731L78.3574 39.5167L78.9984 37.7782L83.7976 36.0879L84.3696 37.6622Z" fill="black"/>
<path d="M85.9435 44.0311C85.6456 44.1962 85.0051 44.4407 84.6392 44.5037C83.6493 44.6735 82.7915 44.3022 82.0666 43.3889C81.6123 44.2117 81.0788 45.4364 80.4714 47.0632L79.958 46.6109C81.3511 42.9909 82.4326 41.1148 83.2011 40.9821C83.6954 40.8972 83.9955 41.1658 84.1028 41.7871C84.1554 42.0913 84.127 42.5038 84.0198 43.0249C84.332 43.1746 84.6027 43.2295 84.8336 43.1899C85.0148 43.1593 85.522 42.8755 85.7291 42.7074L85.9435 44.0311Z" fill="black"/>
<path d="M38.9307 10.3841L40.1637 10.2762C40.4781 10.2489 40.8533 10.3052 41.2903 10.4456C41.7262 10.586 42.1255 10.8072 42.489 11.1081C42.8532 11.4101 43.4505 11.7064 44.3835 13.054L43.6942 13.646C43.1469 12.8777 42.7936 12.4037 42.6343 12.2227C42.4747 12.0415 42.2214 11.8918 41.8764 11.7739C41.5316 11.6563 41.1238 11.6174 40.6508 11.6588L39.4474 11.764L38.9307 10.3841Z" fill="black"/>
<path d="M35.0795 19.3041C35.2219 19.1099 35.5326 18.606 36.0114 17.793L37.0112 18.0493C36.1974 19.4739 34.0908 22.3635 33.7754 22.3635L32.79 21.7074C32.79 21.7074 34.9353 19.4982 35.0795 19.3041Z" fill="black"/>
<path d="M48.5982 11.571C47.9322 11.822 47.676 12.5317 47.6479 12.9554C47.6327 13.2549 47.8276 13.5473 48.2308 13.8329C48.6334 14.1179 49.1257 14.2806 49.7066 14.3206C49.9309 14.3359 50.1622 14.3305 50.4001 14.3034C50.1214 14.7824 49.759 15.1945 49.3156 15.5385C48.919 15.0386 48.5011 14.7733 48.0618 14.7433C47.8003 14.7261 47.5781 14.7934 47.3938 14.9458C47.2103 15.0991 47.1067 15.3086 47.0825 15.5729C47.0659 15.8906 47.192 16.1677 47.4625 16.4052C47.7315 16.6427 48.0956 16.7792 48.5537 16.8146C48.7736 16.8291 49.0074 16.8175 49.2562 16.7794L50.8792 18.8487L51.6949 18.6447L50.0856 16.5435C51.3689 16.0171 52.0497 15.1993 52.1252 14.0909C52.1679 13.479 52.0016 12.7815 51.4849 12.1018C51.4849 12.1018 51.0693 11.5708 50.2887 11.441C49.8886 11.3741 49.328 11.2958 48.5982 11.571ZM50.6685 13.6699C50.5025 13.8395 50.3183 13.9166 50.1206 13.9041C49.9224 13.8859 49.7575 13.8016 49.6258 13.6511C49.4939 13.5003 49.4361 13.3052 49.4523 13.0654C49.4867 12.5645 49.6182 12.2898 50.0901 12.1207C50.2057 12.0792 50.5271 12.1031 50.6333 12.1646C50.9102 12.3255 50.9647 12.6243 50.9427 12.9409C50.9266 13.2578 50.8348 13.5009 50.6685 13.6699Z" fill="black"/>
<path d="M53.7592 12.7041L53.4219 17.8153L54.7179 19.1024L55.0188 19.1227L55.4702 12.4707L53.7592 12.7041Z" fill="black"/>
<path d="M19.8574 29.584L20.4787 29.9464C19.6648 31.371 17.6312 34.8131 17.3205 35.279L16.5957 34.8131C16.5957 34.8131 19.3784 30.3968 19.8574 29.584Z" fill="black"/>
<path d="M77.778 50.471C77.5514 50.2307 77.2985 50.0705 77.0506 50.0268C76.7303 49.9702 76.7294 49.4071 76.6373 49.0913L76.2426 48.0267C76.0212 47.5679 75.7588 47.0858 75.4465 46.7744C75.0468 45.9978 74.4692 45.0998 73.7257 44.4073C70.9155 41.7847 68.4931 40.8575 73.0856 44.4348C73.5847 45.163 74.1615 45.8344 74.6015 46.6207C75.561 47.3892 75.8683 48.7506 76.1564 49.9019C75.9638 50.7079 75.3684 50.7269 74.6792 50.9947C74.1403 51.0715 73.6044 51.1492 73.0467 51.2258C70.9952 51.3018 68.9404 51.0527 66.9067 50.7269C66.639 50.5927 66.3679 50.4778 66.0819 50.3627C65.946 50.1692 65.8133 49.9969 65.6596 49.8255C65.6062 48.9408 65.7356 48.3025 66.0326 47.6464C66.353 46.9411 67.8583 44.2723 68.4353 44.5086C68.5997 44.5757 68.7066 44.6421 68.7486 44.8557C68.6735 45.853 68.6149 47.446 69.2308 48.31C69.344 48.31 69.4412 48.3286 69.5371 48.3489C69.7485 47.7148 69.3631 46.8516 69.3246 46.18C69.344 45.7012 69.3635 45.24 69.3635 44.7796C69.5998 43.2031 69.9889 42.7766 70.5237 42.2225L70.2488 42.2767C69.8346 42.4855 69.5418 42.7135 69.3053 43.1293C69.192 43.2078 69.0322 43.3089 68.8688 43.4271C68.2466 43.8825 67.6254 44.5678 67.0826 45.1178C66.0622 46.1541 65.2527 48.1627 64.701 49.0574C64.4713 49.2878 64.2396 49.5378 64.0101 49.7869C63.5313 50.6509 64.2218 51.015 64.2218 51.915C64.1441 52.0124 64.0673 52.1087 63.971 52.2215C63.5665 52.4027 62.798 52.9099 62.9483 53.3177C63.0759 53.6614 63.441 53.6066 63.7249 53.6308C63.9434 53.6486 64.1793 53.677 64.2783 53.6647C64.1534 53.5604 64.0584 53.3978 64.0033 53.2344C63.878 52.8737 63.9532 52.8177 64.2586 52.6506C64.7472 52.3837 65.2415 52.2648 65.8137 52.1847C65.9465 52.1087 66.0618 52.0318 66.1786 51.9732C66.7344 51.9732 67.1194 52.2426 67.616 52.3955C67.9232 52.3955 68.3471 52.3186 68.5763 52.5483C68.9412 52.2814 69.2308 52.4537 69.4985 52.7214C70.0171 52.6454 70.5713 52.376 71.0911 52.5678C71.8385 52.4926 72.6826 52.7983 73.3934 52.9722C73.7962 53.2011 74.3139 53.2787 74.7548 53.3177C75.0824 53.4512 75.4092 53.5846 75.7341 53.7374C76.2908 53.8151 77.0769 54.2763 76.4633 54.8901C75.6188 54.6787 74.7937 54.1804 73.9685 53.8536C73.2587 53.6813 72.5501 53.4896 71.8571 53.2396H70.6098C69.2711 53.3067 66.7738 52.8701 65.7758 53.1232L65.7756 53.1228C65.1421 53.2004 65.1421 53.2004 64.4508 53.3727L64.2785 53.6618C64.3935 53.9681 64.4898 54.2759 64.5856 54.601V56.6345C64.4125 57.5736 64.2394 58.5349 64.0468 59.4936C63.4918 60.4336 62.7232 61.2199 61.7832 61.7579C61.5146 61.7579 61.246 61.7776 60.9582 61.7969C60.5554 61.6051 60.3441 61.0105 59.8256 61.2023C59.4615 61.6811 59.9606 62.5832 59.5578 62.986C59.2513 62.9471 59.0579 62.87 58.7901 62.6969C58.617 62.3328 58.4438 61.9882 58.2715 61.642C57.3502 61.9688 57.562 63.0442 57.3688 63.8299C57.2742 63.9067 57.1787 63.9827 57.0629 64.0604C57.0824 64.1559 57.101 64.2522 57.1211 64.3663C57.5047 64.6162 57.9452 64.7885 58.0406 65.2677C57.9257 65.5749 57.811 66.0168 57.5229 66.2086C58.157 66.67 58.2525 67.7644 58.1183 68.4731C57.9452 68.5481 57.6571 68.6649 57.5811 68.8372C57.3885 68.8954 57.1961 68.9536 57.0043 69.0095C56.3708 69.5846 56.1024 69.8735 55.8144 70.6598C55.5279 71.044 55.3548 71.7348 55.2206 72.196L55.4698 72.2526C55.5279 72.0212 55.5847 71.7543 55.7384 71.601C55.7957 71.3316 55.8535 71.0817 55.9115 70.8334C56.2952 70.6405 56.5247 70.18 56.7366 69.8157C57.2348 69.4317 57.2348 69.4317 57.4461 69.183C57.7915 69.048 58.1752 69.0294 58.5389 69.0089C59.0194 69.241 58.9612 69.183 58.9612 69.7571C58.7323 69.9116 58.5016 70.0644 58.2711 70.2185C57.8489 70.6405 57.4266 71.062 56.9849 71.5039C56.7171 72.2911 56.3321 73.0401 56.218 73.865C56.2569 74.2663 56.2948 74.6888 56.3321 75.11C56.4292 75.4555 56.6403 75.8777 56.2948 76.1074C55.0086 75.8961 54.6834 74.2483 54.3757 73.2124C54.1123 71.028 54.3873 70.0826 55.7379 68.5294C56.0453 68.2617 56.2565 68.1654 56.3139 67.7644C54.327 67.0701 51.8388 62.5395 55.0471 60.2428C56.1797 59.8769 55.5843 61.6424 55.5275 62.1609C55.5839 62.3722 55.623 62.5832 55.6615 62.7944C55.8135 63.0249 55.9481 63.2558 56.0838 63.5048C56.2944 63.6004 56.5452 63.7725 56.698 63.9448L56.7361 63.7154C56.3317 63.5228 56.1407 62.7188 56.0631 62.2755C55.9676 60.9919 56.4853 59.9359 57.7134 59.5704L57.8874 59.3416C57.2717 58.8878 56.4798 59.0357 55.7346 59.3416C54.712 59.7591 53.9938 60.1911 53.3514 61.0938C52.5764 62.1785 52.5276 63.062 52.7318 63.9964C53.0836 65.5933 53.8352 66.1408 54.5875 67.1312C54.8876 67.2751 55.1943 67.5008 55.3132 67.7961C55.5236 68.3203 55.1094 68.5251 54.7777 68.8202C54.7161 68.9496 54.6368 69.0637 54.5583 69.1778C52.9701 71.4575 53.5432 73.9903 54.7352 75.5459C55.4082 76.4261 56.2569 76.9422 57.311 77.1671C58.9258 77.5117 57.5227 76.5773 57.235 74.7087V73.8836C57.4073 73.4249 57.5231 72.925 57.5813 72.4275C57.9826 71.7928 58.1572 71.3333 58.3295 71.0636C58.6358 70.8719 58.9239 70.6801 59.2122 70.5078C59.7121 70.7959 59.6539 70.969 59.691 71.6209C59.9409 72.2722 60.2864 72.9072 60.7846 73.4054C61.3995 73.8068 61.7441 73.8068 62.4548 73.75L62.6271 73.4611C62.5882 73.347 62.5513 73.2497 62.5122 73.1551C61.916 72.3105 61.6871 71.5047 62.5317 70.6602C62.6048 70.7718 62.8717 71.2475 63.3389 71.5153C64.2158 72.0169 64.724 71.9804 65.7739 72.0848C66.5514 72.1625 67.0708 72.3402 66.4259 71.2939C65.4099 70.6217 65.5422 69.913 65.7744 68.7811C66.0502 68.3992 66.483 67.9902 67.0662 67.5984C70.1759 65.5249 73.8171 63.1345 75.7099 58.637C76.2268 57.4098 76.5785 56.084 76.5971 55.4271C76.8819 55.2718 77.3203 55.3397 77.5104 55.1359C78.2719 54.3132 77.0177 53.9056 76.7727 53.328C76.7048 53.1681 76.6959 52.989 76.7145 52.8184C76.7671 52.3129 77.0554 51.9633 77.4742 51.7166C77.6699 51.6009 77.8608 51.4944 77.9571 51.3339C78.1079 51.0784 78.0124 50.7257 77.778 50.471ZM65.3535 51.1875C65.0081 51.092 64.7963 50.8994 64.644 50.5932C64.7184 50.478 64.7395 50.344 64.9118 50.344C65.4496 50.5544 65.8137 50.5932 65.9092 51.2266C65.7371 51.2064 65.5434 51.1877 65.3535 51.1875ZM75.5053 51.974C75.0636 51.9359 74.6216 51.9159 74.1623 51.8972L74.1801 51.8017C74.4301 51.7628 74.68 51.7241 74.9292 51.6868C75.159 51.3422 76.023 50.9199 76.3482 51.2451C76.1767 51.61 75.8302 51.7241 75.5053 51.974ZM72.4538 53.9696C73.3374 54.1812 73.4505 55.044 72.6464 55.5228C72.53 55.4273 72.3964 55.3497 72.2614 55.2745C72.1284 54.8328 71.8776 54.1605 72.4538 53.9696ZM72.7992 57.864L72.6464 58.0566C72.53 57.9806 72.4153 57.9029 72.2993 57.8462C72.3187 57.7304 72.3382 57.614 72.3382 57.5194C72.4538 57.4999 72.5685 57.4804 72.6642 57.4804C72.7408 57.5753 72.7408 57.5753 72.7992 57.864ZM71.0714 53.8727C71.3777 54.3339 70.9962 54.7189 70.8036 55.12C70.4199 55.044 70.4199 55.044 70.3422 54.9688C70.2851 54.3726 70.2656 53.6049 71.0714 53.8727ZM71.1491 57.9416C70.8424 57.7693 70.7842 57.7499 70.7842 57.385C70.8991 57.346 71.0136 57.3081 71.1296 57.2692C71.3974 57.4999 71.2259 57.6722 71.1491 57.9416ZM71.5129 58.2475C72.2993 58.5364 71.6852 59.3809 71.1101 59.4948C71.0325 59.3225 71.0325 59.3225 70.8036 59.1113C70.8036 58.7085 70.8991 58.5749 71.0714 58.2278C71.2257 58.228 71.3777 58.228 71.5129 58.2475ZM69.7568 56.5947C69.8005 56.3325 69.9719 56.1474 70.1395 56.1749C70.307 56.2041 70.4089 56.4394 70.3669 56.6991C70.324 56.9594 70.1517 57.1456 69.9842 57.118C69.8148 57.0874 69.7131 56.8544 69.7568 56.5947ZM70.1985 58.1164C70.178 58.2475 70.0914 58.3397 70.0084 58.3252C69.9233 58.3107 69.8723 58.1941 69.8924 58.063C69.9158 57.9344 70.0009 57.8414 70.0861 57.8559C70.1691 57.8689 70.2209 57.9853 70.1985 58.1164ZM69.5756 58.689H69.8628C69.8823 58.9003 69.9202 58.9585 69.8433 59.1308L69.5559 59.0547C69.5756 58.9195 69.5756 58.8054 69.5756 58.689ZM60.7281 62.4492C61.1309 62.315 61.2854 62.7582 61.1122 63.0649C60.9973 62.9872 60.8631 62.9096 60.7281 62.8327V62.4492ZM58.4055 64.249C58.3554 64.0283 58.3861 63.8081 58.4718 63.5888C58.7234 63.6083 58.915 63.7224 59.0817 63.8777C58.8551 64.1519 58.6302 64.2418 58.4055 64.249ZM59.8455 69.1658C58.9442 68.5696 58.7719 67.6491 58.5395 66.6515C58.5606 66.4581 58.5785 66.268 58.5785 66.0942C58.6553 66.1152 58.7516 66.2875 58.8667 66.3838C59.1935 67.1314 60.1335 68.3019 59.8455 69.1658ZM61.1122 73.0594C60.2483 72.6945 60.0378 71.3703 60.0378 70.5273C60.1155 70.2199 60.2093 69.6455 60.4601 69.4328C60.575 69.4715 60.6898 69.5297 60.7853 69.5856C60.9973 70.0855 60.7279 70.4318 60.7279 70.9495C61.0346 71.5822 61.5919 72.4275 61.1122 73.0594ZM60.9973 67.2268L61.0346 66.9769L61.1696 66.9963C61.2085 67.1881 61.1891 67.1881 61.1122 67.3434L60.9973 67.2268ZM62.1283 68.5907C61.9371 68.5309 61.8031 68.4565 61.6882 68.2631C61.6105 67.2656 62.8003 68.1474 62.1283 68.5907ZM62.7056 67.2268C62.7056 66.9195 62.8392 66.6517 63.0308 66.4583C63.5309 66.7091 63.319 67.1314 62.9744 67.4768L62.7056 67.2268ZM64.5856 71.4859C63.6448 70.9301 63.6448 70.9301 63.3576 70.6797C63.1457 70.2382 63.0502 69.4129 63.568 69.1654C63.7216 69.4715 63.6253 69.9128 63.8368 70.1243C64.508 70.1243 63.6829 68.9335 64.567 68.7993C64.7393 69.4912 64.7571 70.1999 64.9884 70.8915C64.9886 71.2943 64.9886 71.3523 64.5856 71.4859ZM64.2607 66.6905C64.5856 67.1492 64.6053 67.1492 64.2009 67.5545C63.895 67.3045 63.7995 66.8062 64.2607 66.6905ZM64.233 65.562C64.3901 65.4796 64.5597 65.4988 64.6134 65.6009C64.6668 65.7053 64.5842 65.8555 64.4274 65.9358C64.2713 66.016 64.1014 65.999 64.0472 65.8946C63.9938 65.7925 64.0768 65.6422 64.233 65.562ZM65.4708 67.9514C65.3146 68.0326 65.1448 68.0156 65.0914 67.9113C65.0381 67.8094 65.1206 67.6588 65.2767 67.5781C65.4339 67.4963 65.605 67.5132 65.6586 67.6174C65.7118 67.722 65.6277 67.8696 65.4708 67.9514ZM65.9094 66.6905C65.7756 66.7294 65.6211 66.7673 65.4693 66.8062L65.3148 66.6323C65.2185 66.1541 65.3332 65.96 65.7942 65.8265C66.1212 66.0572 66.0825 66.345 65.9094 66.6905ZM65.4515 64.8461L65.647 64.6496L65.8435 64.8461L65.647 65.0426L65.4515 64.8461ZM63.6067 65.2872C63.1844 65.7103 62.589 66.0176 61.9945 66.1326C61.2464 66.5548 61.2464 66.5548 61.1305 66.6898C61.0164 66.6509 60.9018 66.6122 60.7664 66.5735C60.0372 66.6898 59.5967 66.7085 59.5004 65.9221C59.5379 65.4034 59.5379 65.4034 59.6156 65.2313C62.0916 63.7591 63.5129 62.83 64.7962 59.0541C64.9311 58.2274 65.0649 57.4044 65.1988 56.5771C65.2372 55.7156 65.257 54.8711 65.2757 54.0265C65.4107 53.624 65.4693 53.5653 65.8524 53.4125C65.8719 53.3183 65.8717 53.3177 65.7766 53.1253C66.0328 53.585 69.3051 53.566 69.4022 53.8718C69.3633 55.0626 69.1916 56.1376 68.98 57.3272C68.4622 58.5552 68.5012 60.0498 67.4257 60.9917C66.3329 62.3952 65.3442 64.5665 63.6067 65.2872ZM68.8652 61.2423C68.7876 61.376 68.6921 61.5305 68.5958 61.6823C68.2311 61.5092 68.0402 61.3369 68.2698 60.8573C68.4042 60.7991 68.5384 60.762 68.6536 60.7231C68.731 60.896 68.807 61.0691 68.8652 61.2423ZM67.0233 63.7734L66.7539 63.8123L66.715 63.6205L67.0041 63.6787L67.0233 63.7734ZM67.406 64.5597C67.7328 65.0209 67.3874 65.4237 67.0233 65.6931C66.6011 65.6349 66.6011 65.4819 66.4853 65.0014C66.5808 64.3308 66.9651 64.5216 67.406 64.5597ZM67.2538 66.6225C67.019 66.7414 66.7653 66.7155 66.6843 66.5602C66.6056 66.4065 66.7311 66.1833 66.9647 66.0619C67.1977 65.9406 67.4527 65.9681 67.5336 66.1226C67.6129 66.2754 67.4885 66.5003 67.2538 66.6225ZM67.6759 62.7955C67.5595 62.7582 67.4448 62.7373 67.3296 62.7195C67.2147 62.3345 67.3483 62.1622 67.7324 62.1038C67.9803 62.297 67.8097 62.5842 67.6759 62.7955ZM68.0191 63.716L68.1938 63.6011C68.6921 63.6011 68.5958 63.851 68.5958 64.2337C68.1348 64.1577 68.1348 64.1577 68.0402 64.0817C68.0402 63.9457 68.0402 63.8315 68.0191 63.716ZM68.9412 65.2319C68.6534 65.1542 68.6534 65.1542 68.5577 65.0588C68.5763 64.9438 68.5958 64.8484 68.5958 64.7515C68.9986 64.3487 69.0568 64.7125 69.0957 65.0791L68.9412 65.2319ZM69.2664 62.987C69.1709 63.026 69.0568 63.0647 68.9412 63.1011C68.6735 62.9676 68.6534 62.4492 68.8458 62.2581C68.98 62.2759 69.1144 62.3146 69.2308 62.3535C69.3053 62.5648 69.402 62.7371 69.2664 62.987ZM69.5174 60.6839C69.4024 60.6467 69.2666 60.6079 69.1336 60.5698C68.9412 60.3004 68.9025 59.9753 69.0765 59.7067C69.2312 59.6864 69.383 59.6677 69.5377 59.6477C69.786 59.9947 69.671 60.3199 69.5174 60.6839ZM69.7665 61.0497L69.9013 60.9923C70.3619 61.2211 70.4959 61.6436 70.1888 62.1038C70.0736 62.0673 69.9396 62.0464 69.8052 62.0286C69.6323 61.7784 69.6889 61.3562 69.7665 61.0497ZM70.1888 64.1956C70.0173 64.1374 69.8433 64.101 69.7665 63.9457C69.71 63.2937 69.786 62.9288 70.535 62.9288C71.0714 63.3124 70.61 63.9457 70.1888 64.1956ZM70.8036 59.6477L71.0528 59.7253C71.3214 59.9947 71.3974 60.6645 70.9573 60.7989C70.2851 60.6647 70.4006 60.0507 70.8036 59.6477ZM71.9936 62.2202C71.8002 62.373 71.6101 62.526 71.4168 62.6805L71.187 62.4871C70.8799 61.759 71.053 61.3756 71.7436 61.3756C72.0122 61.5479 71.9936 61.9329 71.9936 62.2202ZM71.9741 56.5777L71.7242 56.7525C71.3599 56.6554 71.2822 56.6183 71.0323 56.3091C71.0323 54.7746 72.3185 55.5439 71.9741 56.5777ZM73.5216 59.4368C73.4743 59.7692 73.285 60.0099 73.0993 59.9707L73.067 59.9626V59.9755C73.4118 60.4932 73.0864 61.012 72.683 61.3369C72.4732 61.2601 72.3187 61.1841 72.1462 61.012C71.9159 60.301 72.203 60.1287 72.8373 60.013V59.6479C72.53 59.3422 72.7213 58.9968 72.915 58.6329C73.355 58.5561 73.355 58.6716 73.5282 59.0355L73.5104 59.081C73.536 59.186 73.541 59.3082 73.5216 59.4368ZM73.6437 57.1344C73.5282 57.1166 73.3938 57.0971 73.2598 57.0973C73.1438 56.8474 73.1053 56.272 73.2215 56.0416C74.0465 55.9272 74.3911 56.7703 73.6437 57.1344ZM74.3532 58.2862C74.2193 58.2102 74.0846 58.1527 73.9301 58.0945C73.9301 57.5581 74.2953 57.2499 74.7941 57.1731C74.9662 57.5194 74.6978 58.1529 74.3532 58.2862ZM74.8904 56.0221C74.7554 56.0051 74.6216 55.984 74.4874 55.9662C74.2756 55.6967 74.1801 55.2939 74.2578 54.9485C74.6591 54.6977 74.9292 54.8522 75.2164 55.1386C75.2553 55.658 75.3322 55.7162 74.8904 56.0221Z" fill="black"/>
<path d="M44.4119 67.1312C45.1643 66.141 45.9166 65.5933 46.2652 63.9964C46.4714 63.062 46.4224 62.1787 45.6466 61.0938C45.0048 60.1911 44.2866 59.7591 43.2631 59.3416C42.518 59.0357 41.7269 58.8878 41.1104 59.3416L41.2835 59.5704C42.5108 59.9359 43.0301 60.9917 42.9338 62.2755C42.8578 62.719 42.6661 63.5228 42.2625 63.7154L42.2999 63.9448C42.4553 63.7725 42.7052 63.6004 42.914 63.5048C43.0498 63.2558 43.1834 63.0251 43.3362 62.7944C43.375 62.5832 43.4139 62.3722 43.4713 62.1609C43.4137 61.6424 42.8191 59.8771 43.9523 60.2428C47.1606 62.5395 44.671 67.0703 42.6847 67.7644C42.7413 68.1656 42.955 68.2617 43.259 68.5294C44.6123 70.0826 44.8865 71.028 44.6221 73.2124C44.316 74.2485 43.9884 75.8963 42.7048 76.1074C42.3575 75.8777 42.5696 75.4554 42.6659 75.11C42.7048 74.6888 42.741 74.2665 42.78 73.865C42.6659 73.0401 42.2827 72.2909 42.0133 71.5039C41.5714 71.062 41.1491 70.6405 40.7268 70.2185C40.4974 70.0646 40.2656 69.9118 40.036 69.7571C40.036 69.183 39.9796 69.241 40.4582 69.0089C40.8225 69.0294 41.2073 69.0478 41.5519 69.183C41.7634 69.4315 41.7634 69.4315 42.2622 69.8157C42.4727 70.18 42.7048 70.6405 43.0881 70.8333C43.1455 71.0817 43.2022 71.3316 43.2588 71.601C43.4135 71.7541 43.4706 72.021 43.5299 72.2526L43.7782 72.196C43.6442 71.7348 43.4711 71.0442 43.1828 70.6598C42.8949 69.8735 42.6271 69.5848 41.9936 69.0095C41.8021 68.9534 41.6103 68.8954 41.4187 68.8372C41.3411 68.6649 41.0545 68.5481 40.8805 68.4731C40.7463 67.7644 40.8432 66.67 41.4742 66.2086C41.1878 66.0168 41.0731 65.5748 40.9573 65.2677C41.0545 64.7887 41.4956 64.6162 41.8795 64.3663C41.8982 64.2522 41.916 64.1559 41.9357 64.0604C41.8213 63.9827 41.7242 63.9067 41.6296 63.8299C41.438 63.044 41.6474 61.9687 40.7271 61.642C40.5548 61.9882 40.3824 62.3328 40.2093 62.6969C39.9405 62.87 39.7487 62.9468 39.4406 62.986C39.038 62.5832 39.5379 61.6811 39.172 61.2023C38.6542 61.0105 38.443 61.6051 38.0402 61.7969C37.7532 61.7774 37.4846 61.7579 37.2154 61.7579C36.276 61.2199 35.5068 60.4336 34.9508 59.4936C34.759 58.5349 34.5867 57.5736 34.4144 56.6345V54.601C34.509 54.2759 34.6045 53.9681 34.7203 53.6618L34.548 53.3727C33.8563 53.2004 33.8563 53.2004 33.2253 53.1228L33.2251 53.1232C32.2242 52.8697 29.7266 53.3067 28.3886 53.2396H27.1412C26.4496 53.4895 25.7403 53.6813 25.0299 53.8536C24.2049 54.1804 23.3796 54.6787 22.5351 54.8901C21.921 54.2761 22.7074 53.8151 23.2647 53.7374C23.5908 53.5846 23.916 53.451 24.2436 53.3177C24.6855 53.2787 25.2022 53.2013 25.605 52.9722C26.3145 52.7983 27.1591 52.4926 27.9081 52.5678C28.4252 52.376 28.9834 52.6454 29.5003 52.7214C29.7697 52.4537 30.0567 52.2814 30.4222 52.5483C30.6527 52.3186 31.0752 52.3955 31.3819 52.3955C31.8808 52.2426 32.2644 51.9732 32.82 51.9732C32.9366 52.0316 33.0515 52.1084 33.1867 52.1847C33.7571 52.2648 34.2506 52.3837 34.74 52.6506C35.0456 52.8179 35.1194 52.8737 34.9972 53.2344C34.9413 53.3978 34.8466 53.5604 34.723 53.6647C34.8184 53.677 35.0552 53.6486 35.2747 53.6308C35.5578 53.6066 35.9243 53.6614 36.0504 53.3177C36.201 52.9099 35.4333 52.4027 35.0272 52.2215C34.9317 52.1085 34.8557 52.0121 34.7789 51.915C34.7789 51.0148 35.4683 50.6509 34.9903 49.7869C34.7598 49.5378 34.5289 49.2878 34.2986 49.0574C33.7478 48.1627 32.9372 46.1541 31.916 45.1178C31.3743 44.5678 30.7555 43.8825 30.1317 43.4271C29.9691 43.3089 29.8066 43.2078 29.6933 43.1293C29.4595 42.7135 29.1641 42.4855 28.7508 42.2767L28.4766 42.2225C29.0105 42.7766 29.4013 43.2031 29.6351 44.7796C29.6351 45.24 29.6564 45.7012 29.674 46.18C29.6351 46.8516 29.2509 47.7148 29.4622 48.3489C29.5591 48.3286 29.6564 48.31 29.7703 48.31C30.3843 47.446 30.3259 45.853 30.2506 44.8557C30.292 44.6421 30.4013 44.5757 30.5639 44.5086C31.14 44.2723 32.6462 46.9411 32.9666 47.6464C33.2644 48.3025 33.3938 48.9408 33.3406 49.8255C33.1878 49.9969 33.0523 50.1692 32.9184 50.3627C32.6303 50.4778 32.3602 50.5925 32.0933 50.7269C30.058 51.0527 28.0065 51.3018 25.9517 51.2258C25.395 51.1492 24.8591 51.0715 24.32 50.9947C23.6308 50.7269 23.0362 50.7077 22.8436 49.9019C23.1309 48.7506 23.439 47.3892 24.3977 46.6207C24.8392 45.8344 25.4145 45.163 25.9128 44.4348C30.5061 40.8575 28.0837 41.7847 25.2737 44.4073C24.531 45.0998 23.9516 45.9978 23.5527 46.7744C23.2421 47.0858 22.9799 47.5679 22.7566 48.0267L22.3636 49.0913C22.2708 49.4069 22.2708 49.97 21.9486 50.0268C21.7013 50.0705 21.447 50.2305 21.2229 50.471C20.986 50.7257 20.892 51.0786 21.0425 51.3341C21.1363 51.4944 21.3298 51.6011 21.5238 51.7168C21.9436 51.9635 22.2317 52.3131 22.2834 52.8186C22.3029 52.9892 22.2932 53.1681 22.2252 53.3282C21.9803 53.9058 20.7273 54.3136 21.4876 55.1361C21.6793 55.3399 22.1161 55.272 22.4025 55.4273C22.4195 56.0842 22.7714 57.41 23.2883 58.6372C25.1811 63.1349 28.8237 65.5254 31.9326 67.5986C32.5149 67.9904 32.9486 68.3994 33.2261 68.7813C33.4551 69.9132 33.5904 70.6219 32.5708 71.2941C31.9278 72.3406 32.447 72.1627 33.2261 72.085C34.2746 71.9806 34.7843 72.0171 35.6603 71.5155C36.1287 71.2477 36.3957 70.772 36.4684 70.6604C37.3129 71.505 37.0824 72.3107 36.4878 73.1553C36.4491 73.2499 36.4104 73.3472 36.3714 73.4614L36.5437 73.7503C37.2547 73.8068 37.6001 73.8068 38.2133 73.4056C38.7133 72.9074 39.0579 72.2722 39.3078 71.6211C39.3468 70.9692 39.2884 70.7961 39.7875 70.508C40.0747 70.6803 40.3617 70.8721 40.6693 71.0638C40.8441 71.3335 41.0164 71.793 41.4192 72.4278C41.4749 72.9252 41.5915 73.4251 41.7638 73.8838V74.7089C41.4774 76.5775 40.0747 77.5119 41.6869 77.1673C42.7433 76.9424 43.5912 76.4263 44.2659 75.5462C45.4575 73.9905 46.0303 71.4577 44.4423 69.1781C44.363 69.064 44.2831 68.9498 44.2199 68.8204C43.89 68.5251 43.4773 68.3205 43.6887 67.7963C43.8051 67.5008 44.1135 67.2751 44.4119 67.1312ZM34.0878 50.3438C34.2601 50.3438 34.2796 50.4778 34.3564 50.5929C34.2028 50.8992 33.9923 51.0918 33.6461 51.1873C33.4554 51.1875 33.2628 51.2061 33.0905 51.2262C33.1876 50.5929 33.5516 50.554 34.0878 50.3438ZM24.0721 51.6866C24.3196 51.7239 24.5696 51.7626 24.8195 51.8015L24.839 51.897C24.378 51.9156 23.9373 51.9359 23.4972 51.9738C23.1696 51.7239 22.825 51.6098 22.651 51.2449C22.9776 50.9197 23.84 51.342 24.0721 51.6866ZM40.5289 63.5888C40.6136 63.8081 40.6453 64.0281 40.5941 64.249C40.3709 64.2418 40.1437 64.1519 39.9196 63.8777C40.0849 63.7222 40.2766 63.6081 40.5289 63.5888ZM38.2719 62.449V62.8325C38.1375 62.9094 38.0025 62.987 37.8884 63.0647C37.7153 62.758 37.8689 62.3146 38.2719 62.449ZM29.4454 59.0545L29.1565 59.1305C29.0788 58.9582 29.1176 58.9001 29.1368 58.6888H29.4259C29.4259 58.8052 29.4259 58.9193 29.4454 59.0545ZM28.8603 56.1747C29.0281 56.1472 29.2004 56.3325 29.2441 56.5945C29.2878 56.8542 29.1859 57.0872 29.0157 57.1178C28.8481 57.1454 28.6758 56.959 28.6346 56.6989C28.5909 56.4392 28.6928 56.2037 28.8603 56.1747ZM28.9914 58.325C28.9074 58.3394 28.8237 58.2473 28.8003 58.1162C28.78 57.9851 28.8309 57.8687 28.9138 57.8557C28.9985 57.8412 29.0836 57.9342 29.1064 58.0628C29.1275 58.1939 29.0763 58.3102 28.9914 58.325ZM27.9284 53.8725C28.7344 53.6047 28.7148 54.3724 28.658 54.9686C28.5814 55.0438 28.5814 55.0438 28.1968 55.1198C28.0061 54.7186 27.6211 54.3334 27.9284 53.8725ZM27.8508 57.9414C27.775 57.672 27.6008 57.4997 27.8704 57.2692C27.9854 57.3081 28.1007 57.346 28.2175 57.385C28.2173 57.7496 28.1591 57.7691 27.8508 57.9414ZM28.197 59.1113C27.9674 59.3225 27.9673 59.3225 27.8897 59.4948C27.3146 59.3807 26.7006 58.5362 27.4869 58.2475C27.6211 58.228 27.7752 58.228 27.9286 58.228C28.1009 58.5749 28.197 58.7083 28.197 59.1113ZM26.5477 53.9694C27.1228 54.1603 26.8729 54.8325 26.7378 55.2743C26.6036 55.3494 26.4699 55.4271 26.3559 55.5226C25.5487 55.0438 25.6643 54.1812 26.5477 53.9694ZM26.7006 57.846C26.5856 57.9025 26.4699 57.9801 26.3559 58.0564L26.2006 57.8638C26.2588 57.5749 26.2588 57.5749 26.3365 57.4802C26.4311 57.4802 26.5477 57.4997 26.6616 57.5192C26.6616 57.6138 26.6811 57.7304 26.7006 57.846ZM23.7834 55.1384C24.0723 54.852 24.3393 54.6975 24.7421 54.9483C24.8197 55.2937 24.7234 55.6965 24.5134 55.966C24.3782 55.9838 24.2444 56.0049 24.1113 56.0219C23.6685 55.716 23.7445 55.6578 23.7834 55.1384ZM24.6474 58.286C24.3012 58.1524 24.0334 57.5192 24.2057 57.1729C24.704 57.2497 25.0697 57.5579 25.0697 58.0943C24.9158 58.1527 24.7808 58.21 24.6474 58.286ZM25.7784 56.0413C25.8947 56.2716 25.856 56.8471 25.7411 57.0971C25.6061 57.0969 25.4725 57.1164 25.3561 57.1342C24.6087 56.7701 24.9533 55.927 25.7784 56.0413ZM26.8534 61.0114C26.6811 61.1837 26.5283 61.2597 26.3152 61.3365C25.9126 61.0116 25.587 60.4928 25.9333 59.9751V59.9622L25.901 59.9703C25.7152 60.0092 25.5257 59.7688 25.477 59.4364C25.4601 59.3078 25.4648 59.1856 25.4895 59.0804L25.4725 59.0351C25.6448 58.671 25.6448 58.5554 26.0865 58.6323C26.2783 58.9963 26.4701 59.3418 26.1634 59.6474V60.0123C26.796 60.1281 27.0839 60.3004 26.8534 61.0114ZM27.9673 56.3089C27.7174 56.6179 27.6397 56.6552 27.2757 56.7523L27.0257 56.5775C26.6811 55.5437 27.9673 54.7744 27.9673 56.3089ZM27.8135 62.4869L27.5838 62.6803C27.392 62.5258 27.199 62.373 27.0081 62.22C27.0081 61.9327 26.9884 61.5477 27.2562 61.3754C27.9479 61.3754 28.1202 61.759 27.8135 62.4869ZM27.9479 59.7251L28.1968 59.6474C28.6004 60.0502 28.7145 60.6643 28.045 60.7987C27.6008 60.6645 27.6785 59.9945 27.9479 59.7251ZM29.2325 63.9454C29.1567 64.1008 28.9844 64.1372 28.8104 64.1954C28.3898 63.9454 27.9284 63.312 28.4675 62.9286C29.2147 62.9286 29.2901 63.2935 29.2325 63.9454ZM29.1952 62.0282C29.0612 62.046 28.926 62.0671 28.8104 62.1034C28.5039 61.643 28.639 61.2207 29.0985 60.9919L29.2325 61.0493C29.3093 61.356 29.3675 61.7782 29.1952 62.0282ZM29.4622 59.6474C29.6175 59.6677 29.7703 59.6864 29.9236 59.7065C30.0967 59.9751 30.0576 60.3002 29.8674 60.5696C29.7324 60.6077 29.5982 60.6465 29.4835 60.6837C29.3288 60.3197 29.2147 59.9945 29.4622 59.6474ZM29.7707 62.3533C29.8865 62.3144 30.0207 62.2757 30.1543 62.2578C30.3475 62.449 30.3264 62.9676 30.0578 63.1009C29.9445 63.0645 29.8291 63.0258 29.7326 62.9868C29.5984 62.7369 29.6937 62.5646 29.7707 62.3533ZM30.1344 61.2421C30.1926 61.0689 30.2694 60.8958 30.3471 60.7227C30.4604 60.7616 30.5952 60.7987 30.7306 60.8569C30.9597 61.3365 30.7695 61.5088 30.4038 61.6819C30.3083 61.5301 30.212 61.3756 30.1344 61.2421ZM30.0578 65.2317L29.906 65.0789C29.9449 64.7123 30.0014 64.3484 30.404 64.7512C30.404 64.8484 30.4237 64.9438 30.443 65.0586C30.3473 65.154 30.3473 65.154 30.0578 65.2317ZM30.9594 64.0815C30.865 64.1575 30.865 64.1575 30.4036 64.2335C30.4036 63.8508 30.3081 63.6008 30.8064 63.6008L30.9787 63.7158C30.9594 63.8313 30.9594 63.9454 30.9594 64.0815ZM31.268 62.1036C31.6518 62.1618 31.7849 62.3341 31.6708 62.7192C31.5559 62.7371 31.4401 62.7582 31.3262 62.7953C31.1904 62.584 31.0181 62.2968 31.268 62.1036ZM32.3149 66.56C32.2356 66.7153 31.9817 66.7412 31.7462 66.6223C31.5124 66.5001 31.3871 66.2752 31.4668 66.1224C31.547 65.9679 31.8015 65.9404 32.0347 66.0617C32.2704 66.1831 32.394 66.4063 32.3149 66.56ZM31.9765 65.6929C31.6124 65.4235 31.2678 65.0207 31.5946 64.5595C32.0347 64.5214 32.4197 64.3306 32.5151 65.0012C32.3988 65.4817 32.3988 65.6347 31.9765 65.6929ZM31.9765 63.7731L31.9962 63.6785L32.2851 63.6203L32.2461 63.8121L31.9765 63.7731ZM33.0905 66.6903C32.9181 66.3448 32.879 66.0568 33.2062 65.8263C33.6674 65.9598 33.7805 66.1539 33.685 66.6321L33.5316 66.806C33.3793 66.7671 33.2263 66.7292 33.0905 66.6903ZM33.1561 64.8459L33.3526 64.6494L33.5492 64.8459L33.3526 65.0424L33.1561 64.8459ZM33.9083 67.9111C33.8573 68.0154 33.685 68.0324 33.528 67.9512C33.3719 67.8692 33.2897 67.7218 33.3427 67.6172C33.3959 67.5128 33.5661 67.4961 33.7223 67.5779C33.8793 67.6586 33.9617 67.8092 33.9083 67.9111ZM35.6427 70.6797C35.3548 70.9301 35.3548 70.9301 34.4156 71.4859C34.0128 71.3521 34.0128 71.2941 34.0128 70.8913C34.2417 70.1996 34.2603 69.491 34.4326 68.7991C35.3175 68.9333 34.4925 70.1241 35.163 70.1241C35.3743 69.9126 35.2788 69.4713 35.4308 69.1652C35.9502 69.4129 35.8531 70.2382 35.6427 70.6797ZM34.9518 65.8942C34.9009 65.9986 34.7286 66.0155 34.5732 65.9354C34.4154 65.8551 34.3332 65.7049 34.3867 65.6005C34.4401 65.4986 34.6099 65.4792 34.7661 65.5616C34.9228 65.6419 35.0069 65.7923 34.9518 65.8942ZM34.799 67.5542C34.3954 67.149 34.4152 67.149 34.7408 66.6903C35.2018 66.806 35.1049 67.3043 34.799 67.5542ZM36.027 67.4766C35.6816 67.1312 35.4689 66.7089 35.9689 66.4581C36.1606 66.6515 36.294 66.9193 36.294 67.2266L36.027 67.4766ZM35.3911 65.287C33.655 64.5665 32.6671 62.3949 31.5727 60.9917C30.4976 60.0498 30.5364 58.555 30.0194 57.3272C29.8082 56.1378 29.6345 55.0626 29.5972 53.8718C29.6927 53.5656 32.9716 53.5848 33.2249 53.1247C33.1286 53.3177 33.1283 53.3181 33.1478 53.4125C33.5305 53.5653 33.5893 53.624 33.7229 54.0265C33.7424 54.8711 33.7616 55.7156 33.8006 56.5771C33.9342 57.4044 34.0677 58.2274 34.2019 59.0541C35.4865 62.83 36.9095 63.7591 39.3849 65.2313C39.4617 65.4034 39.4617 65.4034 39.499 65.9221C39.4019 66.7085 38.9618 66.6898 38.2322 66.5735C38.0986 66.6124 37.9847 66.6509 37.8681 66.6898C37.7532 66.5548 37.7532 66.5548 37.0041 66.1326C36.4095 66.0174 35.815 65.7101 35.3911 65.287ZM38.0025 67.2266L37.8884 67.343C37.8108 67.1877 37.7911 67.1877 37.8302 66.9959L37.9642 66.9765L38.0025 67.2266ZM37.3133 68.2629C37.1967 68.4563 37.0633 68.5307 36.8716 68.5905C36.1993 68.1472 37.3901 67.2653 37.3133 68.2629ZM37.8884 73.0592C37.408 72.4273 37.9642 71.582 38.2719 70.9493C38.2719 70.4316 38.0025 70.0853 38.2138 69.5854C38.3111 69.5293 38.4256 69.4711 38.5406 69.4326C38.7897 69.6453 38.886 70.2197 38.9628 70.5271C38.9628 71.3701 38.7508 72.6943 37.8884 73.0592ZM39.1535 69.1656C38.8663 68.3016 39.808 67.1312 40.1331 66.3835C40.2489 66.287 40.3443 66.1147 40.422 66.094C40.422 66.268 40.439 66.4581 40.4595 66.6513C40.228 67.6489 40.0557 68.5694 39.1535 69.1656Z" fill="black"/>
</svg>
