<svg width="86" height="22" viewBox="0 0 86 22" fill="none" xmlns="http://www.w3.org/2000/svg">
<path d="M15.97 0.0299982V21H13.87V11.19H2.5V21H0.4V0.0299982H2.5V9.45H13.87V0.0299982H15.97ZM27.9313 21.24C26.3913 21.24 25.0013 20.9 23.7613 20.22C22.5413 19.52 21.5713 18.54 20.8513 17.28C20.1513 16 19.8013 14.51 19.8013 12.81C19.8013 11.11 20.1613 9.63 20.8813 8.37C21.6013 7.09 22.5813 6.11 23.8213 5.43C25.0613 4.73 26.4513 4.38 27.9913 4.38C29.5313 4.38 30.9213 4.73 32.1613 5.43C33.4213 6.11 34.4013 7.09 35.1013 8.37C35.8213 9.63 36.1813 11.11 36.1813 12.81C36.1813 14.49 35.8213 15.97 35.1013 17.25C34.3813 18.53 33.3913 19.52 32.1313 20.22C30.8713 20.9 29.4713 21.24 27.9313 21.24ZM27.9313 19.41C29.0113 19.41 30.0113 19.17 30.9313 18.69C31.8513 18.19 32.5913 17.45 33.1513 16.47C33.7313 15.47 34.0213 14.25 34.0213 12.81C34.0213 11.37 33.7413 10.16 33.1813 9.18C32.6213 8.18 31.8813 7.44 30.9613 6.96C30.0413 6.46 29.0413 6.21 27.9613 6.21C26.8813 6.21 25.8813 6.46 24.9613 6.96C24.0413 7.44 23.3013 8.18 22.7413 9.18C22.2013 10.16 21.9313 11.37 21.9313 12.81C21.9313 14.25 22.2013 15.47 22.7413 16.47C23.3013 17.45 24.0313 18.19 24.9313 18.69C25.8513 19.17 26.8513 19.41 27.9313 19.41ZM59.5094 4.32C61.4294 4.32 62.9894 4.93 64.1894 6.15C65.4094 7.35 66.0194 9.1 66.0194 11.4V21H63.9494V11.64C63.9494 9.86 63.5194 8.5 62.6594 7.56C61.7994 6.62 60.6294 6.15 59.1494 6.15C57.6094 6.15 56.3794 6.66 55.4594 7.68C54.5394 8.7 54.0794 10.18 54.0794 12.12V21H52.0094V11.64C52.0094 9.86 51.5794 8.5 50.7194 7.56C49.8594 6.62 48.6794 6.15 47.1794 6.15C45.6394 6.15 44.4094 6.66 43.4894 7.68C42.5694 8.7 42.1094 10.18 42.1094 12.12V21H40.0094V4.62H42.1094V7.44C42.6294 6.42 43.3694 5.65 44.3294 5.13C45.2894 4.59 46.3594 4.32 47.5394 4.32C48.9594 4.32 50.1994 4.66 51.2594 5.34C52.3394 6.02 53.1194 7.02 53.5994 8.34C54.0394 7.04 54.7894 6.05 55.8494 5.37C56.9294 4.67 58.1494 4.32 59.5094 4.32ZM85.5032 11.97C85.5032 12.69 85.4832 13.24 85.4432 13.62H71.8532C71.9132 14.86 72.2132 15.92 72.7532 16.8C73.2932 17.68 74.0032 18.35 74.8832 18.81C75.7632 19.25 76.7232 19.47 77.7632 19.47C79.1232 19.47 80.2632 19.14 81.1832 18.48C82.1232 17.82 82.7432 16.93 83.0432 15.81H85.2632C84.8632 17.41 84.0032 18.72 82.6832 19.74C81.3832 20.74 79.7432 21.24 77.7632 21.24C76.2232 21.24 74.8432 20.9 73.6232 20.22C72.4032 19.52 71.4432 18.54 70.7432 17.28C70.0632 16 69.7232 14.51 69.7232 12.81C69.7232 11.11 70.0632 9.62 70.7432 8.34C71.4232 7.06 72.3732 6.08 73.5932 5.4C74.8132 4.72 76.2032 4.38 77.7632 4.38C79.3232 4.38 80.6832 4.72 81.8432 5.4C83.0232 6.08 83.9232 7 84.5432 8.16C85.1832 9.3 85.5032 10.57 85.5032 11.97ZM83.3732 11.91C83.3932 10.69 83.1432 9.65 82.6232 8.79C82.1232 7.93 81.4332 7.28 80.5532 6.84C79.6732 6.4 78.7132 6.18 77.6732 6.18C76.1132 6.18 74.7832 6.68 73.6832 7.68C72.5832 8.68 71.9732 10.09 71.8532 11.91H83.3732Z" fill="#FFEB5B"/>
</svg>
