<svg width="219" height="24" viewBox="0 0 219 24" fill="none" xmlns="http://www.w3.org/2000/svg">
<path d="M20.89 2.3V23H18.79V6.47L11.41 23H9.88L2.5 6.53V23H0.4V2.3H2.62L10.63 20.24L18.64 2.3H20.89ZM40.4739 13.97C40.4739 14.69 40.4539 15.24 40.4139 15.62H26.8239C26.8839 16.86 27.1839 17.92 27.7239 18.8C28.2639 19.68 28.9739 20.35 29.8539 20.81C30.7339 21.25 31.6939 21.47 32.7339 21.47C34.0939 21.47 35.2339 21.14 36.1539 20.48C37.0939 19.82 37.7139 18.93 38.0139 17.81H40.2339C39.8339 19.41 38.9739 20.72 37.6539 21.74C36.3539 22.74 34.7139 23.24 32.7339 23.24C31.1939 23.24 29.8139 22.9 28.5939 22.22C27.3739 21.52 26.4139 20.54 25.7139 19.28C25.0339 18 24.6939 16.51 24.6939 14.81C24.6939 13.11 25.0339 11.62 25.7139 10.34C26.3939 9.06 27.3439 8.08 28.5639 7.4C29.7839 6.72 31.1739 6.38 32.7339 6.38C34.2939 6.38 35.6539 6.72 36.8139 7.4C37.9939 8.08 38.8939 9 39.5139 10.16C40.1539 11.3 40.4739 12.57 40.4739 13.97ZM38.3439 13.91C38.3639 12.69 38.1139 11.65 37.5939 10.79C37.0939 9.93 36.4039 9.28 35.5239 8.84C34.6439 8.4 33.6839 8.18 32.6439 8.18C31.0839 8.18 29.7539 8.68 28.6539 9.68C27.5539 10.68 26.9439 12.09 26.8239 13.91H38.3439ZM59.136 13.97C59.136 14.69 59.116 15.24 59.076 15.62H45.486C45.546 16.86 45.846 17.92 46.386 18.8C46.926 19.68 47.636 20.35 48.516 20.81C49.396 21.25 50.356 21.47 51.396 21.47C52.756 21.47 53.896 21.14 54.816 20.48C55.756 19.82 56.376 18.93 56.676 17.81H58.896C58.496 19.41 57.636 20.72 56.316 21.74C55.016 22.74 53.376 23.24 51.396 23.24C49.856 23.24 48.476 22.9 47.256 22.22C46.036 21.52 45.076 20.54 44.376 19.28C43.696 18 43.356 16.51 43.356 14.81C43.356 13.11 43.696 11.62 44.376 10.34C45.056 9.06 46.006 8.08 47.226 7.4C48.446 6.72 49.836 6.38 51.396 6.38C52.956 6.38 54.316 6.72 55.476 7.4C56.656 8.08 57.556 9 58.176 10.16C58.816 11.3 59.136 12.57 59.136 13.97ZM57.006 13.91C57.026 12.69 56.776 11.65 56.256 10.79C55.756 9.93 55.066 9.28 54.186 8.84C53.306 8.4 52.346 8.18 51.306 8.18C49.746 8.18 48.416 8.68 47.316 9.68C46.216 10.68 45.606 12.09 45.486 13.91H57.006ZM65.7081 8.39V18.56C65.7081 19.56 65.8981 20.25 66.2781 20.63C66.6581 21.01 67.3281 21.2 68.2881 21.2H70.2081V23H67.9581C66.4781 23 65.3781 22.66 64.6581 21.98C63.9381 21.28 63.5781 20.14 63.5781 18.56V8.39H61.2981V6.62H63.5781V2.51H65.7081V6.62H70.2081V8.39H65.7081ZM84.6339 8.39V18.56C84.6339 19.56 84.8239 20.25 85.2039 20.63C85.5839 21.01 86.2539 21.2 87.2139 21.2H89.1339V23H86.8839C85.4039 23 84.3039 22.66 83.5839 21.98C82.8639 21.28 82.5039 20.14 82.5039 18.56V8.39H80.2239V6.62H82.5039V2.51H84.6339V6.62H89.1339V8.39H84.6339ZM100.397 6.32C101.637 6.32 102.747 6.58 103.727 7.1C104.727 7.62 105.507 8.42 106.067 9.5C106.647 10.56 106.937 11.86 106.937 13.4V23H104.867V13.64C104.867 11.86 104.417 10.5 103.517 9.56C102.637 8.62 101.427 8.15 99.8873 8.15C98.3073 8.15 97.0473 8.65 96.1073 9.65C95.1673 10.65 94.6973 12.12 94.6973 14.06V23H92.5973V0.8H94.6973V9.41C95.2173 8.43 95.9773 7.67 96.9773 7.13C97.9973 6.59 99.1373 6.32 100.397 6.32ZM126.402 13.97C126.402 14.69 126.382 15.24 126.342 15.62H112.752C112.812 16.86 113.112 17.92 113.652 18.8C114.192 19.68 114.902 20.35 115.782 20.81C116.662 21.25 117.622 21.47 118.662 21.47C120.022 21.47 121.162 21.14 122.082 20.48C123.022 19.82 123.642 18.93 123.942 17.81H126.162C125.762 19.41 124.902 20.72 123.582 21.74C122.282 22.74 120.642 23.24 118.662 23.24C117.122 23.24 115.742 22.9 114.522 22.22C113.302 21.52 112.342 20.54 111.642 19.28C110.962 18 110.622 16.51 110.622 14.81C110.622 13.11 110.962 11.62 111.642 10.34C112.322 9.06 113.272 8.08 114.492 7.4C115.712 6.72 117.102 6.38 118.662 6.38C120.222 6.38 121.582 6.72 122.742 7.4C123.922 8.08 124.822 9 125.442 10.16C126.082 11.3 126.402 12.57 126.402 13.97ZM124.272 13.91C124.292 12.69 124.042 11.65 123.522 10.79C123.022 9.93 122.332 9.28 121.452 8.84C120.572 8.4 119.612 8.18 118.572 8.18C117.012 8.18 115.682 8.68 114.582 9.68C113.482 10.68 112.872 12.09 112.752 13.91H124.272ZM150.746 2.03V3.77H144.926V23H142.826V3.77H136.976V2.03H150.746ZM168.882 13.97C168.882 14.69 168.862 15.24 168.822 15.62H155.232C155.292 16.86 155.592 17.92 156.132 18.8C156.672 19.68 157.382 20.35 158.262 20.81C159.142 21.25 160.102 21.47 161.142 21.47C162.502 21.47 163.642 21.14 164.562 20.48C165.502 19.82 166.122 18.93 166.422 17.81H168.642C168.242 19.41 167.382 20.72 166.062 21.74C164.762 22.74 163.122 23.24 161.142 23.24C159.602 23.24 158.222 22.9 157.002 22.22C155.782 21.52 154.822 20.54 154.122 19.28C153.442 18 153.102 16.51 153.102 14.81C153.102 13.11 153.442 11.62 154.122 10.34C154.802 9.06 155.752 8.08 156.972 7.4C158.192 6.72 159.582 6.38 161.142 6.38C162.702 6.38 164.062 6.72 165.222 7.4C166.402 8.08 167.302 9 167.922 10.16C168.562 11.3 168.882 12.57 168.882 13.97ZM166.752 13.91C166.772 12.69 166.522 11.65 166.002 10.79C165.502 9.93 164.812 9.28 163.932 8.84C163.052 8.4 162.092 8.18 161.052 8.18C159.492 8.18 158.162 8.68 157.062 9.68C155.962 10.68 155.352 12.09 155.232 13.91H166.752ZM171.764 14.78C171.764 13.1 172.094 11.63 172.754 10.37C173.434 9.09 174.364 8.11 175.544 7.43C176.744 6.73 178.094 6.38 179.594 6.38C181.154 6.38 182.494 6.74 183.614 7.46C184.754 8.18 185.574 9.1 186.074 10.22V6.62H188.174V23H186.074V19.37C185.554 20.49 184.724 21.42 183.584 22.16C182.464 22.88 181.124 23.24 179.564 23.24C178.084 23.24 176.744 22.89 175.544 22.19C174.364 21.49 173.434 20.5 172.754 19.22C172.094 17.94 171.764 16.46 171.764 14.78ZM186.074 14.81C186.074 13.49 185.804 12.33 185.264 11.33C184.724 10.33 183.984 9.56 183.044 9.02C182.124 8.48 181.104 8.21 179.984 8.21C178.824 8.21 177.784 8.47 176.864 8.99C175.944 9.51 175.214 10.27 174.674 11.27C174.154 12.25 173.894 13.42 173.894 14.78C173.894 16.12 174.154 17.3 174.674 18.32C175.214 19.32 175.944 20.09 176.864 20.63C177.784 21.15 178.824 21.41 179.984 21.41C181.104 21.41 182.124 21.14 183.044 20.6C183.984 20.06 184.724 19.29 185.264 18.29C185.804 17.29 186.074 16.13 186.074 14.81ZM212.468 6.32C214.388 6.32 215.948 6.93 217.148 8.15C218.368 9.35 218.978 11.1 218.978 13.4V23H216.908V13.64C216.908 11.86 216.478 10.5 215.618 9.56C214.758 8.62 213.588 8.15 212.108 8.15C210.568 8.15 209.338 8.66 208.418 9.68C207.498 10.7 207.038 12.18 207.038 14.12V23H204.968V13.64C204.968 11.86 204.538 10.5 203.678 9.56C202.818 8.62 201.638 8.15 200.138 8.15C198.598 8.15 197.368 8.66 196.448 9.68C195.528 10.7 195.068 12.18 195.068 14.12V23H192.968V6.62H195.068V9.44C195.588 8.42 196.328 7.65 197.288 7.13C198.248 6.59 199.318 6.32 200.498 6.32C201.918 6.32 203.158 6.66 204.218 7.34C205.298 8.02 206.078 9.02 206.558 10.34C206.998 9.04 207.748 8.05 208.808 7.37C209.888 6.67 211.108 6.32 212.468 6.32Z" fill="white"/>
</svg>
