<svg width="502" height="55" viewBox="0 0 502 55" fill="none" xmlns="http://www.w3.org/2000/svg">
<path d="M0.975 53C3.53167 46.76 5.09167 40.9967 5.655 35.71L8.645 7.37H19.045L31.85 44.355L43.55 7.37H50.115L56.55 53H46.15L41.34 18.42L30.42 53H24.44L9.425 9.58L6.76 35.775C6.32667 39.9783 6.11 43.315 6.11 45.785C6.11 47.9517 6.28333 50.3567 6.63 53H0.975ZM83.526 53.975C79.626 53.975 75.986 53.1517 72.606 51.505C69.226 49.815 66.5177 47.41 64.481 44.29C62.4443 41.17 61.426 37.53 61.426 33.37C61.426 29.34 62.4227 25.895 64.416 23.035C66.4093 20.1317 68.9877 17.965 72.151 16.535C75.3577 15.0617 78.716 14.325 82.226 14.325C85.346 14.325 88.2494 14.91 90.936 16.08C93.6227 17.2067 95.7677 18.9183 97.371 21.215C99.0177 23.5117 99.841 26.285 99.841 29.535C99.841 31.1383 99.6243 32.7417 99.191 34.345H71.826C71.9127 38.245 72.411 41.5817 73.321 44.355C74.2743 47.085 75.531 49.165 77.091 50.595C78.6943 52.025 80.5143 52.74 82.551 52.74C84.761 52.74 87.1444 51.8517 89.701 50.075C92.2577 48.255 94.836 45.59 97.436 42.08L99.581 48.58C97.241 50.3567 94.6844 51.7 91.911 52.61C89.1377 53.52 86.3427 53.975 83.526 53.975ZM89.831 33.24C90.091 31.81 90.221 30.4233 90.221 29.08C90.221 26.1767 89.8527 23.7067 89.116 21.67C88.3794 19.6333 87.4044 18.1167 86.191 17.12C84.9777 16.1233 83.656 15.625 82.226 15.625C80.536 15.625 78.8893 16.3183 77.286 17.705C75.726 19.0483 74.426 21.0633 73.386 23.75C72.3893 26.3933 71.8693 29.5567 71.826 33.24H89.831ZM125.611 53.975C121.711 53.975 118.071 53.1517 114.691 51.505C111.311 49.815 108.603 47.41 106.566 44.29C104.529 41.17 103.511 37.53 103.511 33.37C103.511 29.34 104.508 25.895 106.501 23.035C108.494 20.1317 111.073 17.965 114.236 16.535C117.443 15.0617 120.801 14.325 124.311 14.325C127.431 14.325 130.334 14.91 133.021 16.08C135.708 17.2067 137.853 18.9183 139.456 21.215C141.103 23.5117 141.926 26.285 141.926 29.535C141.926 31.1383 141.709 32.7417 141.276 34.345H113.911C113.998 38.245 114.496 41.5817 115.406 44.355C116.359 47.085 117.616 49.165 119.176 50.595C120.779 52.025 122.599 52.74 124.636 52.74C126.846 52.74 129.229 51.8517 131.786 50.075C134.343 48.255 136.921 45.59 139.521 42.08L141.666 48.58C139.326 50.3567 136.769 51.7 133.996 52.61C131.223 53.52 128.428 53.975 125.611 53.975ZM131.916 33.24C132.176 31.81 132.306 30.4233 132.306 29.08C132.306 26.1767 131.938 23.7067 131.201 21.67C130.464 19.6333 129.489 18.1167 128.276 17.12C127.063 16.1233 125.741 15.625 124.311 15.625C122.621 15.625 120.974 16.3183 119.371 17.705C117.811 19.0483 116.511 21.0633 115.471 23.75C114.474 26.3933 113.954 29.5567 113.911 33.24H131.916ZM163.403 54.235C160.76 54.235 158.225 53.65 155.798 52.48C153.371 51.31 151.421 49.6633 149.948 47.54C148.475 45.3733 147.738 42.9033 147.738 40.13V16.535H143.838V15.43H149.623C151.833 14.0867 153.61 12.0067 154.953 9.19C156.296 6.33 156.968 3.55667 156.968 0.869997H158.138V15.43H167.563V16.535H158.138V46.63C158.138 48.7533 158.506 50.3783 159.243 51.505C159.98 52.5883 160.955 53.13 162.168 53.13C163.901 53.13 165.743 52.155 167.693 50.205C169.686 48.2117 171.506 45.5467 173.153 42.21L175.428 48.45C173.955 50.3567 172.156 51.8083 170.033 52.805C167.91 53.7583 165.7 54.235 163.403 54.235ZM209.36 54.235C206.717 54.235 204.182 53.65 201.755 52.48C199.328 51.31 197.378 49.6633 195.905 47.54C194.432 45.3733 193.695 42.9033 193.695 40.13V16.535H189.795V15.43H195.58C197.79 14.0867 199.567 12.0067 200.91 9.19C202.253 6.33 202.925 3.55667 202.925 0.869997H204.095V15.43H213.52V16.535H204.095V46.63C204.095 48.7533 204.463 50.3783 205.2 51.505C205.937 52.5883 206.912 53.13 208.125 53.13C209.858 53.13 211.7 52.155 213.65 50.205C215.643 48.2117 217.463 45.5467 219.11 42.21L221.385 48.45C219.912 50.3567 218.113 51.8083 215.99 52.805C213.867 53.7583 211.657 54.235 209.36 54.235ZM223.701 53V7.37H234.101V31.355H234.231C235.098 27.6283 236.354 24.5083 238.001 21.995C239.648 19.4383 241.489 17.5317 243.526 16.275C245.606 15.0183 247.708 14.39 249.831 14.39C251.824 14.39 253.666 14.8667 255.356 15.82C257.046 16.73 258.389 18.03 259.386 19.72C260.426 21.3667 260.946 23.2517 260.946 25.375V53H250.546L250.871 26.285C250.914 23.685 250.459 21.6917 249.506 20.305C248.553 18.875 247.318 18.16 245.801 18.16C244.284 18.16 242.681 18.9617 240.991 20.565C239.301 22.1683 237.806 24.5083 236.506 27.585C235.249 30.6617 234.448 34.3017 234.101 38.505V53H223.701ZM287.794 53.975C283.894 53.975 280.254 53.1517 276.874 51.505C273.494 49.815 270.785 47.41 268.749 44.29C266.712 41.17 265.694 37.53 265.694 33.37C265.694 29.34 266.69 25.895 268.684 23.035C270.677 20.1317 273.255 17.965 276.419 16.535C279.625 15.0617 282.984 14.325 286.494 14.325C289.614 14.325 292.517 14.91 295.204 16.08C297.89 17.2067 300.035 18.9183 301.639 21.215C303.285 23.5117 304.109 26.285 304.109 29.535C304.109 31.1383 303.892 32.7417 303.459 34.345H276.094C276.18 38.245 276.679 41.5817 277.589 44.355C278.542 47.085 279.799 49.165 281.359 50.595C282.962 52.025 284.782 52.74 286.819 52.74C289.029 52.74 291.412 51.8517 293.969 50.075C296.525 48.255 299.104 45.59 301.704 42.08L303.849 48.58C301.509 50.3567 298.952 51.7 296.179 52.61C293.405 53.52 290.61 53.975 287.794 53.975ZM294.099 33.24C294.359 31.81 294.489 30.4233 294.489 29.08C294.489 26.1767 294.12 23.7067 293.384 21.67C292.647 19.6333 291.672 18.1167 290.459 17.12C289.245 16.1233 287.924 15.625 286.494 15.625C284.804 15.625 283.157 16.3183 281.554 17.705C279.994 19.0483 278.694 21.0633 277.654 23.75C276.657 26.3933 276.137 29.5567 276.094 33.24H294.099ZM337.441 8.475C334.148 8.475 331.396 8.90833 329.186 9.775C326.976 10.5983 324.636 11.9633 322.166 13.87V7.37H363.116V13.87C360.646 11.9633 358.328 10.5983 356.161 9.775C353.995 8.90833 351.221 8.475 347.841 8.475V53H337.441V8.475ZM382.374 53.975C378.474 53.975 374.834 53.1517 371.454 51.505C368.074 49.815 365.365 47.41 363.329 44.29C361.292 41.17 360.274 37.53 360.274 33.37C360.274 29.34 361.27 25.895 363.264 23.035C365.257 20.1317 367.835 17.965 370.999 16.535C374.205 15.0617 377.564 14.325 381.074 14.325C384.194 14.325 387.097 14.91 389.784 16.08C392.47 17.2067 394.615 18.9183 396.219 21.215C397.865 23.5117 398.689 26.285 398.689 29.535C398.689 31.1383 398.472 32.7417 398.039 34.345H370.674C370.76 38.245 371.259 41.5817 372.169 44.355C373.122 47.085 374.379 49.165 375.939 50.595C377.542 52.025 379.362 52.74 381.399 52.74C383.609 52.74 385.992 51.8517 388.549 50.075C391.105 48.255 393.684 45.59 396.284 42.08L398.429 48.58C396.089 50.3567 393.532 51.7 390.759 52.61C387.985 53.52 385.19 53.975 382.374 53.975ZM388.679 33.24C388.939 31.81 389.069 30.4233 389.069 29.08C389.069 26.1767 388.7 23.7067 387.964 21.67C387.227 19.6333 386.252 18.1167 385.039 17.12C383.825 16.1233 382.504 15.625 381.074 15.625C379.384 15.625 377.737 16.3183 376.134 17.705C374.574 19.0483 373.274 21.0633 372.234 23.75C371.237 26.3933 370.717 29.5567 370.674 33.24H388.679ZM414.351 53.975C411.577 53.975 409.237 53.4767 407.331 52.48C405.424 51.44 403.994 50.0967 403.041 48.45C402.087 46.8033 401.611 45.005 401.611 43.055C401.611 39.3717 402.846 36.2733 405.316 33.76C407.786 31.2033 410.797 29.145 414.351 27.585C417.947 26.025 422.346 24.4867 427.546 22.97C427.546 20.4567 427.069 18.55 426.116 17.25C425.162 15.95 423.797 15.3 422.021 15.3C419.594 15.3 417.102 16.1883 414.546 17.965C412.032 19.7417 409.757 22.1683 407.721 25.245L405.771 17.77C408.544 16.6433 411.404 15.7767 414.351 15.17C417.341 14.52 420.179 14.195 422.866 14.195C427.372 14.195 431.012 15.1483 433.786 17.055C436.559 18.9183 437.946 21.8433 437.946 25.83V53H427.546V46.955C425.856 48.9483 423.819 50.6167 421.436 51.96C419.096 53.3033 416.734 53.975 414.351 53.975ZM419.226 50.335C420.526 50.335 421.891 49.9233 423.321 49.1C424.794 48.2767 426.202 47.1933 427.546 45.85V24.075C422.086 25.7217 418.121 27.8667 415.651 30.51C413.224 33.11 412.011 36.5333 412.011 40.78C412.011 43.64 412.682 45.9583 414.026 47.735C415.412 49.4683 417.146 50.335 419.226 50.335ZM444.917 53V15.43H455.317V26.74H455.447C456.574 22.8833 458.394 19.85 460.907 17.64C463.42 15.43 466.085 14.325 468.902 14.325C471.805 14.325 474.124 15.365 475.857 17.445C477.59 19.4817 478.457 22.385 478.457 26.155H478.652C479.735 22.3417 481.425 19.4167 483.722 17.38C486.019 15.3433 488.51 14.325 491.197 14.325C494.144 14.325 496.57 15.4083 498.477 17.575C500.384 19.7417 501.337 22.775 501.337 26.675V53H490.937V25.635C490.937 23.3383 490.525 21.6267 489.702 20.5C488.922 19.33 487.947 18.745 486.777 18.745C484.957 18.745 483.267 19.8067 481.707 21.93C480.19 24.01 479.172 26.9783 478.652 30.835V53H468.252V25.635C468.252 23.2083 467.819 21.3883 466.952 20.175C466.085 18.9617 465.045 18.355 463.832 18.355C462.575 18.355 461.362 18.875 460.192 19.915C459.022 20.955 458.004 22.4717 457.137 24.465C456.27 26.415 455.664 28.755 455.317 31.485V53H444.917Z" fill="white"/>
</svg>
