<?xml version="1.0" standalone="no"?>
<!DOCTYPE svg PUBLIC "-//W3C//DTD SVG 20010904//EN"
 "http://www.w3.org/TR/2001/REC-SVG-20010904/DTD/svg10.dtd">
<svg version="1.0" xmlns="http://www.w3.org/2000/svg"
 width="225.000000pt" height="225.000000pt" viewBox="0 0 225.000000 225.000000"
 preserveAspectRatio="xMidYMid meet">

<g transform="translate(0.000000,225.000000) scale(0.100000,-0.100000)"
fill="#000000" stroke="none">
<path d="M628 1443 c12 -2 30 -2 40 0 9 3 -1 5 -23 4 -22 0 -30 -2 -17 -4z"/>
<path d="M580 1426 c0 -8 4 -17 9 -20 5 -4 7 3 4 14 -6 23 -13 26 -13 6z"/>
<path d="M684 1426 c-3 -9 -12 -16 -20 -16 -18 0 -18 -26 0 -33 17 -7 15 -35
-4 -47 -17 -11 -40 -2 -40 16 0 12 4 12 20 4 14 -7 20 -7 20 0 0 5 -4 10 -10
10 -5 0 -9 3 -9 8 4 25 -3 42 -18 42 -15 0 -16 -2 -3 -10 13 -9 13 -10 0 -11
-8 -1 -18 -1 -22 0 -5 0 -8 -8 -8 -19 0 -11 5 -20 10 -20 6 0 9 -3 9 -7 -4
-22 3 -33 17 -33 11 0 15 -6 11 -20 -3 -11 -1 -20 4 -20 5 0 9 4 9 8 0 13 49
9 54 -5 6 -16 -6 -17 -21 -2 -8 8 -13 7 -18 -2 -5 -7 -4 -10 2 -6 6 4 17 -1
24 -10 10 -12 10 -14 2 -9 -7 4 -13 2 -13 -3 0 -6 6 -11 13 -11 8 0 7 -3 -3
-10 -16 -10 -33 7 -22 25 3 5 -3 3 -14 -5 -29 -22 -30 -24 -11 -17 9 4 17 2
17 -3 0 -5 -11 -9 -24 -8 -20 2 -22 6 -16 29 5 17 4 32 -3 39 -9 10 -9 11 1 6
6 -4 12 -3 12 3 0 5 -9 12 -19 16 -11 3 -23 19 -26 37 -6 27 -9 29 -17 14 -6
-11 -6 -21 1 -30 16 -20 2 -58 -20 -53 -11 3 -17 1 -13 -4 3 -5 0 -9 -5 -9 -6
0 -11 -5 -11 -12 0 -9 3 -9 12 0 7 7 17 12 23 12 7 0 7 -3 0 -8 -6 -4 -16 -18
-23 -32 -7 -14 -11 -18 -8 -10 6 22 -20 55 -30 39 -4 -7 -2 -15 4 -17 7 -2 10
-8 6 -13 -3 -5 3 -20 14 -34 16 -20 22 -22 31 -12 7 10 7 17 0 24 -8 8 -7 13
2 18 7 5 10 4 6 -1 -8 -13 20 -47 32 -40 5 4 12 2 16 -4 4 -6 11 -8 16 -5 5 4
9 1 9 -5 0 -13 32 -9 42 4 12 18 38 14 52 -6 14 -20 16 -19 37 25 l22 46 -24
20 c-33 26 -38 17 -8 -16 l24 -28 -24 20 c-23 19 -24 19 -17 1 5 -16 4 -17 -9
-6 -9 7 -12 16 -8 19 13 10 14 59 2 67 -8 5 -10 2 -5 -7 4 -8 1 -6 -7 4 -10
12 -17 14 -22 8 -3 -6 -14 -10 -23 -10 -15 1 -15 2 1 6 9 2 18 10 19 16 0 7 2
17 3 22 2 6 3 16 4 23 0 6 4 11 9 10 4 -2 8 0 10 5 5 16 1 19 -13 7 -8 -6 -19
-9 -25 -5 -6 4 -2 13 12 25 13 10 20 22 16 26 -4 4 -10 -1 -14 -10z m-78 -181
c1 -8 -1 -17 -5 -19 -4 -3 -7 6 -7 19 0 25 8 25 12 0z"/>
<path d="M495 1399 c-11 -16 -1 -19 13 -3 7 8 8 14 3 14 -5 0 -13 -5 -16 -11z"/>
<path d="M545 1394 c22 -16 35 -18 35 -5 0 5 -12 11 -27 14 -26 5 -26 4 -8 -9z"/>
<path d="M768 1398 c11 -14 10 -18 -4 -26 -9 -5 -12 -12 -7 -15 5 -3 14 3 21
13 9 15 8 21 -6 32 -15 12 -16 11 -4 -4z"/>
<path d="M919 1378 c12 -16 11 -18 -3 -18 -23 0 -20 -27 4 -40 18 -10 20 -8
20 18 0 16 -8 36 -17 43 -16 13 -17 12 -4 -3z m11 -38 c0 -5 -4 -10 -10 -10
-5 0 -10 5 -10 10 0 6 5 10 10 10 6 0 10 -4 10 -10z"/>
<path d="M990 1378 c6 -7 11 -26 11 -42 1 -24 3 -26 6 -8 2 12 8 22 13 22 5 0
11 -10 13 -22 4 -16 5 -14 4 7 -1 17 3 37 8 45 6 11 3 10 -11 -2 -18 -16 -22
-16 -37 -3 -9 8 -12 10 -7 3z"/>
<path d="M462 1359 c-10 -16 -9 -24 5 -44 10 -13 24 -25 31 -25 8 0 10 -5 6
-12 -4 -7 -3 -9 1 -5 14 12 14 36 0 31 -8 -4 -11 3 -10 20 2 19 -2 26 -13 26
-14 0 -14 2 -3 9 7 5 9 11 4 14 -5 3 -15 -3 -21 -14z m13 -19 c3 -5 1 -10 -4
-10 -6 0 -11 5 -11 10 0 6 2 10 4 10 3 0 8 -4 11 -10z"/>
<path d="M513 1354 c1 -23 5 -30 15 -27 8 4 10 8 4 12 -5 3 -12 15 -15 26 -3
12 -5 7 -4 -11z"/>
<path d="M803 1362 c1 -14 5 -18 11 -12 7 7 6 14 -1 21 -9 9 -12 7 -10 -9z"/>
<path d="M1067 1370 c10 -11 9 -16 -5 -26 -14 -10 -15 -15 -4 -26 11 -11 12
-10 6 5 -8 22 18 19 28 -3 4 -10 7 -7 7 10 1 16 -7 30 -21 39 -17 10 -20 10
-11 1z"/>
<path d="M733 1351 c0 -11 5 -18 9 -15 4 3 5 11 1 19 -7 21 -12 19 -10 -4z"/>
<path d="M700 1347 c0 -9 4 -18 9 -21 5 -4 8 1 7 9 -3 21 -16 31 -16 12z"/>
<path d="M970 1349 c0 -5 5 -7 10 -4 6 3 10 8 10 11 0 2 -4 4 -10 4 -5 0 -10
-5 -10 -11z"/>
<path d="M1123 1353 c9 -2 17 -9 17 -15 0 -5 -7 -8 -15 -4 -8 3 -15 2 -15 -3
0 -5 9 -11 20 -14 16 -4 20 0 20 19 0 19 -5 24 -22 23 -17 -1 -19 -2 -5 -6z"/>
<path d="M1164 1340 c0 -11 4 -20 8 -20 4 0 8 9 8 20 0 11 -4 20 -8 20 -4 0
-8 -9 -8 -20z"/>
<path d="M1241 1344 c0 -11 8 -29 19 -39 11 -10 20 -13 20 -7 0 7 -4 12 -10
12 -5 0 -7 8 -4 18 5 13 4 14 -4 3 -8 -11 -11 -9 -15 10 -4 21 -4 21 -6 3z"/>
<path d="M1300 1345 c-14 -16 -6 -35 16 -35 8 0 14 10 14 25 0 28 -12 32 -30
10z m20 -9 c0 -3 -4 -8 -10 -11 -5 -3 -10 -1 -10 4 0 6 5 11 10 11 6 0 10 -2
10 -4z"/>
<path d="M752 1328 c-16 -16 -16 -41 1 -32 9 5 9 4 0 -6 -9 -10 -10 -17 -2
-27 26 -31 41 7 19 48 -8 13 -7 19 0 19 6 0 14 -8 18 -18 7 -18 8 -18 27 1 17
17 17 19 3 14 -10 -3 -20 -2 -23 3 -8 14 -29 12 -43 -2z"/>
<path d="M950 1328 c0 -10 5 -18 11 -18 5 0 7 -4 4 -10 -3 -5 -2 -10 3 -10 6
0 13 7 16 16 3 8 2 12 -3 9 -6 -3 -14 3 -20 12 -10 17 -10 17 -11 1z"/>
<path d="M1050 1270 c0 -6 -32 -10 -75 -10 -65 0 -75 -2 -75 -17 1 -42 39 -57
41 -15 l1 27 8 -30 8 -30 1 28 c1 20 6 27 21 27 12 0 20 -7 20 -17 0 -15 -2
-16 -10 -3 -8 13 -10 12 -10 -2 0 -10 5 -18 11 -18 5 0 8 -4 4 -9 -3 -5 -1
-13 5 -16 6 -4 10 -3 9 2 -1 4 -1 17 0 28 1 17 3 18 11 5 8 -13 10 -13 10 2 0
9 -6 19 -12 21 -7 3 -3 6 9 6 16 1 23 -6 26 -26 l4 -28 2 28 c1 21 6 27 24 26
16 -1 18 -2 5 -6 -19 -5 -24 -28 -8 -38 6 -3 7 1 4 9 -3 9 -1 16 4 16 6 0 13
-8 15 -17 3 -11 5 -7 6 10 1 29 25 38 35 12 6 -17 -9 -21 -17 -5 -3 6 -4 5 -3
-2 3 -17 48 -17 54 0 2 6 -2 12 -10 13 -7 0 -4 4 7 9 15 6 8 9 -27 9 -26 1
-50 6 -53 11 -3 6 -15 10 -26 10 -10 0 -19 -4 -19 -10z m37 -6 c-3 -3 -12 -4
-19 -1 -8 3 -5 6 6 6 11 1 17 -2 13 -5z m-157 -29 c0 -8 -4 -15 -10 -15 -5 0
-10 7 -10 15 0 8 5 15 10 15 6 0 10 -7 10 -15z"/>
<path d="M1230 1270 c13 -8 13 -10 -2 -10 -12 0 -15 -6 -10 -22 5 -19 7 -20
10 -5 2 11 13 17 29 17 17 0 23 -4 20 -13 -3 -8 -1 -20 4 -28 7 -11 9 -10 10
6 1 11 1 23 0 28 0 4 4 7 10 7 6 0 9 -6 6 -13 -3 -8 -1 -20 4 -28 6 -10 9 -4
9 19 0 30 -2 32 -34 32 -19 0 -38 5 -41 10 -3 6 -12 10 -18 10 -7 0 -6 -4 3
-10z"/>
<path d="M1355 1238 c1 -15 9 -22 25 -23 20 -2 21 0 6 10 -23 17 -20 22 14 23
30 1 43 -21 18 -31 -8 -3 -6 -6 5 -6 11 -1 17 6 17 19 0 30 18 24 23 -7 l4
-28 2 28 c0 15 5 27 11 27 5 0 7 -6 4 -13 -3 -8 3 -20 13 -28 16 -13 17 -12 4
4 -12 15 -11 17 2 17 9 0 18 -8 20 -17 3 -11 5 -7 6 10 0 15 5 27 11 27 5 0 7
-6 4 -14 -3 -8 3 -19 14 -25 17 -9 20 -7 24 19 l5 30 -117 0 c-114 0 -117 -1
-115 -22z m215 -3 c0 -8 -4 -15 -10 -15 -5 0 -7 7 -4 15 4 8 8 15 10 15 2 0 4
-7 4 -15z"/>
<path d="M1380 1166 c0 -2 7 -9 15 -16 9 -7 15 -8 15 -2 0 5 -7 12 -15 16 -8
3 -15 4 -15 2z"/>
<path d="M901 1128 c1 -31 1 -31 8 -8 l7 25 8 -23 c7 -21 26 -22 26 -1 0 6 -4
8 -9 4 -5 -3 -12 4 -16 15 -10 31 -25 24 -24 -12z"/>
<path d="M956 1151 c-4 -5 -2 -20 3 -33 9 -21 10 -21 10 10 1 32 -3 39 -13 23z"/>
<path d="M992 1130 c0 -19 2 -27 5 -17 2 9 2 25 0 35 -3 9 -5 1 -5 -18z"/>
<path d="M1061 1142 c-1 -16 -5 -21 -13 -16 -8 5 -7 0 2 -11 13 -16 15 -16 18
-2 2 10 1 25 -1 35 -3 12 -5 11 -6 -6z"/>
<path d="M1092 1130 c0 -19 2 -27 5 -17 2 9 2 25 0 35 -3 9 -5 1 -5 -18z"/>
<path d="M1110 1154 c0 -3 9 -17 20 -31 11 -14 20 -21 20 -14 0 6 -9 20 -20
31 -11 11 -20 17 -20 14z"/>
<path d="M1182 1130 c0 -19 2 -27 5 -17 2 9 2 25 0 35 -3 9 -5 1 -5 -18z"/>
<path d="M1242 1135 c-1 -13 2 -26 6 -29 4 -2 7 6 7 20 -2 32 -10 39 -13 9z"/>
<path d="M1293 1145 c-7 -8 -9 -16 -4 -19 5 -3 12 1 15 10 8 22 4 25 -11 9z"/>
<path d="M1357 1153 c-9 -9 -9 -41 1 -46 4 -3 7 8 7 24 0 16 0 29 -1 29 0 0
-4 -3 -7 -7z"/>
<path d="M581 1133 c0 -12 -6 -34 -13 -48 -10 -21 -9 -29 5 -43 16 -15 17 -15
17 1 0 9 -5 17 -10 17 -7 0 -7 7 0 20 6 12 9 33 7 48 -3 21 -4 22 -6 5z"/>
<path d="M611 1125 c1 -19 18 -51 18 -35 0 8 -4 22 -9 30 -5 8 -9 11 -9 5z"/>
<path d="M1396 1113 c-6 -14 -5 -15 5 -6 7 7 10 15 7 18 -3 3 -9 -2 -12 -12z"/>
<path d="M650 1113 c0 -5 5 -15 10 -23 8 -12 10 -11 10 8 0 12 -4 22 -10 22
-5 0 -10 -3 -10 -7z"/>
<path d="M680 1105 c0 -8 4 -15 10 -15 5 0 9 -11 8 -24 -1 -14 -6 -22 -10 -20
-4 3 -8 1 -8 -3 0 -5 -11 -10 -25 -11 -19 -1 -25 3 -25 18 0 11 -5 20 -11 20
-6 0 -9 -6 -6 -13 3 -7 -3 -18 -13 -25 -14 -9 -22 -6 -38 11 -11 12 -22 31
-25 42 -4 19 -5 19 -6 -1 0 -12 -8 -25 -17 -28 -9 -4 -14 -9 -10 -13 3 -3 -1
-14 -9 -23 -25 -28 -24 -97 3 -107 9 -4 23 -13 30 -20 9 -9 45 -13 115 -13
110 0 123 6 157 70 12 23 12 24 -3 11 -10 -7 -17 -10 -18 -5 0 5 -4 -1 -9 -13
-5 -13 -14 -23 -19 -23 -12 0 -36 36 -46 68 -5 16 -2 22 9 22 9 0 16 -6 16
-12 0 -9 3 -8 10 2 7 12 11 10 19 -10 5 -14 10 -19 10 -11 1 7 7 11 16 7 18
-7 18 -4 3 29 -9 20 -17 25 -34 21 -20 -5 -26 1 -43 39 -20 46 -31 56 -31 30z
m-130 -65 c0 -5 -6 -10 -14 -10 -8 0 -18 5 -21 10 -3 6 3 10 14 10 12 0 21 -4
21 -10z m122 -37 c25 -23 23 -50 -7 -69 -24 -16 -27 -16 -45 1 -26 24 -25 50
2 69 28 20 27 20 50 -1z m-82 -6 c0 -7 -5 -18 -12 -25 -7 -7 -8 -12 -2 -12 6
0 16 -11 22 -25 11 -23 10 -25 -11 -21 -12 3 -39 8 -59 11 -36 6 -53 24 -25
26 10 0 10 2 0 6 -7 2 -13 11 -13 19 0 9 5 12 10 9 6 -3 10 1 10 9 0 12 10 16
40 16 26 0 40 -4 40 -13z m130 -69 c0 -5 -9 -8 -20 -8 -18 0 -19 3 -8 20 9 14
14 16 20 7 4 -7 8 -15 8 -19z m-66 -26 c2 -4 -4 -8 -15 -8 -10 0 -19 4 -19 8
0 10 27 10 34 0z"/>
<path d="M635 980 c-4 -6 -3 -16 3 -22 6 -6 12 -6 17 2 4 6 3 16 -3 22 -6 6
-12 6 -17 -2z"/>
<path d="M520 946 c0 -2 11 -6 25 -8 13 -3 22 -1 19 3 -5 9 -44 13 -44 5z"/>
<path d="M655 1059 c-9 -14 -2 -20 14 -10 8 6 9 11 3 15 -6 3 -14 1 -17 -5z"/>
<path d="M900 1035 c0 -41 3 -42 37 -11 29 27 24 46 -13 46 -21 0 -24 -5 -24
-35z m40 16 c0 -6 -4 -13 -10 -16 -5 -3 -10 1 -10 9 0 9 5 16 10 16 6 0 10 -4
10 -9z"/>
<path d="M970 1035 c0 -30 3 -35 23 -35 18 0 19 2 7 10 -12 8 -13 11 -1 19 11
7 11 9 0 14 -12 4 -11 7 1 16 12 9 11 11 -7 11 -20 0 -23 -5 -23 -35z"/>
<path d="M1028 1063 c6 -2 12 -18 12 -34 0 -16 5 -29 10 -29 6 0 10 13 10 29
0 16 6 32 13 34 6 3 -4 5 -23 5 -19 0 -29 -2 -22 -5z"/>
<path d="M1090 1035 c0 -19 5 -35 10 -35 6 0 10 5 10 12 0 9 3 9 12 0 16 -16
31 -15 21 1 -4 6 -6 22 -4 35 2 18 -2 22 -23 22 -23 0 -26 -4 -26 -35z m40 15
c0 -5 -4 -10 -10 -10 -5 0 -10 5 -10 10 0 6 5 10 10 10 6 0 10 -4 10 -10z"/>
<path d="M1164 1056 c-12 -31 0 -51 31 -51 27 0 30 3 30 30 0 25 -4 30 -28 33
-17 2 -29 -2 -33 -12z m46 -27 c0 -10 -7 -19 -15 -19 -15 0 -21 31 -9 43 11
10 24 -3 24 -24z"/>
<path d="M1248 1035 c3 -28 8 -35 26 -34 16 1 17 2 4 6 -12 3 -18 14 -18 34 0
16 -4 29 -8 29 -4 0 -6 -16 -4 -35z"/>
<path d="M1300 1035 c0 -30 3 -35 23 -35 18 0 19 2 7 10 -12 8 -13 11 -1 19
11 7 11 9 0 14 -12 4 -11 7 1 16 12 9 11 11 -7 11 -20 0 -23 -5 -23 -35z"/>
<path d="M1361 1037 c-1 -36 1 -38 27 -35 22 2 28 8 30 36 2 18 -1 32 -7 32
-6 0 -11 -14 -11 -31 0 -39 -22 -34 -31 7 -6 27 -7 26 -8 -9z"/>
<path d="M1441 1033 c1 -33 2 -35 8 -13 l7 25 8 -22 c4 -13 11 -23 16 -23 5 0
12 10 16 23 l8 22 7 -25 c6 -22 7 -20 8 13 1 39 -17 51 -26 17 -3 -11 -9 -20
-13 -20 -4 0 -10 9 -13 20 -9 34 -27 22 -26 -17z"/>
<path d="M1580 1044 c-14 -37 -13 -39 20 -39 17 0 30 3 30 7 0 18 -21 58 -30
58 -6 0 -15 -12 -20 -26z m30 -14 c0 -5 -4 -10 -10 -10 -5 0 -10 5 -10 10 0 6
5 10 10 10 6 0 10 -4 10 -10z"/>
<path d="M1651 1033 c1 -33 2 -35 8 -13 l7 25 15 -22 c20 -33 29 -28 28 15 -1
32 -2 34 -8 12 l-7 -25 -12 23 c-19 33 -32 27 -31 -15z"/>
<path d="M1730 1036 c0 -33 2 -36 30 -36 55 0 51 62 -4 68 -24 3 -26 0 -26
-32z m48 -4 c2 -15 -2 -22 -12 -22 -11 0 -16 9 -16 26 0 31 23 28 28 -4z"/>
<path d="M900 930 c0 -22 5 -40 10 -40 6 0 10 12 10 28 l1 27 17 -27 c23 -39
32 -35 31 15 -1 37 -2 39 -8 12 l-6 -29 -18 27 c-25 38 -37 34 -37 -13z"/>
<path d="M999 943 c-5 -16 -12 -34 -14 -40 -2 -7 0 -13 4 -13 5 0 11 6 14 13
3 9 9 9 26 -1 24 -14 26 -8 10 37 -13 38 -26 40 -40 4z m25 -8 c3 -8 1 -15 -4
-15 -6 0 -10 7 -10 15 0 8 2 15 4 15 2 0 6 -7 10 -15z"/>
<path d="M1068 963 c6 -2 12 -20 12 -39 0 -21 4 -33 10 -29 6 3 10 19 10 35 0
15 6 31 13 33 6 3 -4 5 -23 5 -19 0 -29 -2 -22 -5z"/>
<path d="M1131 937 c-1 -41 19 -58 44 -37 17 14 21 70 5 70 -5 0 -10 -14 -10
-31 0 -39 -22 -34 -31 7 -6 27 -7 27 -8 -9z"/>
<path d="M1211 928 c1 -24 3 -35 6 -25 6 21 19 22 27 2 7 -18 43 -20 49 -2 3
9 9 9 26 -1 24 -14 26 -8 10 37 -14 41 -25 39 -44 -6 -17 -40 -27 -38 -29 4
-1 21 -7 29 -23 31 -21 3 -23 0 -22 -40z m29 16 c0 -8 -4 -12 -10 -9 -5 3 -10
10 -10 16 0 5 5 9 10 9 6 0 10 -7 10 -16z m67 -16 c-3 -8 -6 -5 -6 6 -1 11 2
17 5 13 3 -3 4 -12 1 -19z"/>
<path d="M1362 933 c-2 -37 1 -43 18 -43 11 0 20 5 20 10 0 6 -6 10 -14 10 -9
0 -16 13 -19 33 -3 28 -4 26 -5 -10z"/>
<path d="M1453 963 c-21 -8 -16 -61 7 -68 11 -3 24 -3 30 0 16 10 12 45 -5 45
-18 0 -20 -16 -2 -23 7 -3 6 -6 -5 -6 -9 -1 -20 4 -23 9 -9 15 15 42 32 36 7
-3 13 -1 13 4 0 10 -26 12 -47 3z"/>
<path d="M1525 933 c-15 -36 -12 -60 5 -33 8 12 13 13 30 2 23 -14 24 -8 9 37
-14 41 -25 39 -44 -6z m22 -5 c-3 -8 -6 -5 -6 6 -1 11 2 17 5 13 3 -3 4 -12 1
-19z"/>
<path d="M1595 959 c-4 -5 0 -18 9 -28 21 -23 20 -32 -1 -24 -14 5 -16 3 -6
-7 15 -16 43 -6 43 15 0 9 -7 18 -15 21 -20 8 -19 21 3 27 13 4 12 5 -5 6 -12
0 -25 -4 -28 -10z"/>
<path d="M609 828 c4 -28 6 -29 9 -9 2 13 0 27 -5 32 -6 6 -7 -3 -4 -23z"/>
<path d="M783 848 c3 -9 1 -19 -6 -22 -9 -3 -9 -5 0 -5 18 -1 27 19 13 32 -10
9 -12 8 -7 -5z"/>
<path d="M485 829 c-3 -3 4 -9 15 -12 12 -3 20 0 20 7 0 13 -28 18 -35 5z"/>
<path d="M543 833 c-20 -8 -15 -19 10 -20 12 0 16 1 9 4 -6 3 -10 9 -6 14 6
10 5 10 -13 2z"/>
<path d="M591 824 c0 -11 3 -14 6 -6 3 7 2 16 -1 19 -3 4 -6 -2 -5 -13z"/>
<path d="M705 830 c-4 -6 -11 -8 -16 -5 -5 4 -9 1 -9 -4 0 -6 9 -11 20 -11 11
0 20 7 20 15 0 17 -6 19 -15 5z"/>
<path d="M730 825 c0 -8 4 -15 10 -15 5 0 7 7 4 15 -4 8 -8 15 -10 15 -2 0 -4
-7 -4 -15z"/>
</g>
</svg>
