<svg width="329" height="49" viewBox="0 0 329 49" fill="none" xmlns="http://www.w3.org/2000/svg">
<path d="M23.48 48.04C18.41 48.04 14.12 47 10.61 44.92C7.14333 42.84 4.54333 40.0233 2.81 36.47C1.12 32.9167 0.275 28.8867 0.275 24.38C0.275 16.7533 2.20333 10.8383 6.06 6.635C9.96 2.43166 15.7667 0.329996 23.48 0.329996C31.1933 0.329996 36.9783 2.43166 40.835 6.635C44.735 10.8383 46.685 16.7533 46.685 24.38C46.685 28.8867 45.8183 32.9167 44.085 36.47C42.395 40.0233 39.795 42.84 36.285 44.92C32.8183 47 28.55 48.04 23.48 48.04ZM23.48 46.935C28.03 46.935 31.3017 44.8767 33.295 40.76C35.2883 36.6 36.285 31.14 36.285 24.38C36.285 17.6633 35.2667 12.16 33.23 7.87C31.2367 3.58 27.9867 1.435 23.48 1.435C14.9433 1.435 10.675 9.08333 10.675 24.38C10.675 31.01 11.715 36.4267 13.795 40.63C15.875 44.8333 19.1033 46.935 23.48 46.935ZM63.5921 48.04C61.5121 48.04 59.5838 47.585 57.8071 46.675C56.0304 45.7217 54.6004 44.335 53.5171 42.515C52.4771 40.695 51.9571 38.5067 51.9571 35.95V9.43H62.3571V40.63C62.3571 42.3633 62.7254 43.685 63.4621 44.595C64.2421 45.4617 65.2604 45.895 66.5171 45.895C67.9471 45.895 69.4421 45.2667 71.0021 44.01C72.6054 42.7533 74.0138 40.9983 75.2271 38.745C76.4404 36.4483 77.2854 33.8917 77.7621 31.075V9.43H88.1621V47H77.7621V35.69H77.5671C76.1804 39.6767 74.2521 42.7317 71.7821 44.855C69.3121 46.9783 66.5821 48.04 63.5921 48.04ZM95.0653 47V9.43H105.465V27.37H105.53C106.397 23.73 107.589 20.5017 109.105 17.685C110.665 14.825 112.464 12.5933 114.5 10.99C116.537 9.34333 118.682 8.52 120.935 8.52C122.192 8.52 123.535 8.82333 124.965 9.43L123.86 15.93C121.997 15.0633 120.177 14.63 118.4 14.63C115.324 14.63 112.702 16.0167 110.535 18.79C108.369 21.52 106.679 25.4417 105.465 30.555V47H95.0653ZM214.694 1.37L199.029 47H188.629L179.399 20.155L170.169 47H159.769L144.104 1.37H154.504L169.584 45.31L178.814 18.465L172.964 1.37H183.364L198.444 45.31L205.789 23.99C207.739 18.4 208.714 13.0917 208.714 8.065C208.714 6.02833 208.54 3.79666 208.194 1.37H214.694ZM234.205 48.105C230.132 48.105 226.578 47.3467 223.545 45.83C220.512 44.27 218.172 42.0167 216.525 39.07C214.878 36.1233 214.055 32.5917 214.055 28.475C214.055 24.2717 214.878 20.675 216.525 17.685C218.172 14.6517 220.512 12.355 223.545 10.795C226.578 9.19166 230.132 8.39 234.205 8.39C238.235 8.39 241.745 9.19166 244.735 10.795C247.768 12.355 250.108 14.6517 251.755 17.685C253.402 20.675 254.225 24.2717 254.225 28.475C254.225 32.5917 253.402 36.1233 251.755 39.07C250.108 42.0167 247.768 44.27 244.735 45.83C241.745 47.3467 238.235 48.105 234.205 48.105ZM234.205 46.935C236.285 46.935 238.105 46.0467 239.665 44.27C241.225 42.45 242.417 40.1317 243.24 37.315C244.063 34.455 244.475 31.5083 244.475 28.475C244.475 25.615 244.063 22.7117 243.24 19.765C242.417 16.8183 241.225 14.37 239.665 12.42C238.105 10.47 236.285 9.495 234.205 9.495C232.038 9.495 230.175 10.47 228.615 12.42C227.055 14.3267 225.863 16.7533 225.04 19.7C224.26 22.6467 223.87 25.5717 223.87 28.475C223.87 31.5517 224.26 34.4983 225.04 37.315C225.863 40.1317 227.055 42.45 228.615 44.27C230.175 46.0467 232.038 46.935 234.205 46.935ZM259.216 47V9.43H269.616V27.37H269.681C270.547 23.73 271.739 20.5017 273.256 17.685C274.816 14.825 276.614 12.5933 278.651 10.99C280.687 9.34333 282.832 8.52 285.086 8.52C286.342 8.52 287.686 8.82333 289.116 9.43L288.011 15.93C286.147 15.0633 284.327 14.63 282.551 14.63C279.474 14.63 276.852 16.0167 274.686 18.79C272.519 21.52 270.829 25.4417 269.616 30.555V47H259.216ZM292.858 47V1.37H303.258V22.885L326.593 9.82V16.255C325.9 16.1683 325.337 16.125 324.903 16.125C322.26 16.125 319.118 16.775 315.478 18.075C311.838 19.375 308.892 20.6967 306.638 22.04V22.235C308.285 21.6283 309.997 21.325 311.773 21.325C313.68 21.325 315.348 21.7367 316.778 22.56C318.208 23.34 319.227 24.4667 319.833 25.94L328.803 47H318.403L309.368 26.265C308.632 24.6617 307.462 23.86 305.858 23.86C305.078 23.86 304.212 24.0333 303.258 24.38V47H292.858Z" fill="white"/>
</svg>
