<svg width="134" height="24" viewBox="0 0 134 24" fill="none" xmlns="http://www.w3.org/2000/svg">
<path d="M10.82 23.21C8.88 23.21 7.12 22.76 5.54 21.86C3.96 20.94 2.71 19.67 1.79 18.05C0.89 16.41 0.44 14.56 0.44 12.5C0.44 10.44 0.89 8.6 1.79 6.98C2.71 5.34 3.96 4.07 5.54 3.17C7.12 2.25 8.88 1.79 10.82 1.79C12.78 1.79 14.55 2.25 16.13 3.17C17.71 4.07 18.95 5.34 19.85 6.98C20.75 8.6 21.2 10.44 21.2 12.5C21.2 14.56 20.75 16.41 19.85 18.05C18.95 19.67 17.71 20.94 16.13 21.86C14.55 22.76 12.78 23.21 10.82 23.21ZM10.82 21.38C12.38 21.38 13.78 21.02 15.02 20.3C16.26 19.58 17.24 18.55 17.96 17.21C18.68 15.85 19.04 14.28 19.04 12.5C19.04 10.72 18.68 9.16 17.96 7.82C17.24 6.48 16.26 5.45 15.02 4.73C13.78 4.01 12.38 3.65 10.82 3.65C9.26 3.65 7.86 4.01 6.62 4.73C5.38 5.45 4.4 6.48 3.68 7.82C2.96 9.16 2.6 10.72 2.6 12.5C2.6 14.28 2.96 15.85 3.68 17.21C4.4 18.55 5.38 19.58 6.62 20.3C7.86 21.02 9.26 21.38 10.82 21.38ZM39.2326 6.62V23H37.1326V20.12C36.6526 21.14 35.9126 21.92 34.9126 22.46C33.9126 23 32.7926 23.27 31.5526 23.27C29.5926 23.27 27.9926 22.67 26.7526 21.47C25.5126 20.25 24.8926 18.49 24.8926 16.19V6.62H26.9626V15.95C26.9626 17.73 27.4026 19.09 28.2826 20.03C29.1826 20.97 30.4026 21.44 31.9426 21.44C33.5226 21.44 34.7826 20.94 35.7226 19.94C36.6626 18.94 37.1326 17.47 37.1326 15.53V6.62H39.2326ZM46.127 9.53C46.587 8.51 47.287 7.72 48.227 7.16C49.187 6.6 50.357 6.32 51.737 6.32V8.51H51.167C49.647 8.51 48.427 8.92 47.507 9.74C46.587 10.56 46.127 11.93 46.127 13.85V23H44.027V6.62H46.127V9.53ZM88.5685 2.03L82.6285 23H80.2885L75.0085 5.12L69.6085 23L67.3285 23.03L61.5085 2.03H63.7585L68.5585 20.42L73.9285 2.03H76.2685L81.4885 20.42L86.3185 2.03H88.5685ZM98.9509 23.24C97.4109 23.24 96.0209 22.9 94.7809 22.22C93.5609 21.52 92.5909 20.54 91.8709 19.28C91.1709 18 90.8209 16.51 90.8209 14.81C90.8209 13.11 91.1809 11.63 91.9009 10.37C92.6209 9.09 93.6009 8.11 94.8409 7.43C96.0809 6.73 97.4709 6.38 99.0109 6.38C100.551 6.38 101.941 6.73 103.181 7.43C104.441 8.11 105.421 9.09 106.121 10.37C106.841 11.63 107.201 13.11 107.201 14.81C107.201 16.49 106.841 17.97 106.121 19.25C105.401 20.53 104.411 21.52 103.151 22.22C101.891 22.9 100.491 23.24 98.9509 23.24ZM98.9509 21.41C100.031 21.41 101.031 21.17 101.951 20.69C102.871 20.19 103.611 19.45 104.171 18.47C104.751 17.47 105.041 16.25 105.041 14.81C105.041 13.37 104.761 12.16 104.201 11.18C103.641 10.18 102.901 9.44 101.981 8.96C101.061 8.46 100.061 8.21 98.9809 8.21C97.9009 8.21 96.9009 8.46 95.9809 8.96C95.0609 9.44 94.3209 10.18 93.7609 11.18C93.2209 12.16 92.9509 13.37 92.9509 14.81C92.9509 16.25 93.2209 17.47 93.7609 18.47C94.3209 19.45 95.0509 20.19 95.9509 20.69C96.8709 21.17 97.8709 21.41 98.9509 21.41ZM113.129 9.53C113.589 8.51 114.289 7.72 115.229 7.16C116.189 6.6 117.359 6.32 118.739 6.32V8.51H118.169C116.649 8.51 115.429 8.92 114.509 9.74C113.589 10.56 113.129 11.93 113.129 13.85V23H111.029V6.62H113.129V9.53ZM130.748 23L123.998 15.65V23H121.898V0.8H123.998V13.94L130.598 6.62H133.538L125.768 14.78L133.598 23H130.748Z" fill="white"/>
</svg>
