<svg width="254" height="37" viewBox="0 0 254 37" fill="none" xmlns="http://www.w3.org/2000/svg">
<path d="M18.6 36.8C14.7 36.8 11.4 36 8.7 34.4C6.03333 32.8 4.03333 30.6333 2.7 27.9C1.4 25.1667 0.75 22.0667 0.75 18.6C0.75 12.7333 2.23333 8.18333 5.2 4.95C8.2 1.71666 12.6667 0.0999973 18.6 0.0999973C24.5333 0.0999973 28.9833 1.71666 31.95 4.95C34.95 8.18333 36.45 12.7333 36.45 18.6C36.45 22.0667 35.7833 25.1667 34.45 27.9C33.15 30.6333 31.15 32.8 28.45 34.4C25.7833 36 22.5 36.8 18.6 36.8ZM18.6 35.95C22.1 35.95 24.6167 34.3667 26.15 31.2C27.6833 28 28.45 23.8 28.45 18.6C28.45 13.4333 27.6667 9.2 26.1 5.9C24.5667 2.6 22.0667 0.949998 18.6 0.949998C12.0333 0.949998 8.75 6.83333 8.75 18.6C8.75 23.7 9.55 27.8667 11.15 31.1C12.75 34.3333 15.2333 35.95 18.6 35.95ZM49.4555 36.8C47.8555 36.8 46.3721 36.45 45.0055 35.75C43.6388 35.0167 42.5388 33.95 41.7055 32.55C40.9055 31.15 40.5055 29.4667 40.5055 27.5V7.1H48.5055V31.1C48.5055 32.4333 48.7888 33.45 49.3555 34.15C49.9555 34.8167 50.7388 35.15 51.7055 35.15C52.8055 35.15 53.9555 34.6667 55.1555 33.7C56.3888 32.7333 57.4721 31.3833 58.4055 29.65C59.3388 27.8833 59.9888 25.9167 60.3555 23.75V7.1H68.3555V36H60.3555V27.3H60.2055C59.1388 30.3667 57.6555 32.7167 55.7555 34.35C53.8555 35.9833 51.7555 36.8 49.4555 36.8ZM73.6656 36V7.1H81.6656V20.9H81.7156C82.3823 18.1 83.299 15.6167 84.4656 13.45C85.6656 11.25 87.049 9.53333 88.6156 8.3C90.1823 7.03333 91.8323 6.4 93.5656 6.4C94.5323 6.4 95.5656 6.63333 96.6656 7.1L95.8156 12.1C94.3823 11.4333 92.9823 11.1 91.6156 11.1C89.249 11.1 87.2323 12.1667 85.5656 14.3C83.899 16.4 82.599 19.4167 81.6656 23.35V36H73.6656ZM165.688 0.899999L153.638 36H145.638L138.538 15.35L131.438 36H123.438L111.388 0.899999H119.388L130.988 34.7L138.088 14.05L133.588 0.899999H141.588L153.188 34.7L158.838 18.3C160.338 14 161.088 9.91667 161.088 6.05C161.088 4.48333 160.954 2.76667 160.688 0.899999H165.688ZM180.696 36.85C177.563 36.85 174.829 36.2667 172.496 35.1C170.163 33.9 168.363 32.1667 167.096 29.9C165.829 27.6333 165.196 24.9167 165.196 21.75C165.196 18.5167 165.829 15.75 167.096 13.45C168.363 11.1167 170.163 9.35 172.496 8.15C174.829 6.91666 177.563 6.3 180.696 6.3C183.796 6.3 186.496 6.91666 188.796 8.15C191.129 9.35 192.929 11.1167 194.196 13.45C195.463 15.75 196.096 18.5167 196.096 21.75C196.096 24.9167 195.463 27.6333 194.196 29.9C192.929 32.1667 191.129 33.9 188.796 35.1C186.496 36.2667 183.796 36.85 180.696 36.85ZM180.696 35.95C182.296 35.95 183.696 35.2667 184.896 33.9C186.096 32.5 187.013 30.7167 187.646 28.55C188.279 26.35 188.596 24.0833 188.596 21.75C188.596 19.55 188.279 17.3167 187.646 15.05C187.013 12.7833 186.096 10.9 184.896 9.4C183.696 7.9 182.296 7.15 180.696 7.15C179.029 7.15 177.596 7.9 176.396 9.4C175.196 10.8667 174.279 12.7333 173.646 15C173.046 17.2667 172.746 19.5167 172.746 21.75C172.746 24.1167 173.046 26.3833 173.646 28.55C174.279 30.7167 175.196 32.5 176.396 33.9C177.596 35.2667 179.029 35.95 180.696 35.95ZM199.935 36V7.1H207.935V20.9H207.985C208.652 18.1 209.568 15.6167 210.735 13.45C211.935 11.25 213.318 9.53333 214.885 8.3C216.452 7.03333 218.102 6.4 219.835 6.4C220.802 6.4 221.835 6.63333 222.935 7.1L222.085 12.1C220.652 11.4333 219.252 11.1 217.885 11.1C215.518 11.1 213.502 12.1667 211.835 14.3C210.168 16.4 208.868 19.4167 207.935 23.35V36H199.935ZM225.814 36V0.899999H233.814V17.45L251.764 7.4V12.35C251.231 12.2833 250.797 12.25 250.464 12.25C248.431 12.25 246.014 12.75 243.214 13.75C240.414 14.75 238.147 15.7667 236.414 16.8V16.95C237.681 16.4833 238.997 16.25 240.364 16.25C241.831 16.25 243.114 16.5667 244.214 17.2C245.314 17.8 246.097 18.6667 246.564 19.8L253.464 36H245.464L238.514 20.05C237.947 18.8167 237.047 18.2 235.814 18.2C235.214 18.2 234.547 18.3333 233.814 18.6V36H225.814Z" fill="white"/>
</svg>
