<svg width="449" height="163" viewBox="0 0 449 163" fill="none" xmlns="http://www.w3.org/2000/svg">
<path d="M0.25 62V2.33H29.065C33.0317 2.33 36.3467 3.06666 39.01 4.54C41.73 5.95666 43.7417 7.79833 45.045 10.065C46.3483 12.275 47 14.57 47 16.95C47 21.03 45.9233 24.345 43.77 26.895C41.6167 29.3883 38.8967 30.805 35.61 31.145V31.485C39.8033 31.8817 43.4017 33.2133 46.405 35.48C49.4083 37.7467 50.91 40.8067 50.91 44.66C50.91 47.6067 50.1733 50.4117 48.7 53.075C47.2267 55.6817 44.9883 57.835 41.985 59.535C38.9817 61.1783 35.3267 62 31.02 62H0.25ZM24.56 30.72C26.2033 30.72 27.79 30.21 29.32 29.19C30.9067 28.1133 32.1817 26.555 33.145 24.515C34.1083 22.475 34.59 20.0667 34.59 17.29C34.59 15.1367 34.1367 13.04 33.23 11C32.38 8.90333 31.0767 7.175 29.32 5.815C27.62 4.455 25.5517 3.77499 23.115 3.77499H13.85V30.72H24.56ZM23.285 60.47C26.175 60.47 28.6683 59.7333 30.765 58.26C32.9183 56.7867 34.5333 54.9167 35.61 52.65C36.7433 50.3267 37.31 48.0033 37.31 45.68C37.31 42.5633 36.6583 40.0133 35.355 38.03C34.0517 35.99 32.4367 34.5167 30.51 33.61C28.5833 32.7033 26.6 32.25 24.56 32.25H13.85V60.47H23.285ZM72.6195 60.47C81.0629 60.47 87.6929 60.0167 92.5095 59.11C97.3829 58.1467 102.086 56.2767 106.62 53.5V62H59.0195V2.33H105.345V10.83C100.981 8.22333 96.4479 6.41 91.7445 5.39C87.0412 4.31333 80.6662 3.77499 72.6195 3.77499V27.66H100.075V29.19H72.6195V60.47ZM112.394 62V2.33H125.994V60.555C132.397 60.555 137.667 60.045 141.804 59.025C145.997 58.005 150.389 56.1633 154.979 53.5V62H112.394ZM162.779 62V2.33H176.379V60.555C182.783 60.555 188.053 60.045 192.189 59.025C196.383 58.005 200.774 56.1633 205.364 53.5V62H162.779ZM213.165 62V2.33H241.98C245.947 2.33 249.262 3.06666 251.925 4.54C254.645 5.95666 256.657 7.79833 257.96 10.065C259.263 12.275 259.915 14.57 259.915 16.95C259.915 21.03 258.838 24.345 256.685 26.895C254.532 29.3883 251.812 30.805 248.525 31.145V31.485C252.718 31.8817 256.317 33.2133 259.32 35.48C262.323 37.7467 263.825 40.8067 263.825 44.66C263.825 47.6067 263.088 50.4117 261.615 53.075C260.142 55.6817 257.903 57.835 254.9 59.535C251.897 61.1783 248.242 62 243.935 62H213.165ZM237.475 30.72C239.118 30.72 240.705 30.21 242.235 29.19C243.822 28.1133 245.097 26.555 246.06 24.515C247.023 22.475 247.505 20.0667 247.505 17.29C247.505 15.1367 247.052 13.04 246.145 11C245.295 8.90333 243.992 7.175 242.235 5.815C240.535 4.455 238.467 3.77499 236.03 3.77499H226.765V30.72H237.475ZM236.2 60.47C239.09 60.47 241.583 59.7333 243.68 58.26C245.833 56.7867 247.448 54.9167 248.525 52.65C249.658 50.3267 250.225 48.0033 250.225 45.68C250.225 42.5633 249.573 40.0133 248.27 38.03C246.967 35.99 245.352 34.5167 243.425 33.61C241.498 32.7033 239.515 32.25 237.475 32.25H226.765V60.47H236.2ZM298.929 63.36C292.299 63.36 286.689 62 282.099 59.28C277.566 56.56 274.166 52.8767 271.899 48.23C269.689 43.5833 268.584 38.3133 268.584 32.42C268.584 22.4467 271.106 14.7117 276.149 9.215C281.249 3.71833 288.843 0.969995 298.929 0.969995C309.016 0.969995 316.581 3.71833 321.624 9.215C326.724 14.7117 329.274 22.4467 329.274 32.42C329.274 38.3133 328.141 43.5833 325.874 48.23C323.664 52.8767 320.264 56.56 315.674 59.28C311.141 62 305.559 63.36 298.929 63.36ZM298.929 61.915C304.879 61.915 309.158 59.2233 311.764 53.84C314.371 48.4 315.674 41.26 315.674 32.42C315.674 23.6367 314.343 16.44 311.679 10.83C309.073 5.22 304.823 2.415 298.929 2.415C287.766 2.415 282.184 12.4167 282.184 32.42C282.184 41.09 283.544 48.1733 286.264 53.67C288.984 59.1667 293.206 61.915 298.929 61.915ZM379.276 2.33L361.936 35.48V62H348.336V35.48L330.996 2.33H344.596L361.171 34.12L369.671 17.8C370.975 15.1933 371.626 12.4167 371.626 9.47C371.626 7.71333 371.343 5.33333 370.776 2.33H379.276ZM411.778 63.275C403.731 63.275 395.288 61.7733 386.448 58.77L387.043 50.27C392.143 54.01 396.959 56.7867 401.493 58.6C406.026 60.4133 410.078 61.32 413.648 61.32C416.254 61.32 418.578 60.8667 420.618 59.96C422.714 58.9967 424.329 57.7217 425.463 56.135C426.596 54.4917 427.163 52.7067 427.163 50.78C427.163 49.59 426.964 48.485 426.568 47.465C425.604 44.745 423.479 42.3367 420.193 40.24C416.906 38.1433 412.316 35.7633 406.423 33.1C401.833 31.0033 398.149 29.19 395.373 27.66C392.653 26.13 390.358 24.3733 388.488 22.39C386.618 20.4067 385.683 18.1967 385.683 15.76C385.683 10.9433 388.233 7.26 393.333 4.71C398.489 2.16 405.006 0.884996 412.883 0.884996C420.136 0.884996 427.786 2.01833 435.833 4.285L435.153 12.785C430.223 9.49833 425.491 7.005 420.958 5.305C416.424 3.605 412.514 2.755 409.228 2.755C405.204 2.755 401.974 3.40666 399.538 4.71C397.101 5.95667 395.911 7.96833 395.968 10.745C396.024 12.785 397.441 14.74 400.218 16.61C403.051 18.4233 407.358 20.69 413.138 23.41C418.464 25.9033 422.828 28.1133 426.228 30.04C429.628 31.9667 432.546 34.2333 434.983 36.84C437.419 39.4467 438.666 42.3083 438.723 45.425C438.836 49.165 437.788 52.395 435.578 55.115C433.368 57.7783 430.194 59.8183 426.058 61.235C421.978 62.595 417.218 63.275 411.778 63.275ZM5.75 161H0.55V115.37H16.215C28.37 115.37 32.595 121.61 32.595 127.98C32.595 135.39 26.42 140.85 15.305 141.175H5.75V161ZM5.75 116.15V140.395H12.835C24.08 140.395 27.85 134.155 27.85 128.175C27.85 122.325 24.21 116.15 13.29 116.15H5.75ZM63.8209 142.475L72.9209 161H67.7209L58.1659 142.15C57.3859 140.655 56.1509 139.81 54.3959 139.81C52.1859 139.81 48.5459 141.5 45.2959 144.555V161H40.0959V115.37H57.4509C66.7459 115.37 70.9059 120.83 70.9059 126.55C70.9059 132.075 67.3959 138.12 60.1809 139.29C62.0659 140.005 63.0409 140.915 63.8209 142.475ZM56.9309 138.575C63.0409 138.965 66.3559 133.18 66.3559 127.59C66.3559 121.675 62.4559 116.15 54.1359 116.15H45.2959V143.71C48.9359 140.655 53.0309 138.38 56.9309 138.575ZM98.764 162.105C85.114 162.105 78.159 151.055 78.159 138.315C78.159 124.925 85.114 114.265 98.764 114.265C112.414 114.265 119.369 124.925 119.369 138.315C119.369 151.055 112.414 162.105 98.764 162.105ZM98.764 161.26C110.139 161.26 114.169 149.43 114.169 138.315C114.169 127.2 110.139 115.11 98.764 115.11C87.194 115.11 83.359 127.2 83.359 138.315C83.359 149.43 87.519 161.26 98.764 161.26ZM142.121 161H127.821V115.37H143.551C156.161 115.37 163.961 122.455 163.961 137.34C163.961 154.24 153.626 161 142.121 161ZM133.021 116.215V160.155H139.521C151.286 160.155 158.761 155.15 158.761 137.34C158.761 122.91 153.431 116.215 140.496 116.215H133.021ZM189.406 161.975C179.591 161.975 171.921 156.905 171.921 146.7V115.37H177.186V148.78C177.186 158.465 183.686 161.195 189.406 161.195C195.061 161.195 201.431 158.465 201.431 148.78V115.37H206.631V146.7C206.631 156.905 199.221 161.975 189.406 161.975ZM240.111 161.975C225.226 161.975 214.761 153.135 214.761 137.665C214.761 122.26 225.811 114.005 239.851 114.005C244.336 114.005 249.146 114.85 254.021 116.605L253.761 120.57C249.211 118.23 245.116 114.915 241.216 114.915C228.411 114.915 219.961 123.56 219.961 137.665C219.961 151.185 229.516 161 242.256 161C245.896 161 249.926 157.49 253.696 155.67L254.021 159.7C249.081 161.195 244.401 161.975 240.111 161.975ZM281.797 161H276.597V116.15C268.082 116.15 265.807 116.995 260.672 119.27V115.37H297.722V119.27C292.652 116.995 289.857 116.15 281.797 116.15V161ZM309.612 161H304.412V115.37H309.612V161ZM338.325 162.105C324.675 162.105 317.72 151.055 317.72 138.315C317.72 124.925 324.675 114.265 338.325 114.265C351.975 114.265 358.93 124.925 358.93 138.315C358.93 151.055 351.975 162.105 338.325 162.105ZM338.325 161.26C349.7 161.26 353.73 149.43 353.73 138.315C353.73 127.2 349.7 115.11 338.325 115.11C326.755 115.11 322.92 127.2 322.92 138.315C322.92 149.43 327.08 161.26 338.325 161.26ZM370.176 161H366.406C367.641 155.8 367.901 151.315 367.901 145.53V115.37H372.321L401.766 158.79V129.8C401.766 125.12 401.441 119.985 400.336 115.37H404.041C402.871 119.985 402.611 125.185 402.611 129.8V161H397.671L368.681 118.165V145.53C368.681 150.99 368.876 155.8 370.176 161ZM428.693 161.78C423.428 161.78 417.513 160.74 411.338 158.465L411.923 154.565C419.008 158.725 424.923 160.805 429.733 160.805C438.118 160.805 443.838 156.58 442.603 149.69C440.328 137.99 411.858 136.56 410.948 125.575C410.298 117.97 419.008 114.33 428.888 114.33C433.698 114.33 439.158 115.11 444.878 116.865L444.163 120.765C438.703 117.58 432.463 115.24 427.978 115.24C419.853 115.24 414.653 118.165 415.043 122.91C415.823 132.335 446.373 135.13 447.413 148.325C448.193 157.165 439.548 161.78 428.693 161.78Z" fill="white"/>
</svg>
