<svg width="880" height="54" viewBox="0 0 880 54" fill="none" xmlns="http://www.w3.org/2000/svg">
<path d="M12.5 6.75C9.96667 6.75 7.85 7.08333 6.15 7.75C4.45 8.38333 2.65 9.43333 0.75 10.9V5.9H32.25V10.9C30.35 9.43333 28.5667 8.38333 26.9 7.75C25.2333 7.08333 23.1 6.75 20.5 6.75V41H12.5V6.75ZM35.4078 41V12.1H43.4078V25.9H43.4578C44.1245 23.1 45.0411 20.6167 46.2078 18.45C47.4078 16.25 48.7911 14.5333 50.3578 13.3C51.9245 12.0333 53.5745 11.4 55.3078 11.4C56.2745 11.4 57.3078 11.6333 58.4078 12.1L57.5578 17.1C56.1245 16.4333 54.7245 16.1 53.3578 16.1C50.9911 16.1 48.9745 17.1667 47.3078 19.3C45.6411 21.4 44.3411 24.4167 43.4078 28.35V41H35.4078ZM70.768 41.8C69.168 41.8 67.6846 41.45 66.318 40.75C64.9513 40.0167 63.8513 38.95 63.018 37.55C62.218 36.15 61.818 34.4667 61.818 32.5V12.1H69.818V36.1C69.818 37.4333 70.1013 38.45 70.668 39.15C71.268 39.8167 72.0513 40.15 73.018 40.15C74.118 40.15 75.268 39.6667 76.468 38.7C77.7013 37.7333 78.7846 36.3833 79.718 34.65C80.6513 32.8833 81.3013 30.9167 81.668 28.75V12.1H89.668V41H81.668V32.3H81.518C80.4513 35.3667 78.968 37.7167 77.068 39.35C75.168 40.9833 73.068 41.8 70.768 41.8ZM106.632 41.85C102.865 41.85 98.7983 41.2 94.4316 39.9L95.6816 34.9C98.2816 36.9667 100.732 38.4167 103.032 39.25C105.332 40.05 107.382 40.45 109.182 40.45C110.682 40.45 111.882 40.1833 112.782 39.65C113.682 39.1167 114.165 38.4333 114.232 37.6C114.232 36.1 113.415 34.6833 111.782 33.35C110.182 32.0167 107.765 30.4 104.532 28.5C102.232 27.1333 100.365 25.9667 98.9316 25C97.5316 24 96.3483 22.9167 95.3816 21.75C94.415 20.5833 93.9316 19.3833 93.9316 18.15C93.9316 15.9167 95.3983 14.2333 98.3316 13.1C101.265 11.9333 104.848 11.35 109.082 11.35C112.648 11.35 115.998 11.7167 119.132 12.45L118.332 17.45C116.532 16.1167 114.315 14.9667 111.682 14C109.048 13.0333 106.782 12.55 104.882 12.55C103.448 12.55 102.298 12.8 101.432 13.3C100.598 13.8 100.182 14.5333 100.182 15.5C100.182 16.3 100.765 17.1333 101.932 18C103.132 18.8667 105.032 20.05 107.632 21.55C110.298 23.0833 112.432 24.4 114.032 25.5C115.665 26.6 117.065 27.85 118.232 29.25C119.432 30.65 120.032 32.1333 120.032 33.7C119.998 36.5 118.682 38.5667 116.082 39.9C113.515 41.2 110.365 41.85 106.632 41.85ZM135.9 41.95C133.866 41.95 131.916 41.5 130.05 40.6C128.183 39.7 126.683 38.4333 125.55 36.8C124.416 35.1333 123.85 33.2333 123.85 31.1V12.95H120.85V12.1H125.3C127 11.0667 128.366 9.46667 129.4 7.3C130.433 5.1 130.95 2.96667 130.95 0.899998H131.85V12.1H139.1V12.95H131.85V36.1C131.85 37.7333 132.133 38.9833 132.7 39.85C133.266 40.6833 134.016 41.1 134.95 41.1C136.283 41.1 137.7 40.35 139.2 38.85C140.733 37.3167 142.133 35.2667 143.4 32.7L145.15 37.5C144.016 38.9667 142.633 40.0833 141 40.85C139.366 41.5833 137.666 41.95 135.9 41.95ZM161.858 41.75C158.858 41.75 156.058 41.1167 153.458 39.85C150.858 38.55 148.775 36.7 147.208 34.3C145.642 31.9 144.858 29.1 144.858 25.9C144.858 22.8 145.625 20.15 147.158 17.95C148.692 15.7167 150.675 14.05 153.108 12.95C155.575 11.8167 158.158 11.25 160.858 11.25C163.258 11.25 165.492 11.7 167.558 12.6C169.625 13.4667 171.275 14.7833 172.508 16.55C173.775 18.3167 174.408 20.45 174.408 22.95C174.408 24.1833 174.242 25.4167 173.908 26.65H152.858C152.925 29.65 153.308 32.2167 154.008 34.35C154.742 36.45 155.708 38.05 156.908 39.15C158.142 40.25 159.542 40.8 161.108 40.8C162.808 40.8 164.642 40.1167 166.608 38.75C168.575 37.35 170.558 35.3 172.558 32.6L174.208 37.6C172.408 38.9667 170.442 40 168.308 40.7C166.175 41.4 164.025 41.75 161.858 41.75ZM166.708 25.8C166.908 24.7 167.008 23.6333 167.008 22.6C167.008 20.3667 166.725 18.4667 166.158 16.9C165.592 15.3333 164.842 14.1667 163.908 13.4C162.975 12.6333 161.958 12.25 160.858 12.25C159.558 12.25 158.292 12.7833 157.058 13.85C155.858 14.8833 154.858 16.4333 154.058 18.5C153.292 20.5333 152.892 22.9667 152.858 25.8H166.708ZM188.981 41.8C186.948 41.8 185.031 41.25 183.231 40.15C181.465 39.05 180.015 37.3833 178.881 35.15C177.781 32.9167 177.231 30.2167 177.231 27.05C177.231 23.7167 177.898 20.8833 179.231 18.55C180.598 16.1833 182.465 14.4167 184.831 13.25C187.231 12.05 189.965 11.45 193.031 11.45C194.798 11.45 196.631 11.7 198.531 12.2V5.9H206.531V41H198.531V34.9C197.665 37.1667 196.365 38.8833 194.631 40.05C192.931 41.2167 191.048 41.8 188.981 41.8ZM191.631 40.05C193.031 40.05 194.348 39.4 195.581 38.1C196.815 36.7667 197.798 34.9 198.531 32.5V13.2C197.498 12.8667 196.448 12.7 195.381 12.7C192.081 12.7 189.465 13.9167 187.531 16.35C185.598 18.7833 184.631 22.3833 184.631 27.15C184.631 29.85 184.948 32.1833 185.581 34.15C186.215 36.0833 187.065 37.55 188.131 38.55C189.198 39.55 190.365 40.05 191.631 40.05ZM240.003 41.7C238.57 41.7 237.103 41.3333 235.603 40.6C234.103 39.8333 232.603 38.7 231.103 37.2V41H223.103V5.9H231.103V20.8H231.153C232.153 17.6333 233.536 15.25 235.303 13.65C237.103 12.05 239.003 11.25 241.003 11.25C242.97 11.25 244.736 11.8667 246.303 13.1C247.903 14.3 249.153 15.9667 250.053 18.1C250.953 20.2333 251.403 22.6 251.403 25.2C251.403 28.2 250.903 30.9667 249.903 33.5C248.903 36 247.536 38 245.803 39.5C244.07 40.9667 242.136 41.7 240.003 41.7ZM236.903 38.95C239.036 38.95 240.703 37.5833 241.903 34.85C243.136 32.1167 243.753 28.6 243.753 24.3C243.753 21.1333 243.286 18.65 242.353 16.85C241.453 15.05 240.22 14.15 238.653 14.15C237.186 14.15 235.736 14.95 234.303 16.55C232.903 18.15 231.836 20.3333 231.103 23.1V36.3C232.103 37.1667 233.103 37.8333 234.103 38.3C235.136 38.7333 236.07 38.95 236.903 38.95ZM263.083 53.2C260.317 53.2 257.467 52.8 254.533 52L256.183 47C260.083 50.3 263.483 51.95 266.383 51.95C269.017 51.95 271.133 51.0667 272.733 49.3C274.367 47.5333 275.183 45.2667 275.183 42.5V33.8H275.083C274.483 35.5 273.617 36.9667 272.483 38.2C271.35 39.4 270.117 40.3167 268.783 40.95C267.45 41.55 266.167 41.85 264.933 41.85C263.167 41.85 261.517 41.3 259.983 40.2C258.483 39.1 257.267 37.5333 256.333 35.5C255.433 33.4667 254.983 31.0833 254.983 28.35V12.1H262.983V30.5C262.983 33.3667 263.433 35.5667 264.333 37.1C265.233 38.6333 266.367 39.4 267.733 39.4C268.6 39.4 269.517 39.1 270.483 38.5C271.45 37.8667 272.35 36.95 273.183 35.75C274.05 34.5167 274.717 33.0667 275.183 31.4V12.1H283.183V35.65C283.183 39.1167 282.317 42.1667 280.583 44.8C278.85 47.4667 276.45 49.5333 273.383 51C270.35 52.4667 266.917 53.2 263.083 53.2ZM319.433 41.75C315.433 41.75 311.833 41.0167 308.633 39.55C305.433 38.05 302.9 35.8833 301.033 33.05C299.2 30.1833 298.283 26.7833 298.283 22.85C298.283 19.1833 299.217 16.0167 301.083 13.35C302.983 10.6833 305.567 8.66667 308.833 7.3C312.1 5.9 315.767 5.2 319.833 5.2C324.067 5.2 328.317 5.93333 332.583 7.4L332.333 12.4C329.833 10.3 327.4 8.73333 325.033 7.7C322.667 6.63333 320.467 6.1 318.433 6.1C316.033 6.1 313.917 6.76667 312.083 8.1C310.25 9.43333 308.817 11.3667 307.783 13.9C306.783 16.4 306.283 19.3833 306.283 22.85C306.283 26.75 306.9 30.05 308.133 32.75C309.4 35.45 311.1 37.4667 313.233 38.8C315.4 40.1333 317.833 40.8 320.533 40.8C322.167 40.8 323.733 40.5167 325.233 39.95V22.65H333.233V38.95C328.433 40.8167 323.833 41.75 319.433 41.75ZM353.62 41.85C350.487 41.85 347.753 41.2667 345.42 40.1C343.087 38.9 341.287 37.1667 340.02 34.9C338.753 32.6333 338.12 29.9167 338.12 26.75C338.12 23.5167 338.753 20.75 340.02 18.45C341.287 16.1167 343.087 14.35 345.42 13.15C347.753 11.9167 350.487 11.3 353.62 11.3C356.72 11.3 359.42 11.9167 361.72 13.15C364.053 14.35 365.853 16.1167 367.12 18.45C368.387 20.75 369.02 23.5167 369.02 26.75C369.02 29.9167 368.387 32.6333 367.12 34.9C365.853 37.1667 364.053 38.9 361.72 40.1C359.42 41.2667 356.72 41.85 353.62 41.85ZM353.62 40.95C355.22 40.95 356.62 40.2667 357.82 38.9C359.02 37.5 359.937 35.7167 360.57 33.55C361.203 31.35 361.52 29.0833 361.52 26.75C361.52 24.55 361.203 22.3167 360.57 20.05C359.937 17.7833 359.02 15.9 357.82 14.4C356.62 12.9 355.22 12.15 353.62 12.15C351.953 12.15 350.52 12.9 349.32 14.4C348.12 15.8667 347.203 17.7333 346.57 20C345.97 22.2667 345.67 24.5167 345.67 26.75C345.67 29.1167 345.97 31.3833 346.57 33.55C347.203 35.7167 348.12 37.5 349.32 38.9C350.52 40.2667 351.953 40.95 353.62 40.95ZM398.743 12.1L387.643 41H380.843L369.743 12.1H377.743L387.793 38.15L392.443 26.15C393.61 23.1167 394.193 20.1667 394.193 17.3C394.193 15.6667 394.043 13.9333 393.743 12.1H398.743ZM416.057 41.75C413.057 41.75 410.257 41.1167 407.657 39.85C405.057 38.55 402.974 36.7 401.407 34.3C399.841 31.9 399.057 29.1 399.057 25.9C399.057 22.8 399.824 20.15 401.357 17.95C402.891 15.7167 404.874 14.05 407.307 12.95C409.774 11.8167 412.357 11.25 415.057 11.25C417.457 11.25 419.691 11.7 421.757 12.6C423.824 13.4667 425.474 14.7833 426.707 16.55C427.974 18.3167 428.607 20.45 428.607 22.95C428.607 24.1833 428.441 25.4167 428.107 26.65H407.057C407.124 29.65 407.507 32.2167 408.207 34.35C408.941 36.45 409.907 38.05 411.107 39.15C412.341 40.25 413.741 40.8 415.307 40.8C417.007 40.8 418.841 40.1167 420.807 38.75C422.774 37.35 424.757 35.3 426.757 32.6L428.407 37.6C426.607 38.9667 424.641 40 422.507 40.7C420.374 41.4 418.224 41.75 416.057 41.75ZM420.907 25.8C421.107 24.7 421.207 23.6333 421.207 22.6C421.207 20.3667 420.924 18.4667 420.357 16.9C419.791 15.3333 419.041 14.1667 418.107 13.4C417.174 12.6333 416.157 12.25 415.057 12.25C413.757 12.25 412.491 12.7833 411.257 13.85C410.057 14.8833 409.057 16.4333 408.257 18.5C407.491 20.5333 407.091 22.9667 407.057 25.8H420.907ZM432.625 41V12.1H440.625V25.9H440.675C441.341 23.1 442.258 20.6167 443.425 18.45C444.625 16.25 446.008 14.5333 447.575 13.3C449.141 12.0333 450.791 11.4 452.525 11.4C453.491 11.4 454.525 11.6333 455.625 12.1L454.775 17.1C453.341 16.4333 451.941 16.1 450.575 16.1C448.208 16.1 446.191 17.1667 444.525 19.3C442.858 21.4 441.558 24.4167 440.625 28.35V41H432.625ZM480.054 11.25C481.32 11.25 482.52 11.5333 483.654 12.1C484.82 12.6333 485.77 13.5 486.504 14.7C487.237 15.8667 487.604 17.3333 487.604 19.1V41H479.604V19.55C479.604 17.6167 479.287 16.1833 478.654 15.25C478.054 14.2833 477.22 13.8 476.154 13.8C474.754 13.8 473.154 14.55 471.354 16.05C469.554 17.5167 467.937 19.4167 466.504 21.75V41H458.504V12.15H466.504V20.3C468.504 17.2667 470.687 15 473.054 13.5C475.42 12 477.754 11.25 480.054 11.25ZM493.074 41V12.1H501.074V20.8H501.174C502.04 17.8333 503.44 15.5 505.374 13.8C507.307 12.1 509.357 11.25 511.524 11.25C513.757 11.25 515.54 12.05 516.874 13.65C518.207 15.2167 518.874 17.45 518.874 20.35H519.024C519.857 17.4167 521.157 15.1667 522.924 13.6C524.69 12.0333 526.607 11.25 528.674 11.25C530.94 11.25 532.807 12.0833 534.274 13.75C535.74 15.4167 536.474 17.75 536.474 20.75V41H528.474V19.95C528.474 18.1833 528.157 16.8667 527.524 16C526.924 15.1 526.174 14.65 525.274 14.65C523.874 14.65 522.574 15.4667 521.374 17.1C520.207 18.7 519.424 20.9833 519.024 23.95V41H511.024V19.95C511.024 18.0833 510.69 16.6833 510.024 15.75C509.357 14.8167 508.557 14.35 507.624 14.35C506.657 14.35 505.724 14.75 504.824 15.55C503.924 16.35 503.14 17.5167 502.474 19.05C501.807 20.55 501.34 22.35 501.074 24.45V41H493.074ZM557.366 41.75C554.366 41.75 551.566 41.1167 548.966 39.85C546.366 38.55 544.283 36.7 542.716 34.3C541.149 31.9 540.366 29.1 540.366 25.9C540.366 22.8 541.133 20.15 542.666 17.95C544.199 15.7167 546.183 14.05 548.616 12.95C551.083 11.8167 553.666 11.25 556.366 11.25C558.766 11.25 560.999 11.7 563.066 12.6C565.133 13.4667 566.783 14.7833 568.016 16.55C569.283 18.3167 569.916 20.45 569.916 22.95C569.916 24.1833 569.749 25.4167 569.416 26.65H548.366C548.433 29.65 548.816 32.2167 549.516 34.35C550.249 36.45 551.216 38.05 552.416 39.15C553.649 40.25 555.049 40.8 556.616 40.8C558.316 40.8 560.149 40.1167 562.116 38.75C564.083 37.35 566.066 35.3 568.066 32.6L569.716 37.6C567.916 38.9667 565.949 40 563.816 40.7C561.683 41.4 559.533 41.75 557.366 41.75ZM562.216 25.8C562.416 24.7 562.516 23.6333 562.516 22.6C562.516 20.3667 562.233 18.4667 561.666 16.9C561.099 15.3333 560.349 14.1667 559.416 13.4C558.483 12.6333 557.466 12.25 556.366 12.25C555.066 12.25 553.799 12.7833 552.566 13.85C551.366 14.8833 550.366 16.4333 549.566 18.5C548.799 20.5333 548.399 22.9667 548.366 25.8H562.216ZM595.483 11.25C596.75 11.25 597.95 11.5333 599.083 12.1C600.25 12.6333 601.2 13.5 601.933 14.7C602.667 15.8667 603.033 17.3333 603.033 19.1V41H595.033V19.55C595.033 17.6167 594.717 16.1833 594.083 15.25C593.483 14.2833 592.65 13.8 591.583 13.8C590.183 13.8 588.583 14.55 586.783 16.05C584.983 17.5167 583.367 19.4167 581.933 21.75V41H573.933V12.15H581.933V20.3C583.933 17.2667 586.117 15 588.483 13.5C590.85 12 593.183 11.25 595.483 11.25ZM620.665 41.95C618.632 41.95 616.682 41.5 614.815 40.6C612.949 39.7 611.449 38.4333 610.315 36.8C609.182 35.1333 608.615 33.2333 608.615 31.1V12.95H605.615V12.1H610.065C611.765 11.0667 613.132 9.46667 614.165 7.3C615.199 5.1 615.715 2.96667 615.715 0.899998H616.615V12.1H623.865V12.95H616.615V36.1C616.615 37.7333 616.899 38.9833 617.465 39.85C618.032 40.6833 618.782 41.1 619.715 41.1C621.049 41.1 622.465 40.35 623.965 38.85C625.499 37.3167 626.899 35.2667 628.165 32.7L629.915 37.5C628.782 38.9667 627.399 40.0833 625.765 40.85C624.132 41.5833 622.432 41.95 620.665 41.95ZM641.717 41L655.717 5.9H663.717L677.717 41H674.217C674.05 38.6667 673.8 36.5 673.467 34.5C673.167 32.4667 672.583 30.3667 671.717 28.2L670.767 25.65H655.817L649.717 41H641.717ZM663.267 7L656.167 24.8H670.417L663.267 7ZM686.703 53.25C684.236 53.25 681.603 52.95 678.803 52.35L680.303 47.35C684.67 50.5167 688.27 52.1 691.103 52.1C693.603 52.1 695.486 51.0833 696.753 49.05C698.053 47.0167 698.703 44.3 698.703 40.9V36.25H698.603C697.77 37.9833 696.536 39.3333 694.903 40.3C693.303 41.2667 691.553 41.75 689.653 41.75C687.72 41.75 685.903 41.2333 684.203 40.2C682.503 39.1667 681.12 37.5333 680.053 35.3C679.02 33.0667 678.503 30.25 678.503 26.85C678.503 23.7833 679.086 21.0833 680.253 18.75C681.453 16.3833 683.053 14.5667 685.053 13.3C687.086 12.0333 689.303 11.4 691.703 11.4C694.036 11.4 696.37 12.0667 698.703 13.4V12.1H706.703V35.65C706.703 39.1833 705.853 42.2833 704.153 44.95C702.486 47.6167 700.136 49.6667 697.103 51.1C694.103 52.5333 690.636 53.25 686.703 53.25ZM692.553 39.4C693.853 39.4 695.053 38.9 696.153 37.9C697.286 36.9 698.136 35.4833 698.703 33.65V14.5C697.07 13.4333 695.486 12.9 693.953 12.9C692.286 12.9 690.853 13.55 689.653 14.85C688.453 16.15 687.536 17.85 686.903 19.95C686.303 22.05 686.003 24.2833 686.003 26.65C686.003 29.0167 686.27 31.1667 686.803 33.1C687.37 35.0333 688.136 36.5667 689.103 37.7C690.103 38.8333 691.253 39.4 692.553 39.4ZM728.118 41.75C725.118 41.75 722.318 41.1167 719.718 39.85C717.118 38.55 715.035 36.7 713.468 34.3C711.901 31.9 711.118 29.1 711.118 25.9C711.118 22.8 711.885 20.15 713.418 17.95C714.951 15.7167 716.935 14.05 719.368 12.95C721.835 11.8167 724.418 11.25 727.118 11.25C729.518 11.25 731.751 11.7 733.818 12.6C735.885 13.4667 737.535 14.7833 738.768 16.55C740.035 18.3167 740.668 20.45 740.668 22.95C740.668 24.1833 740.501 25.4167 740.168 26.65H719.118C719.185 29.65 719.568 32.2167 720.268 34.35C721.001 36.45 721.968 38.05 723.168 39.15C724.401 40.25 725.801 40.8 727.368 40.8C729.068 40.8 730.901 40.1167 732.868 38.75C734.835 37.35 736.818 35.3 738.818 32.6L740.468 37.6C738.668 38.9667 736.701 40 734.568 40.7C732.435 41.4 730.285 41.75 728.118 41.75ZM732.968 25.8C733.168 24.7 733.268 23.6333 733.268 22.6C733.268 20.3667 732.985 18.4667 732.418 16.9C731.851 15.3333 731.101 14.1667 730.168 13.4C729.235 12.6333 728.218 12.25 727.118 12.25C725.818 12.25 724.551 12.7833 723.318 13.85C722.118 14.8833 721.118 16.4333 720.318 18.5C719.551 20.5333 719.151 22.9667 719.118 25.8H732.968ZM766.235 11.25C767.502 11.25 768.702 11.5333 769.835 12.1C771.002 12.6333 771.952 13.5 772.685 14.7C773.418 15.8667 773.785 17.3333 773.785 19.1V41H765.785V19.55C765.785 17.6167 765.468 16.1833 764.835 15.25C764.235 14.2833 763.402 13.8 762.335 13.8C760.935 13.8 759.335 14.55 757.535 16.05C755.735 17.5167 754.118 19.4167 752.685 21.75V41H744.685V12.15H752.685V20.3C754.685 17.2667 756.868 15 759.235 13.5C761.602 12 763.935 11.25 766.235 11.25ZM794.977 41.8C791.777 41.8 788.843 41.1667 786.177 39.9C783.51 38.6 781.377 36.7333 779.777 34.3C778.21 31.8667 777.427 29.0333 777.427 25.8C777.427 23.1667 777.96 20.75 779.027 18.55C780.093 16.35 781.86 14.5667 784.327 13.2C786.827 11.8333 790.077 11.15 794.077 11.15C795.877 11.15 797.793 11.3333 799.827 11.7C801.86 12.0667 803.71 12.5833 805.377 13.25L804.177 18.25C802.743 16.35 801.093 14.8833 799.227 13.85C797.36 12.7833 795.627 12.25 794.027 12.25C792.227 12.25 790.66 12.8833 789.327 14.15C788.027 15.4167 787.027 17.1167 786.327 19.25C785.66 21.35 785.327 23.6833 785.327 26.25C785.327 28.9167 785.677 31.35 786.377 33.55C787.11 35.75 788.143 37.5 789.477 38.8C790.843 40.0667 792.427 40.7 794.227 40.7C795.793 40.7 797.493 40.1 799.327 38.9C801.16 37.7 803.01 35.9167 804.877 33.55L806.377 38.55C802.877 40.7167 799.077 41.8 794.977 41.8ZM813.336 10C812.203 10 811.236 9.6 810.436 8.8C809.636 8 809.236 7.03333 809.236 5.9C809.236 4.73333 809.636 3.76666 810.436 3C811.236 2.2 812.203 1.8 813.336 1.8C814.503 1.8 815.469 2.2 816.236 3C817.036 3.76666 817.436 4.73333 817.436 5.9C817.436 7.03333 817.036 8 816.236 8.8C815.469 9.6 814.503 10 813.336 10ZM817.336 41H809.336V12.1H817.336V41ZM838.323 41.75C835.323 41.75 832.523 41.1167 829.923 39.85C827.323 38.55 825.24 36.7 823.673 34.3C822.106 31.9 821.323 29.1 821.323 25.9C821.323 22.8 822.09 20.15 823.623 17.95C825.156 15.7167 827.14 14.05 829.573 12.95C832.04 11.8167 834.623 11.25 837.323 11.25C839.723 11.25 841.956 11.7 844.023 12.6C846.09 13.4667 847.74 14.7833 848.973 16.55C850.24 18.3167 850.873 20.45 850.873 22.95C850.873 24.1833 850.706 25.4167 850.373 26.65H829.323C829.39 29.65 829.773 32.2167 830.473 34.35C831.206 36.45 832.173 38.05 833.373 39.15C834.606 40.25 836.006 40.8 837.573 40.8C839.273 40.8 841.106 40.1167 843.073 38.75C845.04 37.35 847.023 35.3 849.023 32.6L850.673 37.6C848.873 38.9667 846.906 40 844.773 40.7C842.64 41.4 840.49 41.75 838.323 41.75ZM843.173 25.8C843.373 24.7 843.473 23.6333 843.473 22.6C843.473 20.3667 843.19 18.4667 842.623 16.9C842.056 15.3333 841.306 14.1667 840.373 13.4C839.44 12.6333 838.423 12.25 837.323 12.25C836.023 12.25 834.756 12.7833 833.523 13.85C832.323 14.8833 831.323 16.4333 830.523 18.5C829.756 20.5333 829.356 22.9667 829.323 25.8H843.173ZM865.714 41.85C861.947 41.85 857.88 41.2 853.514 39.9L854.764 34.9C857.364 36.9667 859.814 38.4167 862.114 39.25C864.414 40.05 866.464 40.45 868.264 40.45C869.764 40.45 870.964 40.1833 871.864 39.65C872.764 39.1167 873.247 38.4333 873.314 37.6C873.314 36.1 872.497 34.6833 870.864 33.35C869.264 32.0167 866.847 30.4 863.614 28.5C861.314 27.1333 859.447 25.9667 858.014 25C856.614 24 855.43 22.9167 854.464 21.75C853.497 20.5833 853.014 19.3833 853.014 18.15C853.014 15.9167 854.48 14.2333 857.414 13.1C860.347 11.9333 863.93 11.35 868.164 11.35C871.73 11.35 875.08 11.7167 878.214 12.45L877.414 17.45C875.614 16.1167 873.397 14.9667 870.764 14C868.13 13.0333 865.864 12.55 863.964 12.55C862.53 12.55 861.38 12.8 860.514 13.3C859.68 13.8 859.264 14.5333 859.264 15.5C859.264 16.3 859.847 17.1333 861.014 18C862.214 18.8667 864.114 20.05 866.714 21.55C869.38 23.0833 871.514 24.4 873.114 25.5C874.747 26.6 876.147 27.85 877.314 29.25C878.514 30.65 879.114 32.1333 879.114 33.7C879.08 36.5 877.764 38.5667 875.164 39.9C872.597 41.2 869.447 41.85 865.714 41.85Z" fill="white"/>
</svg>
