<svg width="515" height="42" viewBox="0 0 515 42" fill="none" xmlns="http://www.w3.org/2000/svg">
<path d="M0.75 41L14.75 5.9H22.75L36.75 41H33.25C33.0833 38.6667 32.8333 36.5 32.5 34.5C32.2 32.4667 31.6167 30.3667 30.75 28.2L29.8 25.65H14.85L8.75 41H0.75ZM22.3 7L15.2 24.8H29.45L22.3 7ZM39.9 41V12.1H47.9V25.9H47.95C48.6167 23.1 49.5333 20.6167 50.7 18.45C51.9 16.25 53.2833 14.5333 54.85 13.3C56.4167 12.0333 58.0667 11.4 59.8 11.4C60.7667 11.4 61.8 11.6333 62.9 12.1L62.05 17.1C60.6167 16.4333 59.2167 16.1 57.85 16.1C55.4833 16.1 53.4667 17.1667 51.8 19.3C50.1333 21.4 48.8333 24.4167 47.9 28.35V41H39.9ZM78.7219 41.95C76.6885 41.95 74.7385 41.5 72.8719 40.6C71.0052 39.7 69.5052 38.4333 68.3719 36.8C67.2385 35.1333 66.6719 33.2333 66.6719 31.1V12.95H63.6719V12.1H68.1219C69.8219 11.0667 71.1885 9.46667 72.2219 7.3C73.2552 5.1 73.7719 2.96667 73.7719 0.899998H74.6719V12.1H81.9219V12.95H74.6719V36.1C74.6719 37.7333 74.9552 38.9833 75.5219 39.85C76.0885 40.6833 76.8385 41.1 77.7719 41.1C79.1052 41.1 80.5219 40.35 82.0219 38.85C83.5552 37.3167 84.9552 35.2667 86.2219 32.7L87.9719 37.5C86.8385 38.9667 85.4552 40.0833 83.8219 40.85C82.1885 41.5833 80.4885 41.95 78.7219 41.95ZM93.8535 10C92.7202 10 91.7535 9.6 90.9535 8.8C90.1535 8 89.7535 7.03333 89.7535 5.9C89.7535 4.73333 90.1535 3.76666 90.9535 3C91.7535 2.2 92.7202 1.8 93.8535 1.8C95.0202 1.8 95.9868 2.2 96.7535 3C97.5535 3.76666 97.9535 4.73333 97.9535 5.9C97.9535 7.03333 97.5535 8 96.7535 8.8C95.9868 9.6 95.0202 10 93.8535 10ZM97.8535 41H89.8535V12.1H97.8535V41ZM114.444 41.85C110.677 41.85 106.611 41.2 102.244 39.9L103.494 34.9C106.094 36.9667 108.544 38.4167 110.844 39.25C113.144 40.05 115.194 40.45 116.994 40.45C118.494 40.45 119.694 40.1833 120.594 39.65C121.494 39.1167 121.977 38.4333 122.044 37.6C122.044 36.1 121.227 34.6833 119.594 33.35C117.994 32.0167 115.577 30.4 112.344 28.5C110.044 27.1333 108.177 25.9667 106.744 25C105.344 24 104.161 22.9167 103.194 21.75C102.227 20.5833 101.744 19.3833 101.744 18.15C101.744 15.9167 103.211 14.2333 106.144 13.1C109.077 11.9333 112.661 11.35 116.894 11.35C120.461 11.35 123.811 11.7167 126.944 12.45L126.144 17.45C124.344 16.1167 122.127 14.9667 119.494 14C116.861 13.0333 114.594 12.55 112.694 12.55C111.261 12.55 110.111 12.8 109.244 13.3C108.411 13.8 107.994 14.5333 107.994 15.5C107.994 16.3 108.577 17.1333 109.744 18C110.944 18.8667 112.844 20.05 115.444 21.55C118.111 23.0833 120.244 24.4 121.844 25.5C123.477 26.6 124.877 27.85 126.044 29.25C127.244 30.65 127.844 32.1333 127.844 33.7C127.811 36.5 126.494 38.5667 123.894 39.9C121.327 41.2 118.177 41.85 114.444 41.85ZM143.712 41.95C141.679 41.95 139.729 41.5 137.862 40.6C135.995 39.7 134.495 38.4333 133.362 36.8C132.229 35.1333 131.662 33.2333 131.662 31.1V12.95H128.662V12.1H133.112C134.812 11.0667 136.179 9.46667 137.212 7.3C138.245 5.1 138.762 2.96667 138.762 0.899998H139.662V12.1H146.912V12.95H139.662V36.1C139.662 37.7333 139.945 38.9833 140.512 39.85C141.079 40.6833 141.829 41.1 142.762 41.1C144.095 41.1 145.512 40.35 147.012 38.85C148.545 37.3167 149.945 35.2667 151.212 32.7L152.962 37.5C151.829 38.9667 150.445 40.0833 148.812 40.85C147.179 41.5833 145.479 41.95 143.712 41.95ZM185.914 41.8C181.947 41.8 178.447 41.1 175.414 39.7C172.38 38.3 170.014 36.25 168.314 33.55C166.614 30.8167 165.764 27.5167 165.764 23.65C165.764 19.65 166.647 16.25 168.414 13.45C170.18 10.6167 172.58 8.5 175.614 7.1C178.647 5.66667 182.047 4.95 185.814 4.95C189.547 4.95 193.414 5.63333 197.414 7L196.914 12.15C196.214 11.6167 195.23 10.7833 193.964 9.65C192.497 8.38333 191.33 7.46667 190.464 6.9C189.63 6.33333 188.797 6.05 187.964 6.05C183.43 6.05 179.93 7.58333 177.464 10.65C174.997 13.7167 173.764 18.05 173.764 23.65C173.764 26.65 174.38 29.4667 175.614 32.1C176.88 34.7333 178.614 36.8333 180.814 38.4C183.014 39.9667 185.464 40.75 188.164 40.75C188.997 40.75 189.897 40.4 190.864 39.7C191.864 39 193.014 38.0333 194.314 36.8C195.414 35.7667 196.214 35.0667 196.714 34.7L197.414 40.05C193.314 41.2167 189.48 41.8 185.914 41.8ZM214.85 41.85C211.717 41.85 208.984 41.2667 206.65 40.1C204.317 38.9 202.517 37.1667 201.25 34.9C199.984 32.6333 199.35 29.9167 199.35 26.75C199.35 23.5167 199.984 20.75 201.25 18.45C202.517 16.1167 204.317 14.35 206.65 13.15C208.984 11.9167 211.717 11.3 214.85 11.3C217.95 11.3 220.65 11.9167 222.95 13.15C225.284 14.35 227.084 16.1167 228.35 18.45C229.617 20.75 230.25 23.5167 230.25 26.75C230.25 29.9167 229.617 32.6333 228.35 34.9C227.084 37.1667 225.284 38.9 222.95 40.1C220.65 41.2667 217.95 41.85 214.85 41.85ZM214.85 40.95C216.45 40.95 217.85 40.2667 219.05 38.9C220.25 37.5 221.167 35.7167 221.8 33.55C222.434 31.35 222.75 29.0833 222.75 26.75C222.75 24.55 222.434 22.3167 221.8 20.05C221.167 17.7833 220.25 15.9 219.05 14.4C217.85 12.9 216.45 12.15 214.85 12.15C213.184 12.15 211.75 12.9 210.55 14.4C209.35 15.8667 208.434 17.7333 207.8 20C207.2 22.2667 206.9 24.5167 206.9 26.75C206.9 29.1167 207.2 31.3833 207.8 33.55C208.434 35.7167 209.35 37.5 210.55 38.9C211.75 40.2667 213.184 40.95 214.85 40.95ZM242.439 41H234.439V5.9H242.439V41ZM256.404 41H248.404V5.9H256.404V41ZM270.44 41.75C268.307 41.75 266.507 41.3667 265.04 40.6C263.574 39.8 262.474 38.7667 261.74 37.5C261.007 36.2333 260.64 34.85 260.64 33.35C260.64 30.5167 261.59 28.1333 263.49 26.2C265.39 24.2333 267.707 22.65 270.44 21.45C273.207 20.25 276.59 19.0667 280.59 17.9C280.59 15.9667 280.224 14.5 279.49 13.5C278.757 12.5 277.707 12 276.34 12C274.474 12 272.557 12.6833 270.59 14.05C268.657 15.4167 266.907 17.2833 265.34 19.65L263.84 13.9C265.974 13.0333 268.174 12.3667 270.44 11.9C272.74 11.4 274.924 11.15 276.99 11.15C280.457 11.15 283.257 11.8833 285.39 13.35C287.524 14.7833 288.59 17.0333 288.59 20.1V41H280.59V36.35C279.29 37.8833 277.724 39.1667 275.89 40.2C274.09 41.2333 272.274 41.75 270.44 41.75ZM274.19 38.95C275.19 38.95 276.24 38.6333 277.34 38C278.474 37.3667 279.557 36.5333 280.59 35.5V18.75C276.39 20.0167 273.34 21.6667 271.44 23.7C269.574 25.7 268.64 28.3333 268.64 31.6C268.64 33.8 269.157 35.5833 270.19 36.95C271.257 38.2833 272.59 38.95 274.19 38.95ZM310.853 41.7C309.419 41.7 307.953 41.3333 306.453 40.6C304.953 39.8333 303.453 38.7 301.953 37.2V41H293.953V5.9H301.953V20.8H302.003C303.003 17.6333 304.386 15.25 306.153 13.65C307.953 12.05 309.853 11.25 311.853 11.25C313.819 11.25 315.586 11.8667 317.153 13.1C318.753 14.3 320.003 15.9667 320.903 18.1C321.803 20.2333 322.253 22.6 322.253 25.2C322.253 28.2 321.753 30.9667 320.753 33.5C319.753 36 318.386 38 316.653 39.5C314.919 40.9667 312.986 41.7 310.853 41.7ZM307.753 38.95C309.886 38.95 311.553 37.5833 312.753 34.85C313.986 32.1167 314.603 28.6 314.603 24.3C314.603 21.1333 314.136 18.65 313.203 16.85C312.303 15.05 311.069 14.15 309.503 14.15C308.036 14.15 306.586 14.95 305.153 16.55C303.753 18.15 302.686 20.3333 301.953 23.1V36.3C302.953 37.1667 303.953 37.8333 304.953 38.3C305.986 38.7333 306.919 38.95 307.753 38.95ZM340.583 41.85C337.449 41.85 334.716 41.2667 332.383 40.1C330.049 38.9 328.249 37.1667 326.983 34.9C325.716 32.6333 325.083 29.9167 325.083 26.75C325.083 23.5167 325.716 20.75 326.983 18.45C328.249 16.1167 330.049 14.35 332.383 13.15C334.716 11.9167 337.449 11.3 340.583 11.3C343.683 11.3 346.383 11.9167 348.683 13.15C351.016 14.35 352.816 16.1167 354.083 18.45C355.349 20.75 355.983 23.5167 355.983 26.75C355.983 29.9167 355.349 32.6333 354.083 34.9C352.816 37.1667 351.016 38.9 348.683 40.1C346.383 41.2667 343.683 41.85 340.583 41.85ZM340.583 40.95C342.183 40.95 343.583 40.2667 344.783 38.9C345.983 37.5 346.899 35.7167 347.533 33.55C348.166 31.35 348.483 29.0833 348.483 26.75C348.483 24.55 348.166 22.3167 347.533 20.05C346.899 17.7833 345.983 15.9 344.783 14.4C343.583 12.9 342.183 12.15 340.583 12.15C338.916 12.15 337.483 12.9 336.283 14.4C335.083 15.8667 334.166 17.7333 333.533 20C332.933 22.2667 332.633 24.5167 332.633 26.75C332.633 29.1167 332.933 31.3833 333.533 33.55C334.166 35.7167 335.083 37.5 336.283 38.9C337.483 40.2667 338.916 40.95 340.583 40.95ZM359.822 41V12.1H367.822V25.9H367.872C368.539 23.1 369.455 20.6167 370.622 18.45C371.822 16.25 373.205 14.5333 374.772 13.3C376.339 12.0333 377.989 11.4 379.722 11.4C380.689 11.4 381.722 11.6333 382.822 12.1L381.972 17.1C380.539 16.4333 379.139 16.1 377.772 16.1C375.405 16.1 373.389 17.1667 371.722 19.3C370.055 21.4 368.755 24.4167 367.822 28.35V41H359.822ZM391.388 41.75C389.254 41.75 387.454 41.3667 385.988 40.6C384.521 39.8 383.421 38.7667 382.688 37.5C381.954 36.2333 381.588 34.85 381.588 33.35C381.588 30.5167 382.538 28.1333 384.438 26.2C386.338 24.2333 388.654 22.65 391.388 21.45C394.154 20.25 397.538 19.0667 401.538 17.9C401.538 15.9667 401.171 14.5 400.438 13.5C399.704 12.5 398.654 12 397.288 12C395.421 12 393.504 12.6833 391.538 14.05C389.604 15.4167 387.854 17.2833 386.287 19.65L384.788 13.9C386.921 13.0333 389.121 12.3667 391.388 11.9C393.688 11.4 395.871 11.15 397.938 11.15C401.404 11.15 404.204 11.8833 406.338 13.35C408.471 14.7833 409.538 17.0333 409.538 20.1V41H401.538V36.35C400.238 37.8833 398.671 39.1667 396.838 40.2C395.038 41.2333 393.221 41.75 391.388 41.75ZM395.138 38.95C396.138 38.95 397.188 38.6333 398.288 38C399.421 37.3667 400.504 36.5333 401.538 35.5V18.75C397.338 20.0167 394.288 21.6667 392.388 23.7C390.521 25.7 389.588 28.3333 389.588 31.6C389.588 33.8 390.104 35.5833 391.138 36.95C392.204 38.2833 393.538 38.95 395.138 38.95ZM427.452 41.95C425.419 41.95 423.469 41.5 421.602 40.6C419.736 39.7 418.236 38.4333 417.102 36.8C415.969 35.1333 415.402 33.2333 415.402 31.1V12.95H412.402V12.1H416.852C418.552 11.0667 419.919 9.46667 420.952 7.3C421.986 5.1 422.502 2.96667 422.502 0.899998H423.402V12.1H430.652V12.95H423.402V36.1C423.402 37.7333 423.686 38.9833 424.252 39.85C424.819 40.6833 425.569 41.1 426.502 41.1C427.836 41.1 429.252 40.35 430.752 38.85C432.286 37.3167 433.686 35.2667 434.952 32.7L436.702 37.5C435.569 38.9667 434.186 40.0833 432.552 40.85C430.919 41.5833 429.219 41.95 427.452 41.95ZM442.584 10C441.451 10 440.484 9.6 439.684 8.8C438.884 8 438.484 7.03333 438.484 5.9C438.484 4.73333 438.884 3.76666 439.684 3C440.484 2.2 441.451 1.8 442.584 1.8C443.751 1.8 444.717 2.2 445.484 3C446.284 3.76666 446.684 4.73333 446.684 5.9C446.684 7.03333 446.284 8 445.484 8.8C444.717 9.6 443.751 10 442.584 10ZM446.584 41H438.584V12.1H446.584V41ZM466.071 41.85C462.938 41.85 460.204 41.2667 457.871 40.1C455.538 38.9 453.738 37.1667 452.471 34.9C451.204 32.6333 450.571 29.9167 450.571 26.75C450.571 23.5167 451.204 20.75 452.471 18.45C453.738 16.1167 455.538 14.35 457.871 13.15C460.204 11.9167 462.938 11.3 466.071 11.3C469.171 11.3 471.871 11.9167 474.171 13.15C476.504 14.35 478.304 16.1167 479.571 18.45C480.838 20.75 481.471 23.5167 481.471 26.75C481.471 29.9167 480.838 32.6333 479.571 34.9C478.304 37.1667 476.504 38.9 474.171 40.1C471.871 41.2667 469.171 41.85 466.071 41.85ZM466.071 40.95C467.671 40.95 469.071 40.2667 470.271 38.9C471.471 37.5 472.388 35.7167 473.021 33.55C473.654 31.35 473.971 29.0833 473.971 26.75C473.971 24.55 473.654 22.3167 473.021 20.05C472.388 17.7833 471.471 15.9 470.271 14.4C469.071 12.9 467.671 12.15 466.071 12.15C464.404 12.15 462.971 12.9 461.771 14.4C460.571 15.8667 459.654 17.7333 459.021 20C458.421 22.2667 458.121 24.5167 458.121 26.75C458.121 29.1167 458.421 31.3833 459.021 33.55C459.654 35.7167 460.571 37.5 461.771 38.9C462.971 40.2667 464.404 40.95 466.071 40.95ZM506.86 11.25C508.127 11.25 509.327 11.5333 510.46 12.1C511.627 12.6333 512.577 13.5 513.31 14.7C514.043 15.8667 514.41 17.3333 514.41 19.1V41H506.41V19.55C506.41 17.6167 506.093 16.1833 505.46 15.25C504.86 14.2833 504.027 13.8 502.96 13.8C501.56 13.8 499.96 14.55 498.16 16.05C496.36 17.5167 494.743 19.4167 493.31 21.75V41H485.31V12.15H493.31V20.3C495.31 17.2667 497.493 15 499.86 13.5C502.227 12 504.56 11.25 506.86 11.25Z" fill="white"/>
</svg>
