<svg width="808" height="142" viewBox="0 0 808 142" fill="none" xmlns="http://www.w3.org/2000/svg">
<path d="M65.9039 6.88L51.4439 49H41.8439L33.3239 24.22L24.8039 49H15.2039L0.743906 6.88H10.3439L24.2639 47.44L32.7839 22.66L27.3839 6.88H36.9839L50.9039 47.44L57.6839 27.76C59.4839 22.6 60.3839 17.7 60.3839 13.06C60.3839 11.18 60.2239 9.12 59.9039 6.88H65.9039ZM85.7142 49.9C82.1142 49.9 78.7542 49.14 75.6342 47.62C72.5142 46.06 70.0142 43.84 68.1342 40.96C66.2542 38.08 65.3142 34.72 65.3142 30.88C65.3142 27.16 66.2342 23.98 68.0742 21.34C69.9142 18.66 72.2942 16.66 75.2142 15.34C78.1742 13.98 81.2742 13.3 84.5142 13.3C87.3942 13.3 90.0742 13.84 92.5542 14.92C95.0342 15.96 97.0142 17.54 98.4942 19.66C100.014 21.78 100.774 24.34 100.774 27.34C100.774 28.82 100.574 30.3 100.174 31.78H74.9142C74.9942 35.38 75.4542 38.46 76.2942 41.02C77.1742 43.54 78.3342 45.46 79.7742 46.78C81.2542 48.1 82.9342 48.76 84.8142 48.76C86.8542 48.76 89.0542 47.94 91.4142 46.3C93.7742 44.62 96.1542 42.16 98.5542 38.92L100.534 44.92C98.3742 46.56 96.0142 47.8 93.4542 48.64C90.8942 49.48 88.3142 49.9 85.7142 49.9ZM91.5342 30.76C91.7742 29.44 91.8942 28.16 91.8942 26.92C91.8942 24.24 91.5542 21.96 90.8742 20.08C90.1942 18.2 89.2942 16.8 88.1742 15.88C87.0542 14.96 85.8342 14.5 84.5142 14.5C82.9542 14.5 81.4342 15.14 79.9542 16.42C78.5142 17.66 77.3142 19.52 76.3542 22C75.4342 24.44 74.9542 27.36 74.9142 30.76H91.5342ZM139.343 49.96C135.503 49.96 131.983 49.2 128.783 47.68C125.583 46.12 123.023 43.88 121.103 40.96C119.223 38.04 118.283 34.64 118.283 30.76C118.283 27.6 118.923 24.7 120.203 22.06C121.483 19.42 123.603 17.28 126.563 15.64C129.563 14 133.463 13.18 138.263 13.18C140.423 13.18 142.723 13.4 145.163 13.84C147.603 14.28 149.823 14.9 151.823 15.7L150.383 21.7C148.663 19.42 146.683 17.66 144.443 16.42C142.203 15.14 140.123 14.5 138.203 14.5C136.043 14.5 134.163 15.26 132.563 16.78C131.003 18.3 129.803 20.34 128.963 22.9C128.163 25.42 127.763 28.22 127.763 31.3C127.763 34.5 128.183 37.42 129.023 40.06C129.903 42.7 131.143 44.8 132.743 46.36C134.383 47.88 136.283 48.64 138.443 48.64C140.323 48.64 142.363 47.92 144.563 46.48C146.763 45.04 148.983 42.9 151.223 40.06L153.023 46.06C148.823 48.66 144.263 49.96 139.343 49.96ZM166.894 49.96C164.974 49.96 163.194 49.54 161.554 48.7C159.914 47.82 158.594 46.54 157.594 44.86C156.634 43.18 156.154 41.16 156.154 38.8V14.32H165.754V43.12C165.754 44.72 166.094 45.94 166.774 46.78C167.494 47.58 168.434 47.98 169.594 47.98C170.914 47.98 172.294 47.4 173.734 46.24C175.214 45.08 176.514 43.46 177.634 41.38C178.754 39.26 179.534 36.9 179.974 34.3V14.32H189.574V49H179.974V38.56H179.794C178.514 42.24 176.734 45.06 174.454 47.02C172.174 48.98 169.654 49.96 166.894 49.96ZM211.83 50.14C209.39 50.14 207.05 49.6 204.81 48.52C202.57 47.44 200.77 45.92 199.41 43.96C198.05 41.96 197.37 39.68 197.37 37.12V15.34H193.77V14.32H199.11C201.15 13.08 202.79 11.16 204.03 8.56C205.27 5.92 205.89 3.36 205.89 0.879997H206.97V14.32H215.67V15.34H206.97V43.12C206.97 45.08 207.31 46.58 207.99 47.62C208.67 48.62 209.57 49.12 210.69 49.12C212.29 49.12 213.99 48.22 215.79 46.42C217.63 44.58 219.31 42.12 220.83 39.04L222.93 44.8C221.57 46.56 219.91 47.9 217.95 48.82C215.99 49.7 213.95 50.14 211.83 50.14ZM254.251 50.14C251.811 50.14 249.471 49.6 247.231 48.52C244.991 47.44 243.191 45.92 241.831 43.96C240.471 41.96 239.791 39.68 239.791 37.12V15.34H236.191V14.32H241.531C243.571 13.08 245.211 11.16 246.451 8.56C247.691 5.92 248.311 3.36 248.311 0.879997H249.391V14.32H258.091V15.34H249.391V43.12C249.391 45.08 249.731 46.58 250.411 47.62C251.091 48.62 251.991 49.12 253.111 49.12C254.711 49.12 256.411 48.22 258.211 46.42C260.051 44.58 261.731 42.12 263.251 39.04L265.351 44.8C263.991 46.56 262.331 47.9 260.371 48.82C258.411 49.7 256.371 50.14 254.251 50.14ZM267.489 49V6.88H277.089V29.02H277.209C278.009 25.58 279.169 22.7 280.689 20.38C282.209 18.02 283.909 16.26 285.789 15.1C287.709 13.94 289.649 13.36 291.609 13.36C293.449 13.36 295.149 13.8 296.709 14.68C298.269 15.52 299.509 16.72 300.429 18.28C301.389 19.8 301.869 21.54 301.869 23.5V49H292.269L292.569 24.34C292.609 21.94 292.189 20.1 291.309 18.82C290.429 17.5 289.289 16.84 287.889 16.84C286.489 16.84 285.009 17.58 283.449 19.06C281.889 20.54 280.509 22.7 279.309 25.54C278.149 28.38 277.409 31.74 277.089 35.62V49H267.489ZM326.652 49.9C323.052 49.9 319.692 49.14 316.572 47.62C313.452 46.06 310.952 43.84 309.072 40.96C307.192 38.08 306.252 34.72 306.252 30.88C306.252 27.16 307.172 23.98 309.012 21.34C310.852 18.66 313.232 16.66 316.152 15.34C319.112 13.98 322.212 13.3 325.452 13.3C328.332 13.3 331.012 13.84 333.492 14.92C335.972 15.96 337.952 17.54 339.432 19.66C340.952 21.78 341.712 24.34 341.712 27.34C341.712 28.82 341.512 30.3 341.112 31.78H315.852C315.932 35.38 316.392 38.46 317.232 41.02C318.112 43.54 319.272 45.46 320.712 46.78C322.192 48.1 323.872 48.76 325.752 48.76C327.792 48.76 329.992 47.94 332.352 46.3C334.712 44.62 337.092 42.16 339.492 38.92L341.472 44.92C339.312 46.56 336.952 47.8 334.392 48.64C331.832 49.48 329.252 49.9 326.652 49.9ZM332.472 30.76C332.712 29.44 332.832 28.16 332.832 26.92C332.832 24.24 332.492 21.96 331.812 20.08C331.132 18.2 330.232 16.8 329.112 15.88C327.992 14.96 326.772 14.5 325.452 14.5C323.892 14.5 322.372 15.14 320.892 16.42C319.452 17.66 318.252 19.52 317.292 22C316.372 24.44 315.892 27.36 315.852 30.76H332.472ZM360.36 49V14.32H369.96V24.76H370.08C371.12 21.2 372.8 18.4 375.12 16.36C377.44 14.32 379.9 13.3 382.5 13.3C385.18 13.3 387.32 14.26 388.92 16.18C390.52 18.06 391.32 20.74 391.32 24.22H391.5C392.5 20.7 394.06 18 396.18 16.12C398.3 14.24 400.6 13.3 403.08 13.3C405.8 13.3 408.04 14.3 409.8 16.3C411.56 18.3 412.44 21.1 412.44 24.7V49H402.84V23.74C402.84 21.62 402.46 20.04 401.7 19C400.98 17.92 400.08 17.38 399 17.38C397.32 17.38 395.76 18.36 394.32 20.32C392.92 22.24 391.98 24.98 391.5 28.54V49H381.9V23.74C381.9 21.5 381.5 19.82 380.7 18.7C379.9 17.58 378.94 17.02 377.82 17.02C376.66 17.02 375.54 17.5 374.46 18.46C373.38 19.42 372.44 20.82 371.64 22.66C370.84 24.46 370.28 26.62 369.96 29.14V49H360.36ZM437.511 49.9C433.911 49.9 430.551 49.14 427.431 47.62C424.311 46.06 421.811 43.84 419.931 40.96C418.051 38.08 417.111 34.72 417.111 30.88C417.111 27.16 418.031 23.98 419.871 21.34C421.711 18.66 424.091 16.66 427.011 15.34C429.971 13.98 433.071 13.3 436.311 13.3C439.191 13.3 441.871 13.84 444.351 14.92C446.831 15.96 448.811 17.54 450.291 19.66C451.811 21.78 452.571 24.34 452.571 27.34C452.571 28.82 452.371 30.3 451.971 31.78H426.711C426.791 35.38 427.251 38.46 428.091 41.02C428.971 43.54 430.131 45.46 431.571 46.78C433.051 48.1 434.731 48.76 436.611 48.76C438.651 48.76 440.851 47.94 443.211 46.3C445.571 44.62 447.951 42.16 450.351 38.92L452.331 44.92C450.171 46.56 447.811 47.8 445.251 48.64C442.691 49.48 440.111 49.9 437.511 49.9ZM443.331 30.76C443.571 29.44 443.691 28.16 443.691 26.92C443.691 24.24 443.351 21.96 442.671 20.08C441.991 18.2 441.091 16.8 439.971 15.88C438.851 14.96 437.631 14.5 436.311 14.5C434.751 14.5 433.231 15.14 431.751 16.42C430.311 17.66 429.111 19.52 428.151 22C427.231 24.44 426.751 27.36 426.711 30.76H443.331ZM470.38 50.02C465.86 50.02 460.98 49.24 455.74 47.68L457.24 41.68C460.36 44.16 463.3 45.9 466.06 46.9C468.82 47.86 471.28 48.34 473.44 48.34C475.24 48.34 476.68 48.02 477.76 47.38C478.84 46.74 479.42 45.92 479.5 44.92C479.5 43.12 478.52 41.42 476.56 39.82C474.64 38.22 471.74 36.28 467.86 34C465.1 32.36 462.86 30.96 461.14 29.8C459.46 28.6 458.04 27.3 456.88 25.9C455.72 24.5 455.14 23.06 455.14 21.58C455.14 18.9 456.9 16.88 460.42 15.52C463.94 14.12 468.24 13.42 473.32 13.42C477.6 13.42 481.62 13.86 485.38 14.74L484.42 20.74C482.26 19.14 479.6 17.76 476.44 16.6C473.28 15.44 470.56 14.86 468.28 14.86C466.56 14.86 465.18 15.16 464.14 15.76C463.14 16.36 462.64 17.24 462.64 18.4C462.64 19.36 463.34 20.36 464.74 21.4C466.18 22.44 468.46 23.86 471.58 25.66C474.78 27.5 477.34 29.08 479.26 30.4C481.22 31.72 482.9 33.22 484.3 34.9C485.74 36.58 486.46 38.36 486.46 40.24C486.42 43.6 484.84 46.08 481.72 47.68C478.64 49.24 474.86 50.02 470.38 50.02ZM501.903 50.02C497.383 50.02 492.503 49.24 487.263 47.68L488.763 41.68C491.883 44.16 494.823 45.9 497.583 46.9C500.343 47.86 502.803 48.34 504.963 48.34C506.763 48.34 508.203 48.02 509.283 47.38C510.363 46.74 510.943 45.92 511.023 44.92C511.023 43.12 510.043 41.42 508.083 39.82C506.163 38.22 503.263 36.28 499.383 34C496.623 32.36 494.383 30.96 492.663 29.8C490.983 28.6 489.563 27.3 488.403 25.9C487.243 24.5 486.663 23.06 486.663 21.58C486.663 18.9 488.423 16.88 491.943 15.52C495.463 14.12 499.763 13.42 504.843 13.42C509.123 13.42 513.143 13.86 516.903 14.74L515.943 20.74C513.783 19.14 511.123 17.76 507.963 16.6C504.803 15.44 502.083 14.86 499.803 14.86C498.083 14.86 496.703 15.16 495.663 15.76C494.663 16.36 494.163 17.24 494.163 18.4C494.163 19.36 494.863 20.36 496.263 21.4C497.703 22.44 499.983 23.86 503.103 25.66C506.303 27.5 508.863 29.08 510.783 30.4C512.743 31.72 514.423 33.22 515.823 34.9C517.263 36.58 517.983 38.36 517.983 40.24C517.943 43.6 516.363 46.08 513.243 47.68C510.163 49.24 506.383 50.02 501.903 50.02ZM556.539 49.84C554.819 49.84 553.059 49.4 551.259 48.52C549.459 47.6 547.659 46.24 545.859 44.44V49H536.259V6.88H545.859V24.76H545.919C547.119 20.96 548.779 18.1 550.899 16.18C553.059 14.26 555.339 13.3 557.739 13.3C560.099 13.3 562.219 14.04 564.099 15.52C566.019 16.96 567.519 18.96 568.599 21.52C569.679 24.08 570.219 26.92 570.219 30.04C570.219 33.64 569.619 36.96 568.419 40C567.219 43 565.579 45.4 563.499 47.2C561.419 48.96 559.099 49.84 556.539 49.84ZM552.819 46.54C555.379 46.54 557.379 44.9 558.819 41.62C560.299 38.34 561.039 34.12 561.039 28.96C561.039 25.16 560.479 22.18 559.359 20.02C558.279 17.86 556.799 16.78 554.919 16.78C553.159 16.78 551.419 17.74 549.699 19.66C548.019 21.58 546.739 24.2 545.859 27.52V43.36C547.059 44.4 548.259 45.2 549.459 45.76C550.699 46.28 551.819 46.54 552.819 46.54ZM594.015 49.9C590.415 49.9 587.055 49.14 583.935 47.62C580.815 46.06 578.315 43.84 576.435 40.96C574.555 38.08 573.615 34.72 573.615 30.88C573.615 27.16 574.535 23.98 576.375 21.34C578.215 18.66 580.595 16.66 583.515 15.34C586.475 13.98 589.575 13.3 592.815 13.3C595.695 13.3 598.375 13.84 600.855 14.92C603.335 15.96 605.315 17.54 606.795 19.66C608.315 21.78 609.075 24.34 609.075 27.34C609.075 28.82 608.875 30.3 608.475 31.78H583.215C583.295 35.38 583.755 38.46 584.595 41.02C585.475 43.54 586.635 45.46 588.075 46.78C589.555 48.1 591.235 48.76 593.115 48.76C595.155 48.76 597.355 47.94 599.715 46.3C602.075 44.62 604.455 42.16 606.855 38.92L608.835 44.92C606.675 46.56 604.315 47.8 601.755 48.64C599.195 49.48 596.615 49.9 594.015 49.9ZM599.835 30.76C600.075 29.44 600.195 28.16 600.195 26.92C600.195 24.24 599.855 21.96 599.175 20.08C598.495 18.2 597.595 16.8 596.475 15.88C595.355 14.96 594.135 14.5 592.815 14.5C591.255 14.5 589.735 15.14 588.255 16.42C586.815 17.66 585.615 19.52 584.655 22C583.735 24.44 583.255 27.36 583.215 30.76H599.835ZM628.9 50.14C626.46 50.14 624.12 49.6 621.88 48.52C619.64 47.44 617.84 45.92 616.48 43.96C615.12 41.96 614.44 39.68 614.44 37.12V15.34H610.84V14.32H616.18C618.22 13.08 619.86 11.16 621.1 8.56C622.34 5.92 622.96 3.36 622.96 0.879997H624.04V14.32H632.74V15.34H624.04V43.12C624.04 45.08 624.38 46.58 625.06 47.62C625.74 48.62 626.64 49.12 627.76 49.12C629.36 49.12 631.06 48.22 632.86 46.42C634.7 44.58 636.38 42.12 637.9 39.04L640 44.8C638.64 46.56 636.98 47.9 635.02 48.82C633.06 49.7 631.02 50.14 628.9 50.14ZM649.435 49L636.055 14.32H645.595L655.795 40.54L665.875 14.32H670.435L681.475 42.76L686.995 28.84C687.875 26.48 688.315 23.92 688.315 21.16C688.315 18.84 688.035 16.56 687.475 14.32H693.475L680.035 49H674.275L663.775 22.12L653.395 49H649.435ZM714.249 49.9C710.649 49.9 707.289 49.14 704.169 47.62C701.049 46.06 698.549 43.84 696.669 40.96C694.789 38.08 693.849 34.72 693.849 30.88C693.849 27.16 694.769 23.98 696.609 21.34C698.449 18.66 700.829 16.66 703.749 15.34C706.709 13.98 709.809 13.3 713.049 13.3C715.929 13.3 718.609 13.84 721.089 14.92C723.569 15.96 725.549 17.54 727.029 19.66C728.549 21.78 729.309 24.34 729.309 27.34C729.309 28.82 729.109 30.3 728.709 31.78H703.449C703.529 35.38 703.989 38.46 704.829 41.02C705.709 43.54 706.869 45.46 708.309 46.78C709.789 48.1 711.469 48.76 713.349 48.76C715.389 48.76 717.589 47.94 719.949 46.3C722.309 44.62 724.689 42.16 727.089 38.92L729.069 44.92C726.909 46.56 724.549 47.8 721.989 48.64C719.429 49.48 716.849 49.9 714.249 49.9ZM720.069 30.76C720.309 29.44 720.429 28.16 720.429 26.92C720.429 24.24 720.089 21.96 719.409 20.08C718.729 18.2 717.829 16.8 716.709 15.88C715.589 14.96 714.369 14.5 713.049 14.5C711.489 14.5 709.969 15.14 708.489 16.42C707.049 17.66 705.849 19.52 704.889 22C703.969 24.44 703.489 27.36 703.449 30.76H720.069ZM753.097 49.9C749.497 49.9 746.137 49.14 743.017 47.62C739.897 46.06 737.397 43.84 735.517 40.96C733.637 38.08 732.697 34.72 732.697 30.88C732.697 27.16 733.617 23.98 735.457 21.34C737.297 18.66 739.677 16.66 742.597 15.34C745.557 13.98 748.657 13.3 751.897 13.3C754.777 13.3 757.457 13.84 759.937 14.92C762.417 15.96 764.397 17.54 765.877 19.66C767.397 21.78 768.157 24.34 768.157 27.34C768.157 28.82 767.957 30.3 767.557 31.78H742.297C742.377 35.38 742.837 38.46 743.677 41.02C744.557 43.54 745.717 45.46 747.157 46.78C748.637 48.1 750.317 48.76 752.197 48.76C754.237 48.76 756.437 47.94 758.797 46.3C761.157 44.62 763.537 42.16 765.937 38.92L767.917 44.92C765.757 46.56 763.397 47.8 760.837 48.64C758.277 49.48 755.697 49.9 753.097 49.9ZM758.917 30.76C759.157 29.44 759.277 28.16 759.277 26.92C759.277 24.24 758.937 21.96 758.257 20.08C757.577 18.2 756.677 16.8 755.557 15.88C754.437 14.96 753.217 14.5 751.897 14.5C750.337 14.5 748.817 15.14 747.337 16.42C745.897 17.66 744.697 19.52 743.737 22C742.817 24.44 742.337 27.36 742.297 30.76H758.917ZM798.838 13.3C800.358 13.3 801.798 13.64 803.158 14.32C804.558 14.96 805.698 16 806.578 17.44C807.458 18.84 807.898 20.6 807.898 22.72V49H798.298V23.26C798.298 20.94 797.918 19.22 797.158 18.1C796.438 16.94 795.438 16.36 794.158 16.36C792.478 16.36 790.558 17.26 788.398 19.06C786.238 20.82 784.298 23.1 782.578 25.9V49H772.978V14.38H782.578V24.16C784.978 20.52 787.598 17.8 790.438 16C793.278 14.2 796.078 13.3 798.838 13.3ZM160.497 140V105.32H170.097V121.88H170.157C170.957 118.52 172.057 115.54 173.457 112.94C174.897 110.3 176.557 108.24 178.437 106.76C180.317 105.24 182.297 104.48 184.377 104.48C185.537 104.48 186.777 104.76 188.097 105.32L187.077 111.32C185.357 110.52 183.677 110.12 182.037 110.12C179.197 110.12 176.777 111.4 174.777 113.96C172.777 116.48 171.217 120.1 170.097 124.82V140H160.497ZM198.376 140.9C195.816 140.9 193.656 140.44 191.896 139.52C190.136 138.56 188.816 137.32 187.936 135.8C187.056 134.28 186.616 132.62 186.616 130.82C186.616 127.42 187.756 124.56 190.036 122.24C192.316 119.88 195.096 117.98 198.376 116.54C201.696 115.1 205.756 113.68 210.556 112.28C210.556 109.96 210.116 108.2 209.236 107C208.356 105.8 207.096 105.2 205.456 105.2C203.216 105.2 200.916 106.02 198.556 107.66C196.236 109.3 194.136 111.54 192.256 114.38L190.456 107.48C193.016 106.44 195.656 105.64 198.376 105.08C201.136 104.48 203.756 104.18 206.236 104.18C210.396 104.18 213.756 105.06 216.316 106.82C218.876 108.54 220.156 111.24 220.156 114.92V140H210.556V134.42C208.996 136.26 207.116 137.8 204.916 139.04C202.756 140.28 200.576 140.9 198.376 140.9ZM202.876 137.54C204.076 137.54 205.336 137.16 206.656 136.4C208.016 135.64 209.316 134.64 210.556 133.4V113.3C205.516 114.82 201.856 116.8 199.576 119.24C197.336 121.64 196.216 124.8 196.216 128.72C196.216 131.36 196.836 133.5 198.076 135.14C199.356 136.74 200.956 137.54 202.876 137.54ZM236.759 140L223.379 105.32H232.919L243.119 131.54L253.199 105.32H257.759L268.799 133.76L274.319 119.84C275.199 117.48 275.639 114.92 275.639 112.16C275.639 109.84 275.359 107.56 274.799 105.32H280.799L267.359 140H261.599L251.099 113.12L240.719 140H236.759ZM310.466 140.9C307.906 140.9 305.746 140.44 303.986 139.52C302.226 138.56 300.906 137.32 300.026 135.8C299.146 134.28 298.706 132.62 298.706 130.82C298.706 127.42 299.846 124.56 302.126 122.24C304.406 119.88 307.186 117.98 310.466 116.54C313.786 115.1 317.846 113.68 322.646 112.28C322.646 109.96 322.206 108.2 321.326 107C320.446 105.8 319.186 105.2 317.546 105.2C315.306 105.2 313.006 106.02 310.646 107.66C308.326 109.3 306.226 111.54 304.346 114.38L302.546 107.48C305.106 106.44 307.746 105.64 310.466 105.08C313.226 104.48 315.846 104.18 318.326 104.18C322.486 104.18 325.846 105.06 328.406 106.82C330.966 108.54 332.246 111.24 332.246 114.92V140H322.646V134.42C321.086 136.26 319.206 137.8 317.006 139.04C314.846 140.28 312.666 140.9 310.466 140.9ZM314.966 137.54C316.166 137.54 317.426 137.16 318.746 136.4C320.106 135.64 321.406 134.64 322.646 133.4V113.3C317.606 114.82 313.946 116.8 311.666 119.24C309.426 121.64 308.306 124.8 308.306 128.72C308.306 131.36 308.926 133.5 310.166 135.14C311.446 136.74 313.046 137.54 314.966 137.54ZM364.541 104.3C366.061 104.3 367.501 104.64 368.861 105.32C370.261 105.96 371.401 107 372.281 108.44C373.161 109.84 373.601 111.6 373.601 113.72V140H364.001V114.26C364.001 111.94 363.621 110.22 362.861 109.1C362.141 107.94 361.141 107.36 359.861 107.36C358.181 107.36 356.261 108.26 354.101 110.06C351.941 111.82 350.001 114.1 348.281 116.9V140H338.681V105.38H348.281V115.16C350.681 111.52 353.301 108.8 356.141 107C358.981 105.2 361.781 104.3 364.541 104.3ZM392.07 140.96C389.63 140.96 387.33 140.3 385.17 138.98C383.05 137.66 381.31 135.66 379.95 132.98C378.63 130.3 377.97 127.06 377.97 123.26C377.97 119.26 378.77 115.86 380.37 113.06C382.01 110.22 384.25 108.1 387.09 106.7C389.97 105.26 393.25 104.54 396.93 104.54C399.05 104.54 401.25 104.84 403.53 105.44V97.88H413.13V140H403.53V132.68C402.49 135.4 400.93 137.46 398.85 138.86C396.81 140.26 394.55 140.96 392.07 140.96ZM395.25 138.86C396.93 138.86 398.51 138.08 399.99 136.52C401.47 134.92 402.65 132.68 403.53 129.8V106.64C402.29 106.24 401.03 106.04 399.75 106.04C395.79 106.04 392.65 107.5 390.33 110.42C388.01 113.34 386.85 117.66 386.85 123.38C386.85 126.62 387.23 129.42 387.99 131.78C388.75 134.1 389.77 135.86 391.05 137.06C392.33 138.26 393.73 138.86 395.25 138.86ZM435.297 140V106.34H429.417V105.32H435.297V104.18C434.657 102.38 434.337 100.7 434.337 99.14C434.337 93.66 437.857 90.92 444.897 90.92C448.057 90.92 451.717 91.72 455.877 93.32L453.957 99.32C451.597 97.4 449.197 95.88 446.757 94.76C444.317 93.64 442.317 93.08 440.757 93.08C439.837 93.08 439.117 93.28 438.597 93.68C438.117 94.08 437.877 94.66 437.877 95.42C437.877 96.42 438.437 97.76 439.557 99.44C440.717 101.12 442.477 103.08 444.837 105.32H451.917V106.34H444.897V140H435.297ZM461.081 102.8C459.721 102.8 458.561 102.32 457.601 101.36C456.641 100.4 456.161 99.24 456.161 97.88C456.161 96.48 456.641 95.32 457.601 94.4C458.561 93.44 459.721 92.96 461.081 92.96C462.481 92.96 463.641 93.44 464.561 94.4C465.521 95.32 466.001 96.48 466.001 97.88C466.001 99.24 465.521 100.4 464.561 101.36C463.641 102.32 462.481 102.8 461.081 102.8ZM465.881 140H456.281V105.32H465.881V140ZM498.545 104.3C500.065 104.3 501.505 104.64 502.865 105.32C504.265 105.96 505.405 107 506.285 108.44C507.165 109.84 507.605 111.6 507.605 113.72V140H498.005V114.26C498.005 111.94 497.625 110.22 496.865 109.1C496.145 107.94 495.145 107.36 493.865 107.36C492.185 107.36 490.265 108.26 488.105 110.06C485.945 111.82 484.005 114.1 482.285 116.9V140H472.685V105.38H482.285V115.16C484.685 111.52 487.305 108.8 490.145 107C492.985 105.2 495.785 104.3 498.545 104.3ZM532.374 140.9C528.774 140.9 525.414 140.14 522.294 138.62C519.174 137.06 516.674 134.84 514.794 131.96C512.914 129.08 511.974 125.72 511.974 121.88C511.974 118.16 512.894 114.98 514.734 112.34C516.574 109.66 518.954 107.66 521.874 106.34C524.834 104.98 527.934 104.3 531.174 104.3C534.054 104.3 536.734 104.84 539.214 105.92C541.694 106.96 543.674 108.54 545.154 110.66C546.674 112.78 547.434 115.34 547.434 118.34C547.434 119.82 547.234 121.3 546.834 122.78H521.574C521.654 126.38 522.114 129.46 522.954 132.02C523.834 134.54 524.994 136.46 526.434 137.78C527.914 139.1 529.594 139.76 531.474 139.76C533.514 139.76 535.714 138.94 538.074 137.3C540.434 135.62 542.814 133.16 545.214 129.92L547.194 135.92C545.034 137.56 542.674 138.8 540.114 139.64C537.554 140.48 534.974 140.9 532.374 140.9ZM538.194 121.76C538.434 120.44 538.554 119.16 538.554 117.92C538.554 115.24 538.214 112.96 537.534 111.08C536.854 109.2 535.954 107.8 534.834 106.88C533.714 105.96 532.494 105.5 531.174 105.5C529.614 105.5 528.094 106.14 526.614 107.42C525.174 108.66 523.974 110.52 523.014 113C522.094 115.44 521.614 118.36 521.574 121.76H538.194ZM565.243 141.02C560.723 141.02 555.843 140.24 550.603 138.68L552.103 132.68C555.223 135.16 558.163 136.9 560.923 137.9C563.683 138.86 566.143 139.34 568.303 139.34C570.103 139.34 571.543 139.02 572.623 138.38C573.703 137.74 574.283 136.92 574.363 135.92C574.363 134.12 573.383 132.42 571.423 130.82C569.503 129.22 566.603 127.28 562.723 125C559.963 123.36 557.723 121.96 556.003 120.8C554.323 119.6 552.903 118.3 551.743 116.9C550.583 115.5 550.003 114.06 550.003 112.58C550.003 109.9 551.763 107.88 555.283 106.52C558.803 105.12 563.103 104.42 568.183 104.42C572.463 104.42 576.483 104.86 580.243 105.74L579.283 111.74C577.123 110.14 574.463 108.76 571.303 107.6C568.143 106.44 565.423 105.86 563.143 105.86C561.423 105.86 560.043 106.16 559.003 106.76C558.003 107.36 557.503 108.24 557.503 109.4C557.503 110.36 558.203 111.36 559.603 112.4C561.043 113.44 563.323 114.86 566.443 116.66C569.643 118.5 572.203 120.08 574.123 121.4C576.083 122.72 577.763 124.22 579.163 125.9C580.603 127.58 581.323 129.36 581.323 131.24C581.283 134.6 579.703 137.08 576.583 138.68C573.503 140.24 569.723 141.02 565.243 141.02ZM596.767 141.02C592.247 141.02 587.367 140.24 582.127 138.68L583.627 132.68C586.747 135.16 589.687 136.9 592.447 137.9C595.207 138.86 597.667 139.34 599.827 139.34C601.627 139.34 603.067 139.02 604.147 138.38C605.227 137.74 605.807 136.92 605.887 135.92C605.887 134.12 604.907 132.42 602.947 130.82C601.027 129.22 598.127 127.28 594.247 125C591.487 123.36 589.247 121.96 587.527 120.8C585.847 119.6 584.427 118.3 583.267 116.9C582.107 115.5 581.527 114.06 581.527 112.58C581.527 109.9 583.287 107.88 586.807 106.52C590.327 105.12 594.627 104.42 599.707 104.42C603.987 104.42 608.007 104.86 611.767 105.74L610.807 111.74C608.647 110.14 605.987 108.76 602.827 107.6C599.667 106.44 596.947 105.86 594.667 105.86C592.947 105.86 591.567 106.16 590.527 106.76C589.527 107.36 589.027 108.24 589.027 109.4C589.027 110.36 589.727 111.36 591.127 112.4C592.567 113.44 594.847 114.86 597.967 116.66C601.167 118.5 603.727 120.08 605.647 121.4C607.607 122.72 609.287 124.22 610.687 125.9C612.127 127.58 612.847 129.36 612.847 131.24C612.807 134.6 611.227 137.08 608.107 138.68C605.027 140.24 601.247 141.02 596.767 141.02ZM635.382 140.9C631.782 140.9 628.422 140.14 625.302 138.62C622.182 137.06 619.682 134.84 617.802 131.96C615.922 129.08 614.982 125.72 614.982 121.88C614.982 118.16 615.902 114.98 617.742 112.34C619.582 109.66 621.962 107.66 624.882 106.34C627.842 104.98 630.942 104.3 634.182 104.3C637.062 104.3 639.742 104.84 642.222 105.92C644.702 106.96 646.682 108.54 648.162 110.66C649.682 112.78 650.442 115.34 650.442 118.34C650.442 119.82 650.242 121.3 649.842 122.78H624.582C624.662 126.38 625.122 129.46 625.962 132.02C626.842 134.54 628.002 136.46 629.442 137.78C630.922 139.1 632.602 139.76 634.482 139.76C636.522 139.76 638.722 138.94 641.082 137.3C643.442 135.62 645.822 133.16 648.222 129.92L650.202 135.92C648.042 137.56 645.682 138.8 643.122 139.64C640.562 140.48 637.982 140.9 635.382 140.9ZM641.202 121.76C641.442 120.44 641.562 119.16 641.562 117.92C641.562 115.24 641.222 112.96 640.542 111.08C639.862 109.2 638.962 107.8 637.842 106.88C636.722 105.96 635.502 105.5 634.182 105.5C632.622 105.5 631.102 106.14 629.622 107.42C628.182 108.66 626.982 110.52 626.022 113C625.102 115.44 624.622 118.36 624.582 121.76H641.202Z" fill="white"/>
</svg>
