<svg width="594" height="54" viewBox="0 0 594 54" fill="none" xmlns="http://www.w3.org/2000/svg">
<path d="M12.5 6.75C9.96667 6.75 7.85 7.08333 6.15 7.75C4.45 8.38333 2.65 9.43333 0.75 10.9V5.9H32.25V10.9C30.35 9.43333 28.5667 8.38333 26.9 7.75C25.2333 7.08333 23.1 6.75 20.5 6.75V41H12.5V6.75ZM35.4078 41V12.1H43.4078V25.9H43.4578C44.1245 23.1 45.0411 20.6167 46.2078 18.45C47.4078 16.25 48.7911 14.5333 50.3578 13.3C51.9245 12.0333 53.5745 11.4 55.3078 11.4C56.2745 11.4 57.3078 11.6333 58.4078 12.1L57.5578 17.1C56.1245 16.4333 54.7245 16.1 53.3578 16.1C50.9911 16.1 48.9745 17.1667 47.3078 19.3C45.6411 21.4 44.3411 24.4167 43.4078 28.35V41H35.4078ZM70.768 41.8C69.168 41.8 67.6846 41.45 66.318 40.75C64.9513 40.0167 63.8513 38.95 63.018 37.55C62.218 36.15 61.818 34.4667 61.818 32.5V12.1H69.818V36.1C69.818 37.4333 70.1013 38.45 70.668 39.15C71.268 39.8167 72.0513 40.15 73.018 40.15C74.118 40.15 75.268 39.6667 76.468 38.7C77.7013 37.7333 78.7846 36.3833 79.718 34.65C80.6513 32.8833 81.3013 30.9167 81.668 28.75V12.1H89.668V41H81.668V32.3H81.518C80.4513 35.3667 78.968 37.7167 77.068 39.35C75.168 40.9833 73.068 41.8 70.768 41.8ZM106.632 41.85C102.865 41.85 98.7983 41.2 94.4316 39.9L95.6816 34.9C98.2816 36.9667 100.732 38.4167 103.032 39.25C105.332 40.05 107.382 40.45 109.182 40.45C110.682 40.45 111.882 40.1833 112.782 39.65C113.682 39.1167 114.165 38.4333 114.232 37.6C114.232 36.1 113.415 34.6833 111.782 33.35C110.182 32.0167 107.765 30.4 104.532 28.5C102.232 27.1333 100.365 25.9667 98.9316 25C97.5316 24 96.3483 22.9167 95.3816 21.75C94.415 20.5833 93.9316 19.3833 93.9316 18.15C93.9316 15.9167 95.3983 14.2333 98.3316 13.1C101.265 11.9333 104.848 11.35 109.082 11.35C112.648 11.35 115.998 11.7167 119.132 12.45L118.332 17.45C116.532 16.1167 114.315 14.9667 111.682 14C109.048 13.0333 106.782 12.55 104.882 12.55C103.448 12.55 102.298 12.8 101.432 13.3C100.598 13.8 100.182 14.5333 100.182 15.5C100.182 16.3 100.765 17.1333 101.932 18C103.132 18.8667 105.032 20.05 107.632 21.55C110.298 23.0833 112.432 24.4 114.032 25.5C115.665 26.6 117.065 27.85 118.232 29.25C119.432 30.65 120.032 32.1333 120.032 33.7C119.998 36.5 118.682 38.5667 116.082 39.9C113.515 41.2 110.365 41.85 106.632 41.85ZM135.9 41.95C133.866 41.95 131.916 41.5 130.05 40.6C128.183 39.7 126.683 38.4333 125.55 36.8C124.416 35.1333 123.85 33.2333 123.85 31.1V12.95H120.85V12.1H125.3C127 11.0667 128.366 9.46667 129.4 7.3C130.433 5.1 130.95 2.96667 130.95 0.899998H131.85V12.1H139.1V12.95H131.85V36.1C131.85 37.7333 132.133 38.9833 132.7 39.85C133.266 40.6833 134.016 41.1 134.95 41.1C136.283 41.1 137.7 40.35 139.2 38.85C140.733 37.3167 142.133 35.2667 143.4 32.7L145.15 37.5C144.016 38.9667 142.633 40.0833 141 40.85C139.366 41.5833 137.666 41.95 135.9 41.95ZM161.858 41.75C158.858 41.75 156.058 41.1167 153.458 39.85C150.858 38.55 148.775 36.7 147.208 34.3C145.642 31.9 144.858 29.1 144.858 25.9C144.858 22.8 145.625 20.15 147.158 17.95C148.692 15.7167 150.675 14.05 153.108 12.95C155.575 11.8167 158.158 11.25 160.858 11.25C163.258 11.25 165.492 11.7 167.558 12.6C169.625 13.4667 171.275 14.7833 172.508 16.55C173.775 18.3167 174.408 20.45 174.408 22.95C174.408 24.1833 174.242 25.4167 173.908 26.65H152.858C152.925 29.65 153.308 32.2167 154.008 34.35C154.742 36.45 155.708 38.05 156.908 39.15C158.142 40.25 159.542 40.8 161.108 40.8C162.808 40.8 164.642 40.1167 166.608 38.75C168.575 37.35 170.558 35.3 172.558 32.6L174.208 37.6C172.408 38.9667 170.442 40 168.308 40.7C166.175 41.4 164.025 41.75 161.858 41.75ZM166.708 25.8C166.908 24.7 167.008 23.6333 167.008 22.6C167.008 20.3667 166.725 18.4667 166.158 16.9C165.592 15.3333 164.842 14.1667 163.908 13.4C162.975 12.6333 161.958 12.25 160.858 12.25C159.558 12.25 158.292 12.7833 157.058 13.85C155.858 14.8833 154.858 16.4333 154.058 18.5C153.292 20.5333 152.892 22.9667 152.858 25.8H166.708ZM188.981 41.8C186.948 41.8 185.031 41.25 183.231 40.15C181.465 39.05 180.015 37.3833 178.881 35.15C177.781 32.9167 177.231 30.2167 177.231 27.05C177.231 23.7167 177.898 20.8833 179.231 18.55C180.598 16.1833 182.465 14.4167 184.831 13.25C187.231 12.05 189.965 11.45 193.031 11.45C194.798 11.45 196.631 11.7 198.531 12.2V5.9H206.531V41H198.531V34.9C197.665 37.1667 196.365 38.8833 194.631 40.05C192.931 41.2167 191.048 41.8 188.981 41.8ZM191.631 40.05C193.031 40.05 194.348 39.4 195.581 38.1C196.815 36.7667 197.798 34.9 198.531 32.5V13.2C197.498 12.8667 196.448 12.7 195.381 12.7C192.081 12.7 189.465 13.9167 187.531 16.35C185.598 18.7833 184.631 22.3833 184.631 27.15C184.631 29.85 184.948 32.1833 185.581 34.15C186.215 36.0833 187.065 37.55 188.131 38.55C189.198 39.55 190.365 40.05 191.631 40.05ZM240.003 41.7C238.57 41.7 237.103 41.3333 235.603 40.6C234.103 39.8333 232.603 38.7 231.103 37.2V41H223.103V5.9H231.103V20.8H231.153C232.153 17.6333 233.536 15.25 235.303 13.65C237.103 12.05 239.003 11.25 241.003 11.25C242.97 11.25 244.736 11.8667 246.303 13.1C247.903 14.3 249.153 15.9667 250.053 18.1C250.953 20.2333 251.403 22.6 251.403 25.2C251.403 28.2 250.903 30.9667 249.903 33.5C248.903 36 247.536 38 245.803 39.5C244.07 40.9667 242.136 41.7 240.003 41.7ZM236.903 38.95C239.036 38.95 240.703 37.5833 241.903 34.85C243.136 32.1167 243.753 28.6 243.753 24.3C243.753 21.1333 243.286 18.65 242.353 16.85C241.453 15.05 240.22 14.15 238.653 14.15C237.186 14.15 235.736 14.95 234.303 16.55C232.903 18.15 231.836 20.3333 231.103 23.1V36.3C232.103 37.1667 233.103 37.8333 234.103 38.3C235.136 38.7333 236.07 38.95 236.903 38.95ZM263.083 53.2C260.317 53.2 257.467 52.8 254.533 52L256.183 47C260.083 50.3 263.483 51.95 266.383 51.95C269.017 51.95 271.133 51.0667 272.733 49.3C274.367 47.5333 275.183 45.2667 275.183 42.5V33.8H275.083C274.483 35.5 273.617 36.9667 272.483 38.2C271.35 39.4 270.117 40.3167 268.783 40.95C267.45 41.55 266.167 41.85 264.933 41.85C263.167 41.85 261.517 41.3 259.983 40.2C258.483 39.1 257.267 37.5333 256.333 35.5C255.433 33.4667 254.983 31.0833 254.983 28.35V12.1H262.983V30.5C262.983 33.3667 263.433 35.5667 264.333 37.1C265.233 38.6333 266.367 39.4 267.733 39.4C268.6 39.4 269.517 39.1 270.483 38.5C271.45 37.8667 272.35 36.95 273.183 35.75C274.05 34.5167 274.717 33.0667 275.183 31.4V12.1H283.183V35.65C283.183 39.1167 282.317 42.1667 280.583 44.8C278.85 47.4667 276.45 49.5333 273.383 51C270.35 52.4667 266.917 53.2 263.083 53.2ZM318.433 41.8C314.467 41.8 310.967 41.1 307.933 39.7C304.9 38.3 302.533 36.25 300.833 33.55C299.133 30.8167 298.283 27.5167 298.283 23.65C298.283 19.65 299.167 16.25 300.933 13.45C302.7 10.6167 305.1 8.5 308.133 7.1C311.167 5.66667 314.567 4.95 318.333 4.95C322.067 4.95 325.933 5.63333 329.933 7L329.433 12.15C328.733 11.6167 327.75 10.7833 326.483 9.65C325.017 8.38333 323.85 7.46667 322.983 6.9C322.15 6.33333 321.317 6.05 320.483 6.05C315.95 6.05 312.45 7.58333 309.983 10.65C307.517 13.7167 306.283 18.05 306.283 23.65C306.283 26.65 306.9 29.4667 308.133 32.1C309.4 34.7333 311.133 36.8333 313.333 38.4C315.533 39.9667 317.983 40.75 320.683 40.75C321.517 40.75 322.417 40.4 323.383 39.7C324.383 39 325.533 38.0333 326.833 36.8C327.933 35.7667 328.733 35.0667 329.233 34.7L329.933 40.05C325.833 41.2167 322 41.8 318.433 41.8ZM347.37 41.85C344.237 41.85 341.503 41.2667 339.17 40.1C336.837 38.9 335.037 37.1667 333.77 34.9C332.503 32.6333 331.87 29.9167 331.87 26.75C331.87 23.5167 332.503 20.75 333.77 18.45C335.037 16.1167 336.837 14.35 339.17 13.15C341.503 11.9167 344.237 11.3 347.37 11.3C350.47 11.3 353.17 11.9167 355.47 13.15C357.803 14.35 359.603 16.1167 360.87 18.45C362.137 20.75 362.77 23.5167 362.77 26.75C362.77 29.9167 362.137 32.6333 360.87 34.9C359.603 37.1667 357.803 38.9 355.47 40.1C353.17 41.2667 350.47 41.85 347.37 41.85ZM347.37 40.95C348.97 40.95 350.37 40.2667 351.57 38.9C352.77 37.5 353.687 35.7167 354.32 33.55C354.953 31.35 355.27 29.0833 355.27 26.75C355.27 24.55 354.953 22.3167 354.32 20.05C353.687 17.7833 352.77 15.9 351.57 14.4C350.37 12.9 348.97 12.15 347.37 12.15C345.703 12.15 344.27 12.9 343.07 14.4C341.87 15.8667 340.953 17.7333 340.32 20C339.72 22.2667 339.42 24.5167 339.42 26.75C339.42 29.1167 339.72 31.3833 340.32 33.55C340.953 35.7167 341.87 37.5 343.07 38.9C344.27 40.2667 345.703 40.95 347.37 40.95ZM366.609 41V12.1H374.609V25.9H374.659C375.326 23.1 376.242 20.6167 377.409 18.45C378.609 16.25 379.992 14.5333 381.559 13.3C383.126 12.0333 384.776 11.4 386.509 11.4C387.476 11.4 388.509 11.6333 389.609 12.1L388.759 17.1C387.326 16.4333 385.926 16.1 384.559 16.1C382.192 16.1 380.176 17.1667 378.509 19.3C376.842 21.4 375.542 24.4167 374.609 28.35V41H366.609ZM392.488 49.45V12.1H400.488V15.2C401.721 13.9333 403.121 12.9667 404.688 12.3C406.255 11.6333 407.855 11.3 409.488 11.3C411.555 11.3 413.471 11.8333 415.238 12.9C417.038 13.9333 418.488 15.5 419.588 17.6C420.688 19.6667 421.238 22.1833 421.238 25.15C421.238 28.2833 420.571 31.1167 419.238 33.65C417.905 36.1833 416.088 38.1667 413.788 39.6C411.521 41 409.038 41.7 406.338 41.7C404.305 41.7 402.355 41.2667 400.488 40.4V49.45H392.488ZM404.388 40.45C406.321 40.45 407.988 39.7667 409.388 38.4C410.788 37.0333 411.855 35.2333 412.588 33C413.321 30.7667 413.688 28.35 413.688 25.75C413.688 23.4167 413.388 21.3 412.788 19.4C412.221 17.5 411.388 16.0167 410.288 14.95C409.221 13.85 407.988 13.3 406.588 13.3C405.555 13.3 404.505 13.5667 403.438 14.1C402.405 14.6 401.421 15.3333 400.488 16.3V39.55C401.855 40.15 403.155 40.45 404.388 40.45ZM439.655 41.85C436.522 41.85 433.788 41.2667 431.455 40.1C429.122 38.9 427.322 37.1667 426.055 34.9C424.788 32.6333 424.155 29.9167 424.155 26.75C424.155 23.5167 424.788 20.75 426.055 18.45C427.322 16.1167 429.122 14.35 431.455 13.15C433.788 11.9167 436.522 11.3 439.655 11.3C442.755 11.3 445.455 11.9167 447.755 13.15C450.088 14.35 451.888 16.1167 453.155 18.45C454.422 20.75 455.055 23.5167 455.055 26.75C455.055 29.9167 454.422 32.6333 453.155 34.9C451.888 37.1667 450.088 38.9 447.755 40.1C445.455 41.2667 442.755 41.85 439.655 41.85ZM439.655 40.95C441.255 40.95 442.655 40.2667 443.855 38.9C445.055 37.5 445.972 35.7167 446.605 33.55C447.238 31.35 447.555 29.0833 447.555 26.75C447.555 24.55 447.238 22.3167 446.605 20.05C445.972 17.7833 445.055 15.9 443.855 14.4C442.655 12.9 441.255 12.15 439.655 12.15C437.988 12.15 436.555 12.9 435.355 14.4C434.155 15.8667 433.238 17.7333 432.605 20C432.005 22.2667 431.705 24.5167 431.705 26.75C431.705 29.1167 432.005 31.3833 432.605 33.55C433.238 35.7167 434.155 37.5 435.355 38.9C436.555 40.2667 437.988 40.95 439.655 40.95ZM458.894 41V12.1H466.894V25.9H466.944C467.611 23.1 468.527 20.6167 469.694 18.45C470.894 16.25 472.277 14.5333 473.844 13.3C475.411 12.0333 477.061 11.4 478.794 11.4C479.761 11.4 480.794 11.6333 481.894 12.1L481.044 17.1C479.611 16.4333 478.211 16.1 476.844 16.1C474.477 16.1 472.461 17.1667 470.794 19.3C469.127 21.4 467.827 24.4167 466.894 28.35V41H458.894ZM490.46 41.75C488.326 41.75 486.526 41.3667 485.06 40.6C483.593 39.8 482.493 38.7667 481.76 37.5C481.026 36.2333 480.66 34.85 480.66 33.35C480.66 30.5167 481.61 28.1333 483.51 26.2C485.41 24.2333 487.726 22.65 490.46 21.45C493.226 20.25 496.61 19.0667 500.61 17.9C500.61 15.9667 500.243 14.5 499.51 13.5C498.776 12.5 497.726 12 496.36 12C494.493 12 492.576 12.6833 490.61 14.05C488.676 15.4167 486.926 17.2833 485.36 19.65L483.86 13.9C485.993 13.0333 488.193 12.3667 490.46 11.9C492.76 11.4 494.943 11.15 497.01 11.15C500.476 11.15 503.276 11.8833 505.41 13.35C507.543 14.7833 508.61 17.0333 508.61 20.1V41H500.61V36.35C499.31 37.8833 497.743 39.1667 495.91 40.2C494.11 41.2333 492.293 41.75 490.46 41.75ZM494.21 38.95C495.21 38.95 496.26 38.6333 497.36 38C498.493 37.3667 499.576 36.5333 500.61 35.5V18.75C496.41 20.0167 493.36 21.6667 491.46 23.7C489.593 25.7 488.66 28.3333 488.66 31.6C488.66 33.8 489.176 35.5833 490.21 36.95C491.276 38.2833 492.61 38.95 494.21 38.95ZM526.525 41.95C524.491 41.95 522.541 41.5 520.675 40.6C518.808 39.7 517.308 38.4333 516.175 36.8C515.041 35.1333 514.475 33.2333 514.475 31.1V12.95H511.475V12.1H515.925C517.625 11.0667 518.991 9.46667 520.025 7.3C521.058 5.1 521.575 2.96667 521.575 0.899998H522.475V12.1H529.725V12.95H522.475V36.1C522.475 37.7333 522.758 38.9833 523.325 39.85C523.891 40.6833 524.641 41.1 525.575 41.1C526.908 41.1 528.325 40.35 529.825 38.85C531.358 37.3167 532.758 35.2667 534.025 32.7L535.775 37.5C534.641 38.9667 533.258 40.0833 531.625 40.85C529.991 41.5833 528.291 41.95 526.525 41.95ZM552.483 41.75C549.483 41.75 546.683 41.1167 544.083 39.85C541.483 38.55 539.4 36.7 537.833 34.3C536.267 31.9 535.483 29.1 535.483 25.9C535.483 22.8 536.25 20.15 537.783 17.95C539.317 15.7167 541.3 14.05 543.733 12.95C546.2 11.8167 548.783 11.25 551.483 11.25C553.883 11.25 556.117 11.7 558.183 12.6C560.25 13.4667 561.9 14.7833 563.133 16.55C564.4 18.3167 565.033 20.45 565.033 22.95C565.033 24.1833 564.867 25.4167 564.533 26.65H543.483C543.55 29.65 543.933 32.2167 544.633 34.35C545.367 36.45 546.333 38.05 547.533 39.15C548.767 40.25 550.167 40.8 551.733 40.8C553.433 40.8 555.267 40.1167 557.233 38.75C559.2 37.35 561.183 35.3 563.183 32.6L564.833 37.6C563.033 38.9667 561.067 40 558.933 40.7C556.8 41.4 554.65 41.75 552.483 41.75ZM557.333 25.8C557.533 24.7 557.633 23.6333 557.633 22.6C557.633 20.3667 557.35 18.4667 556.783 16.9C556.217 15.3333 555.467 14.1667 554.533 13.4C553.6 12.6333 552.583 12.25 551.483 12.25C550.183 12.25 548.917 12.7833 547.683 13.85C546.483 14.8833 545.483 16.4333 544.683 18.5C543.917 20.5333 543.517 22.9667 543.483 25.8H557.333ZM579.874 41.85C576.107 41.85 572.04 41.2 567.674 39.9L568.924 34.9C571.524 36.9667 573.974 38.4167 576.274 39.25C578.574 40.05 580.624 40.45 582.424 40.45C583.924 40.45 585.124 40.1833 586.024 39.65C586.924 39.1167 587.407 38.4333 587.474 37.6C587.474 36.1 586.657 34.6833 585.024 33.35C583.424 32.0167 581.007 30.4 577.774 28.5C575.474 27.1333 573.607 25.9667 572.174 25C570.774 24 569.59 22.9167 568.624 21.75C567.657 20.5833 567.174 19.3833 567.174 18.15C567.174 15.9167 568.64 14.2333 571.574 13.1C574.507 11.9333 578.09 11.35 582.324 11.35C585.89 11.35 589.24 11.7167 592.374 12.45L591.574 17.45C589.774 16.1167 587.557 14.9667 584.924 14C582.29 13.0333 580.024 12.55 578.124 12.55C576.69 12.55 575.54 12.8 574.674 13.3C573.84 13.8 573.424 14.5333 573.424 15.5C573.424 16.3 574.007 17.1333 575.174 18C576.374 18.8667 578.274 20.05 580.874 21.55C583.54 23.0833 585.674 24.4 587.274 25.5C588.907 26.6 590.307 27.85 591.474 29.25C592.674 30.65 593.274 32.1333 593.274 33.7C593.24 36.5 591.924 38.5667 589.324 39.9C586.757 41.2 583.607 41.85 579.874 41.85Z" fill="white"/>
</svg>
